<svg width="333" height="323" viewBox="0 0 333 323" fill="none" xmlns="http://www.w3.org/2000/svg">
<g opacity="0.1">
<path d="M313.746 100.32C299.608 114.576 282.016 124.83 262.73 130.057C259.192 131.038 255.604 131.876 251.965 132.571C250.449 132.862 248.933 133.108 247.364 133.338C246.955 133.407 246.758 133.445 246.606 133.476C246.455 133.506 246.083 133.476 245.515 133.575C242.975 133.828 240.413 134.104 237.858 134.112C223.895 134.15 223.872 156.1 237.858 156.054C263.131 155.978 288.996 146.52 310.16 131.728C309.258 163.512 306.658 195.694 301.587 225.607C299.955 235.638 297.789 245.573 295.098 255.367C291.065 270.06 284.387 288.868 275.707 293.62C275.116 294.003 274.54 294.424 273.934 294.8C273.016 295.375 272.076 295.873 271.121 296.333L269.901 296.892H269.84C269.363 297.099 268.597 297.436 268.081 297.613C267.058 297.958 266.035 298.264 264.989 298.54C263.943 298.816 262.76 299.092 261.631 299.306C261.107 299.421 260.577 299.498 260.046 299.598L259.796 299.651H259.591C253.186 300.266 246.733 300.155 240.352 299.322C234.531 298.555 224.32 296.072 217.065 293.796C205.829 290.207 194.85 285.843 184.204 280.736C178.898 278.23 172.5 279.203 169.354 284.683C166.603 289.435 167.914 297.168 173.251 299.69C202.056 313.301 237.252 327.894 269.696 320.046L269.984 319.962C270.522 319.862 271.045 319.778 271.644 319.647C297.88 314.282 307.939 287.412 310.623 278.322L312.632 272.129L312.76 271.777C315.594 263.561 317.891 255.166 319.636 246.646C325.7 218.288 328.512 189.21 330.347 160.316C331.454 142.933 332.234 125.489 332.272 108.076C332.295 98.5804 320.379 93.5833 313.746 100.32ZM269.279 297.291H269.218H269.279Z" fill="white"/>
<path d="M112.258 191.715C110.987 189.084 109.365 186.642 107.437 184.457C98.3785 174.417 83.9378 188.343 91.1543 198.697C91.1512 198.718 91.1512 198.738 91.1543 198.759C91.6698 199.77 92.4127 200.698 92.9433 201.694C93.2238 202.23 93.4664 202.798 93.7014 203.326C93.8302 203.641 93.9439 203.947 94.0425 204.261C94.7917 206.5 95.3919 208.786 95.839 211.106C95.9451 211.665 96.021 212.225 96.1195 212.776C96.1195 212.876 96.1195 212.937 96.1195 213.06C96.2256 214.654 96.3697 216.248 96.4 217.85C96.4455 219.621 96.4 221.399 96.3166 223.161C96.2635 224.043 96.2029 224.924 96.1271 225.798C96.1271 226.242 95.93 227.607 95.8693 228.097C94.3875 237.626 91.7208 246.927 87.9327 255.78C80.9663 272.327 71.2558 287.664 60.8175 302.18C57.376 306.977 59.9989 314.404 64.7063 317.194C70.1869 320.428 76.0769 318.068 79.5487 313.247C96.1498 290.101 112.144 263.514 116.693 234.803C119.005 220.303 118.785 205.089 112.19 191.692" fill="white"/>
<path d="M204.087 261.106C211.29 249.643 216.676 237.111 220.052 223.966C221.87 216.864 223.137 209.63 223.842 202.33C224.442 195.132 224.485 187.898 223.971 180.693C223.047 167.483 220.13 154.492 215.321 142.173C214.434 139.874 213.457 137.574 212.433 135.329C213.126 134.133 213.765 132.956 214.351 131.796C219.954 120.844 223.191 108.814 223.849 96.5019V96.2183C223.493 66.8413 212.956 43.6341 192.527 27.2403C136.121 -18.0093 23.2567 6.52389 18.4886 7.58922L0 11.7202L13.4173 25.2169C30.8523 42.768 43.5039 83.1278 48.2872 98.3183C49.2651 101.422 49.9625 103.683 50.5613 105.216L50.6826 105.538C56.7014 122.284 64.9034 136.547 75.0233 147.937C90.1083 164.913 108.779 174.462 129.814 176.141C136.84 176.676 143.904 176.39 150.865 175.29C172.219 172.002 187.251 163.618 197.75 153.899C197.94 154.436 198.121 154.965 198.303 155.493C201.236 164.813 203.05 174.454 203.708 184.211C204.113 194.113 203.334 204.028 201.389 213.742C199.22 223.386 195.911 232.732 191.534 241.578C187.109 249.944 181.737 257.76 175.524 264.87C169.128 271.833 161.954 278.024 154.148 283.317C146.09 288.492 137.46 292.695 128.435 295.841C119.227 298.8 109.701 300.632 100.061 301.298C89.818 301.732 79.5614 300.856 69.5351 298.692C67.1397 298.178 63.7664 299.642 62.0001 301.167C59.9161 302.968 58.6241 305.532 58.4081 308.296C58.1921 311.059 59.0696 313.796 60.8479 315.906L62.8112 317.699C64.3173 318.76 66.0753 319.398 67.9053 319.546C93.7923 324.908 120.68 322.191 145.005 311.755C169.33 301.319 189.945 283.656 204.118 261.106H204.087ZM147.719 154.62C100.402 161.901 78.7377 122.522 70.0733 98.3873L69.9596 98.0501C69.5502 96.9311 68.8377 94.6472 68.0114 92.003C63.4632 77.4946 54.0331 47.3589 39.6152 25.0713C71.7713 20.2352 142.633 13.8815 179.724 43.6877C195.195 56.1038 202.874 73.3253 203.223 96.318C202.882 102.138 201.737 107.88 199.819 113.379C198.632 111.692 197.404 110.032 196.135 108.397C179.685 87.3718 157.255 71.9509 131.869 64.2125C128.837 63.3005 125.804 62.5187 122.772 61.8443C121.474 61.3096 120.059 61.1324 118.671 61.3308C117.301 61.2847 115.943 61.6073 114.737 62.2658C112.322 63.472 110.456 65.5673 109.522 68.1213C108.703 70.7424 108.597 73.7392 109.931 76.2377C111.106 78.445 113.175 80.9589 115.722 81.5183C125.754 83.7149 135.47 87.1836 144.642 91.8421C152.916 96.315 160.647 101.747 167.679 108.029C174.56 114.497 180.68 121.747 185.917 129.634C186.766 130.976 187.577 132.324 188.365 133.696C180.171 143.223 167.459 151.623 147.75 154.65" fill="#9BC01F"/>
</g>
</svg>
