<?xml version="1.0" encoding="utf-8"?>
<!-- Generator: Adobe Illustrator 26.3.1, SVG Export Plug-In . SVG Version: 6.00 Build 0)  -->
<svg version="1.1" id="Layer_1" xmlns="http://www.w3.org/2000/svg" xmlns:xlink="http://www.w3.org/1999/xlink" x="0px" y="0px"
	 viewBox="0 0 1440 764.9" style="enable-background:new 0 0 1440 764.9;" xml:space="preserve">
<style type="text/css">
	.st0{opacity:0.8;filter:url(#Adobe_OpacityMaskFilter);}
	.st1{opacity:0.77;fill:url(#SVGID_1_);enable-background:new    ;}
	.st2{fill:url(#SVGID_00000104689879175408180100000001823843780108545978_);}
	.st3{fill:url(#SVGID_00000085210777995667852370000003434791946300579751_);}
	.st4{opacity:0.52;fill:#333333;enable-background:new    ;}
	.st5{fill:url(#SVGID_00000043448963620192564020000012085002367865237669_);}
	.st6{fill:url(#SVGID_00000000941432902188051250000015862903386522129553_);}
	.st7{fill:url(#SVGID_00000123425854071356157360000007550744435029212065_);}
	.st8{fill:url(#SVGID_00000115492817081573928880000001202460392722715811_);}
	.st9{fill:url(#SVGID_00000090973639959029448180000010878670052735205552_);}
	.st10{fill:url(#SVGID_00000039127199689403073830000008387372420022177941_);}
	.st11{fill:url(#SVGID_00000011735626067009951950000006881906707847197082_);}
	.st12{fill:url(#SVGID_00000119826493334547532290000007893388366426522775_);}
	.st13{fill:url(#SVGID_00000076601093093532256810000000837271212402214333_);}
	.st14{fill:url(#SVGID_00000147192757821181375570000017319771650722807977_);}
	.st15{fill:url(#SVGID_00000091718927679238157280000007092769814735981202_);}
	.st16{fill:url(#SVGID_00000097458050486757934640000015879445279291866031_);}
	.st17{fill:url(#SVGID_00000016771011806429982200000008517612356795554481_);}
	.st18{fill:url(#SVGID_00000150788831288056551840000018299580147099271093_);}
	.st19{fill:url(#SVGID_00000051380594305850188160000005293396668634720938_);}
	.st20{opacity:0.64;fill:#545454;enable-background:new    ;}
	.st21{fill:url(#SVGID_00000078005798977847078830000010935027086425968009_);}
	.st22{fill:url(#SVGID_00000131363254997268765900000002282120139992508314_);}
	.st23{opacity:0.52;fill:#2F2F2F;enable-background:new    ;}
	.st24{fill:url(#SVGID_00000165202809791830745820000001306859323927209396_);}
	.st25{fill:url(#SVGID_00000111166495683194883440000015275139127741182389_);}
	.st26{fill:url(#SVGID_00000073699942569947480800000018377248387258744992_);}
	.st27{fill:#4E4E4E;}
	.st28{fill:url(#SVGID_00000122693188176549357080000013063497682238737074_);}
	.st29{fill:#545454;}
	.st30{fill:url(#SVGID_00000123399656870214070310000000370121039592815034_);}
	.st31{fill:url(#SVGID_00000121268803486591248500000010185662470130049463_);}
	.st32{fill:url(#SVGID_00000176037893750107859760000000331579227468504473_);}
	.st33{fill:url(#SVGID_00000129905179062387115440000004411945940568589748_);}
	.st34{opacity:0.4;fill:#545454;enable-background:new    ;}
	.st35{fill:url(#SVGID_00000060006597888179552760000005626236187201589903_);}
	.st36{fill:#5B5B5B;}
	.st37{fill:url(#SVGID_00000091713072395785942240000005854426947376562105_);}
	.st38{fill:url(#SVGID_00000028294768305064112560000005919952436216973967_);}
	.st39{fill:url(#SVGID_00000082331498077035904370000015452127965484358796_);}
	.st40{fill:url(#SVGID_00000114067571047892449760000018313802092803362210_);}
	.st41{opacity:0.66;fill:#515151;enable-background:new    ;}
	.st42{fill:url(#SVGID_00000159446192301201863000000008263682238596178082_);}
	.st43{fill:url(#SVGID_00000013909361185135576150000010181281317942095526_);}
	.st44{fill:url(#SVGID_00000137104508096127964530000002703136168593233588_);}
	.st45{fill:url(#SVGID_00000097461736170221231600000004884840617466088088_);}
	.st46{fill:url(#SVGID_00000122717916222658682330000006920252116116763551_);}
	.st47{fill:url(#SVGID_00000075123724723998816440000003347855613980671393_);}
	.st48{opacity:0.51;fill:url(#SVGID_00000107581460127169693810000000959375695408574142_);enable-background:new    ;}
	.st49{opacity:0.44;fill:url(#SVGID_00000021100430557416774580000008907768522644985729_);enable-background:new    ;}
	.st50{mask:url(#mask0_398_8776_00000085956589316144713090000002186659768990451102_);}
	.st51{fill:#F1F1F1;}
</style>
<defs>
	<filter id="Adobe_OpacityMaskFilter" filterUnits="userSpaceOnUse" x="0" y="10.9" width="1440" height="754">
		<feColorMatrix  type="matrix" values="1 0 0 0 0  0 1 0 0 0  0 0 1 0 0  0 0 0 1 0"/>
	</filter>
</defs>
<mask maskUnits="userSpaceOnUse" x="0" y="10.9" width="1440" height="754" id="mask0_398_8776_00000085956589316144713090000002186659768990451102_">
	<g class="st0">
		
			<linearGradient id="SVGID_1_" gradientUnits="userSpaceOnUse" x1="698.0327" y1="33.8277" x2="698.0327" y2="492.4486" gradientTransform="matrix(1 0 0 -1 0 821.8353)">
			<stop  offset="0" style="stop-color:#4D4D4D"/>
			<stop  offset="1" style="stop-color:#848484"/>
		</linearGradient>
		<path class="st1" d="M-84.4,530.2c8.9-6.7,19.6-10.7,30.7-11.4s22.2,1.7,32,7.2c9.6,5.8,17.2,14.2,22.1,24.2s6.8,21.3,5.4,32.3
			c1-8.9,4.7-17.4,10.6-24.2c5.9-6.8,13.7-11.7,22.4-14c8.8-2,18-1.2,26.3,2.1s15.5,9.2,20.5,16.6c-13.3-18.9-8.8-47.9,9.6-61.9
			c18.4-14,47.6-10.3,62.1,7.7c-1.9-24.2,20.3-47.4,44.5-46.7c24.2,0.7,45,25.1,41.8,49.2c8.2-22,38.6-32.1,58.4-19.5
			c19.8,12.7,23.3,44.5,6.8,61.2c24.7-10.2,53,24.3,38.1,46.5c23.3-13.6,55.6-9.2,74.4,10l1.3-59.9c24-5.8,51.3,7.7,61.3,30.3
			c-7.9-23.9,7.4-52.9,31.6-59.9c24.2-7,52.5,9.2,58.8,33.6c0.4-20.3,25.5-35.7,43.7-26.8c18.3,8.8,21.6,38.2,5.7,51
			c9-13.3,29.3-17.3,42.5-8.1c13.3,9.1,17.1,29.3,8.1,42.6c6.4-6.4,14.7-10.7,23.6-12.2s18.1-0.2,26.3,3.7
			c8.2,4,14.9,10.4,19.2,18.3c4.4,8,6.1,17.1,5.1,26.1c16.6-16.1,48.9-9.1,57.3,12.5c-14-10.1-17-32.5-6.1-45.9
			c10.9-13.4,33.4-15,46.1-3.3c-6.6-18.6,2.3-41.4,19.8-50.6c17.5-9.1,41.3-3.4,52.8,12.7c-13.9-22.3-7-55,14.7-69.7
			c21.7-14.7,54.6-9.1,70.1,12.1c21.8-26.6,73.1-14.8,81.1,18.7c1.1-19.4,17.8-36.7,37.2-38.5c19.4-1.8,38.9,12.2,43.6,31.1
			c-2.2-20.5,11.7-41.5,31.4-47.6c19.7-6,43,3.6,52.6,21.8c0.5-11.7,4.6-22.9,11.7-32.2c7.1-9.3,16.8-16.3,27.9-19.9
			s23-3.9,34.2-0.6c11.2,3.3,21.2,9.9,28.5,18.9c29.4-25.6,79-9.9,101.8,21.8c22.8,31.8,25.7,73.3,26.8,112.4
			c2.2,80.9-0.5,161.9-8,242.5H-84.4V530.2z"/>
		
			<linearGradient id="SVGID_00000077308150489849879380000013901118130575870395_" gradientUnits="userSpaceOnUse" x1="49.2844" y1="93.5495" x2="1313.1115" y2="1045.8439" gradientTransform="matrix(1 0 0 -1 0 821.8353)">
			<stop  offset="0" style="stop-color:#616161"/>
			<stop  offset="1" style="stop-color:#CACACA"/>
		</linearGradient>
		<path style="fill:url(#SVGID_00000077308150489849879380000013901118130575870395_);" d="M161.9,201.9
			c-10.7,257.1-21.5,514.3-32.3,771.5L7.8,963.8l63.1-513.1C26.1,319,5.3,180.3,9.5,41.3l10.7,1.8c1.1,109.4,21.9,217.6,61.4,319.6
			c25.3-206.3,50.7-412.6,76-618.7l22.8,13.2c-4.9,118-9.9,236-14.8,353.9c45.4-99.5,73.7-206,83.7-314.9l9.9,7.2
			C251-59,218,76,161.9,201.9z M868.8-6.1c-35.3,164.3-126.9,290-150.2,322.5c1.4-99.8,2.8-199.6,4.2-299.5L775-117.7l-4.9-13.3
			L723.5-28.9c0.8-60.9,1.7-121.7,2.5-182.6l-18.8-4.1C698-160.9,690-106.1,683-51.1c-15.7-41.4-28.1-84-37-127.4l-17.1-13.4
			c7.7,62.9,24.2,124.4,49,182.7c-15,128-24.3,256.5-27.7,385.5c-11.4-38.3-113.8-257.7-107.8-448.9l-16.5,18
			c0,176.1,102.5,464.5,122.8,528.3c-0.4,118.6,4.1,237.2,13.6,355.6l49.2-9.6c2-140.6,3.9-281.3,5.9-422
			C760,336,860.3,140.3,874.5,23.2L868.8-6.1z M1269.5-116l-11.9-7.5c-23,109.5-53.3,217.3-90.7,322.8
			c-10-138.5-26.5-276.3-49.6-413.5l-52.6-1.6c12.3,76.7,22.2,153.7,30,231.2c-51.9-67.1-93-142-121.7-221.9l-13.1,12.5
			c25.8,96.7,73.5,186.2,139.6,261.4c11.7,135.5,16.4,271.5,14.2,407.5c-86.2-37.4-162.6-197.7-171.9-295l-14.8,5.3
			c11.3,116.7,77.7,285.6,185.2,351.9c-2.9,90.6-8.9,181-18.1,271.3l75.4-21.7c11.1-176.6,11.4-353.7,1.1-530.3
			C1212.2,134.8,1245.2,10.3,1269.5-116z M1470.8,368.5c-98.4-183.1-147.4-388.7-142-596.5l-29.2,18.4
			c7.4,161.9,32.1,322.6,73.6,479.3c-50.1-45.4-119.9-139.7-154.7-197.8l-8.5,17.8c44.1,69.5,114.2,182.9,178.2,234.5
			c11.6,39.9,24.3,79.4,38.1,118.6L1470.8,368.5z M-199,435.6c58.7-82.8,108.3-171.7,147.7-265.3c35.8-84.7,63.1-172.8,81.5-263
			l-4.8-35C-8.4,3.7-67.9,127.1-149.8,235.3L-199,435.6z M620.4,338.2l-8.8-9.3c-20.1,95.5-87.4,252.5-138.2,335.8l-3.8-589.3
			c18.2-55.1,33-111.3,44.1-168.2l-6.6-19.7L469.1,3.8c-0.5-68.4-0.9-136.8-1.3-205.1l-22-6.9c-12.8,108.7-22.3,217.7-28.5,327
			c-40-101-70-205.7-89.7-312.5l-15.9,1.7C328-66.8,362.7,55.3,414.5,170.5c-3.5,74.5-5.4,149.1-5.7,223.8
			C355.3,304.9,283.1,174.4,266-54.2l-19.8,10.9c9.8,244.1,119.7,409.6,162.5,506.7c1.3,154.8,9.2,309.3,23.8,463.6l43,80.5
			l-1.9-279.4l4.8,8.1C534.3,642.4,605.6,446.5,620.4,338.2L620.4,338.2z M1010.1-94l-13.1-9.1C972,13.1,937.2,127,893.2,237.4
			c1.1-141.9-3.6-283.6-14.1-425.2l-18.2-3.6c4.7,352.8-17.7,705.4-67.1,1054.8l78.4-36.7c16.5-148.1,16-355.6,19.6-504.5
			C947,188.4,986.6,48.8,1010.1-94z"/>
		
			<linearGradient id="SVGID_00000098207160807541842680000001381505658522521009_" gradientUnits="userSpaceOnUse" x1="1438.4142" y1="182.3991" x2="1375.3441" y2="442.3261" gradientTransform="matrix(1 0 0 -1 0 821.8353)">
			<stop  offset="0" style="stop-color:#232323"/>
			<stop  offset="1" style="stop-color:#818181"/>
		</linearGradient>
		<path style="fill:url(#SVGID_00000098207160807541842680000001381505658522521009_);" d="M1456.7,676l-0.7-0.4
			c-1.1-0.6-2.1-1.3-3.2-1.9c-21.4-13.7-43.9-33.6-66.8-66.8l14.1-14.7l-26.5-4.1c0,0-3.8-12.5-8.5-30.3c-0.1-0.6-0.3-1.1-0.4-1.7
			c-1-3.7-2-7.7-3-11.8c-0.5-2.1-1.1-4.2-1.6-6.4c-5.1-21.1-10.2-45.1-12.3-64.4l-0.1-1c0-0.6-0.1-1.2-0.2-1.8
			c-0.5-4.3-0.9-8.1-1.3-11.5c0-0.7-0.2-1.3-0.2-1.9c-2.1-17.8-3.1-21.9-3.5-22.6l23.7-11.5l-21.9-3c4-23.3,9.4-46.3,16.1-69
			c9,3.8,57.5,26.7,80.9,82.8l-14,13.7l16.6-2.5c0,0,2.1,6.6,4.9,17.1c0.6,2.1,1.2,4.5,1.8,6.9c5.1,19.7,11.3,48.5,12.5,74.1
			c0,1.6,0.1,3.2,0.2,4.9c0.1,1.7,0,3.5,0,5.3C1464.1,599.9,1456.7,676,1456.7,676z"/>
		<path class="st4" d="M1462.1,723.5c-3-16.7-6.1-33.3-9.2-50c-8.8-47.1-18.2-94.1-28.1-141c-0.9-4.3-1.8-8.6-2.8-12.9
			c-10.1,6.4-20.9,11.5-30.8,18.3c-9,6.2-17.7,12.8-26,19.9c-0.1-0.6-0.3-1.1-0.4-1.7c7.4-7.7,15.5-14.7,24.1-21.1
			c9.8-7.2,20.7-14.9,32.3-19.2c-0.1-0.6-0.2-1.2-0.4-1.9c-11.4,2.8-22.4,7-32.7,12.5c-6.4,3.5-12.5,7.4-18.3,11.7
			c-2.6,1.9-5.1,4.8-8,6.2c-0.5-2.1-1.1-4.2-1.6-6.4c2.1-2.2,4.9-4.1,6.8-5.8c6-5.3,12.5-10.1,19.3-14.4
			c10.4-6.4,21.2-10.9,32.9-11.3c-2.9-13.3-6.1-26.6-9.6-39.7c-10.6,0.4-21.2-0.1-31.8,0.7c-10.1,0.7-20.2,2.4-30,5
			c0-0.6-0.1-1.2-0.2-1.8c19.7-6.3,40.5-8.7,61.2-7.1c0-0.2-0.1-0.3-0.1-0.4c-20.7-2.9-41.6-6.5-62.4-4c0-0.7-0.2-1.3-0.2-1.9
			c20.1-3.8,42.1-1.9,61.8,2.9c-9.8-35.8-22.7-70.4-42.6-102.7c0-0.2,0.1-0.3,0.2-0.2c29.8,39.6,51.7,129.2,53.9,139
			c8.9-12.1,18.7-23.5,29.3-34c0.6,2.1,1.2,4.5,1.8,6.9c-10.1,9.4-19.9,19.2-29.3,29.5c-0.2,0.2-0.3,0.3-0.5,0.4
			c-0.2,0.1-0.4,0.1-0.7,0.1c0.5,2.4,5.1,24.1,5.6,26.6c3.2,15.5,6.5,31,9.9,46.5c5.8-8.8,15.5-15.9,24-21.6
			c1.3-0.8,2.6-1.7,3.8-2.5c0,1.7,0,3.5,0,5.3c-0.8,0.5-1.6,1-2.3,1.5c-9.1,5.9-16.3,13.9-24.9,20.3c7.1,33.3,13.9,66.7,19.9,100.2
			c2.8,15.9,5.4,31.8,7.7,47.8c0,0.2-0.1,0.3-0.3,0.4c-0.1,0.1-0.3,0.2-0.5,0.2c-0.2,0-0.3,0-0.5-0.1
			C1462.3,723.8,1462.2,723.7,1462.1,723.5z"/>
		
			<linearGradient id="SVGID_00000027596173174415561050000006636939503749544380_" gradientUnits="userSpaceOnUse" x1="1398.184" y1="59.9449" x2="1284.434" y2="437.1829" gradientTransform="matrix(1 0 0 -1 0 821.8353)">
			<stop  offset="0" style="stop-color:#424242"/>
			<stop  offset="0.99" style="stop-color:#5F5F5F"/>
		</linearGradient>
		<path style="fill:url(#SVGID_00000027596173174415561050000006636939503749544380_);" d="M1415.6,759.5
			c-17.1-30.4-33-61.4-47.7-93c-4.8-10.4-9.5-20.8-14-31.3c-0.1,0.2-0.2,0.4-0.4,0.6c-1.6,1.3-8.6,0.1-10.6,0
			c-3.5-0.1-7.1-0.3-10.6-0.8c-5.6-0.4-11.1-1.7-16.3-3.8c-5.2-2.2-9.4-6.2-11.9-11.3c-1.2-2.5-1.6-5.4-1.3-8.2
			c0.3-2.8,1.4-5.4,3.2-7.6c4.9-5.6,14-5.5,20.5-2c6.5,3.5,11.1,9.7,15.5,15.7l7.3,10c0.6,0.8,1.7,2,2.7,3.2
			c-6.7-15.8-12.9-31.8-18.6-47.9c-0.1,0.1-0.2,0.2-0.3,0.2c-1.5,1-7.7-0.7-9.4-1c-3.1-0.4-6.2-1-9.3-1.7c-4.9-0.9-9.7-2.6-14-5
			c-4.4-2.5-7.8-6.4-9.4-11.2c-0.8-2.4-0.9-4.9-0.3-7.4c0.6-2.4,1.8-4.7,3.6-6.4c4.9-4.4,12.9-3.5,18.4,0.2
			c5.5,3.8,8.9,9.7,12.2,15.4l5.5,9.6c0.3,0.5,0.8,1.2,1.3,1.9c-5-14.6-9.6-29.3-13.8-44.2c-1.9,0.6-6.8-0.8-8.4-1.1
			c-2.9-0.4-5.9-0.9-8.7-1.6c-4.6-0.9-9-2.5-13.1-4.7c-4.1-2.3-7.3-6-8.8-10.5c-0.7-2.2-0.9-4.6-0.3-6.9c0.5-2.3,1.7-4.4,3.4-6
			c4.6-4.2,12.2-3.3,17.2,0.2c5.1,3.5,8.4,9.1,11.5,14.5l5.2,9l0.5,0.8c-2.6-9.7-4.9-19.5-7.1-29.3c-6-27.4-10.1-55.2-12.1-83.1
			c-0.2-3.1-0.4-6.2-0.6-9.3c-1.6-0.6-3.1-1.3-4.5-2.1c-1.8-0.8-3.6-1.6-5.3-2.6c-2.8-1.4-5.3-3.2-7.5-5.4c-2.2-2.2-3.5-5.1-3.7-8.3
			c-0.1-1.6,0.3-3.1,1.1-4.4c0.8-1.4,1.9-2.5,3.2-3.2c3.7-1.8,8.3,0,10.9,3.2c2.4,3.4,4,7.2,4.7,11.3c0.2,0.9,0.5,1.9,0.7,2.8
			c-0.5-10-0.6-20.1-0.3-30.1c-1.2-0.5-2.4-1-3.5-1.6c-1.3-0.6-2.7-1.2-4-1.9c-2.1-1-4.1-2.4-5.7-4.1c-1.7-1.7-2.7-3.9-2.8-6.3
			c0-1.2,0.2-2.3,0.8-3.3c0.6-1,1.4-1.9,2.4-2.4c1.5-0.5,3.1-0.6,4.6-0.1c1.5,0.4,2.8,1.4,3.7,2.6c1.8,2.5,3,5.5,3.5,8.5
			c0.3,1.4,0.7,2.8,1.1,4.3c0.3-5.6,0.7-11.3,1.3-16.8c-0.8-1.2-1.3-2.6-1.7-4c-0.6-1.4-1.1-2.8-1.5-4.2c-0.8-2.2-1.2-4.5-1.3-6.9
			c0-2.4,0.8-4.7,2.3-6.5c0.8-0.9,1.8-1.5,2.9-1.9c1.1-0.3,2.3-0.4,3.4-0.1c1.4,0.6,2.6,1.7,3.4,3c0.8,1.4,1.1,2.9,0.9,4.5
			c-0.5,3.1-1.6,6-3.3,8.6l-2.6,4.5l-0.4,0.9c-0.1,5.8-0.2,11.6-0.4,17.4c0.8-3.7,2.2-7.2,4.2-10.3c1.2-1.9,2.9-3.4,4.9-4.3
			c0.9-0.5,2-0.7,3.1-0.6c1.1,0.1,2.1,0.6,2.9,1.3c0.8,0.7,1.3,1.7,1.6,2.8c0.2,1.1,0.1,2.2-0.4,3.1c-0.7,1.9-1.9,3.6-3.4,5
			c-3.6,3.9-8,6.9-13,8.7c-0.6,20.1,0,40.2,1.7,60.3c0.6,6.2,1.4,12.4,2.2,18.6c0.5-9.8,3.5-19.2,8.8-27.4c2.2-3.4,5.2-6.1,8.9-7.9
			c1.8-0.8,3.8-1.1,5.8-0.8c2,0.3,3.8,1.2,5.3,2.5c1.2,1.4,2,3.1,2.3,4.9c0.3,1.8,0.2,3.7-0.4,5.4c-1.3,3.4-3.4,6.5-6.2,9
			c-6.4,6.5-15.3,13.6-24.3,16c1,7.2,2.1,14.5,3.4,21.6c0.1-4.8,0.9-9.6,2.4-14.2c1.2-3.9,3.4-7.3,6.4-10c1.4-1.4,3.2-2.3,5.1-2.6
			c1.9-0.3,3.9,0,5.7,0.9c1.8,0.9,3.2,2.3,4.1,4c0.9,1.7,1.2,3.7,0.9,5.7c-0.3,3.7-1.5,7.2-3.4,10.4c-4.2,7.7-10.5,16.6-18.1,21.5
			c6.9,33,16.2,65.4,27.8,97c-3.5-11-2.3-26.8,0.7-35.1c1.4-4.5,4-8.6,7.5-11.7c3.7-2.9,9.1-4.1,13.1-1.7c1.8,1.2,3.2,2.8,4.2,4.8
			c1,1.9,1.4,4.1,1.2,6.2c-0.4,4.3-1.8,8.5-4.1,12.2c-5.2,9.5-13,20.4-22.4,26c13.1,36.3,28.7,71.8,45.4,106.8
			c-5-13.4-5.5-31.9-3-42.3c1.4-5.8,3.6-11.7,7.8-15.9c4.3-4.2,10.9-6.4,16.4-4c5,2.2,8,7.8,8.4,13.3c0.1,5.5-1.1,11-3.4,16
			c-5.2,12.7-13.5,27.6-24.7,36c10.7,22.3,21.8,44.4,33.1,66.4C1417.8,759.6,1416.2,760.6,1415.6,759.5z M1353.9,594
			c-2.4,9.9-1.7,28.2,3.8,40c9.9-7.3,17.2-20.5,21.9-31.7c2.1-4.4,3.1-9.2,3-14.1c-0.1-2.4-0.8-4.8-2.1-6.9
			c-1.3-2.1-3.1-3.7-5.3-4.9c-4.8-2.1-10.7-0.2-14.4,3.5C1357.3,584,1354.9,588.8,1353.9,594z M1306.2,384.2
			c-4.1,6.3-6.3,13.7-6.4,21.3c6.6-1.7,13.1-6.9,17.8-11.7c2-1.8,3.5-4.1,4.5-6.6c0.5-1.3,0.6-2.6,0.3-3.9c-0.2-1.3-0.8-2.6-1.7-3.6
			c-1.1-1-2.4-1.6-3.9-1.8c-1.4-0.2-2.9,0-4.2,0.6C1310,379.8,1307.8,381.7,1306.2,384.2z M1322.5,498.8c-2.9,8-4,23.3-0.5,33.6
			c8.9-5.2,16.2-15.4,21.1-24.3c2.1-3.5,3.4-7.4,3.8-11.5c0.3-2.1,0-4.3-1-6.2c-1-1.9-2.6-3.5-4.5-4.4c-1.9-1-4.1-1.3-6.2-1
			c-2.1,0.3-4.1,1.3-5.6,2.9C1326.3,490.7,1323.8,494.5,1322.5,498.8z M1284.4,440.6c2.4,1.3,4.8,2.5,7.3,3.6c1.4,0.6,6,3.5,7.5,3
			c1.9-0.6,0-4.9-0.6-6.7l-2.3-9.2c-1.4-5.5-2.8-11.2-6.4-15.5s-10-6.9-15-4.5c-1.9,1-3.4,2.6-4.4,4.4c-1,1.9-1.5,4-1.5,6.1
			c0.3,4.3,2.1,8.3,5.1,11.4C1277.1,436.2,1280.6,438.7,1284.4,440.6z M1366.3,673.7c-5-6.8-10.2-13.9-17.7-17.9
			c-7.4-4-17.8-4-23.4,2.3c-2,2.5-3.3,5.5-3.7,8.7c-0.4,3.2,0.1,6.4,1.4,9.3c2.8,5.8,7.6,10.4,13.5,12.9c5.9,2.5,12.1,4,18.5,4.4
			c4,0.5,8.1,0.7,12.1,0.8c2.4,0.1,10.3,1.4,12.1,0c2.3-1.9-2.9-6.7-4.6-9L1366.3,673.7z M1296.8,485.2c1.6,0.2,6.7,1.7,8,0.9
			c1.7-1.1-1.4-4.7-2.4-6.3l-4.7-8.2c-2.8-4.9-5.7-9.9-10.4-13.2c-4.7-3.2-11.5-3.9-15.7-0.2c-1.5,1.5-2.6,3.4-3.1,5.5
			c-0.5,2.1-0.4,4.2,0.3,6.3c1.4,4.1,4.3,7.5,8.1,9.6c3.7,2.1,7.8,3.5,11.9,4.3C1291.5,484.3,1294.2,484.8,1296.8,485.2z"/>
		
			<linearGradient id="SVGID_00000177459460695417460840000008128500640102312864_" gradientUnits="userSpaceOnUse" x1="1146.7721" y1="-38.1288" x2="1025.0021" y2="365.6693" gradientTransform="matrix(1 0 0 -1 0 821.8353)">
			<stop  offset="0" style="stop-color:#424242"/>
			<stop  offset="0.21" style="stop-color:#626262"/>
			<stop  offset="0.99" style="stop-color:#D8D8D8"/>
		</linearGradient>
		<path style="fill:url(#SVGID_00000177459460695417460840000008128500640102312864_);" d="M1165.4,857.4
			c-18.3-32.5-35.4-65.7-51.1-99.6c-5.1-11.1-10.1-22.2-14.9-33.5c-0.1,0.2-0.2,0.4-0.4,0.6c-1.7,1.4-9.1,0.1-11.4,0
			c-3.8-0.1-7.7-0.4-11.4-0.8c-6-0.4-11.9-1.8-17.4-4.2c-5.6-2.3-10.1-6.7-12.7-12.1c-1.3-2.7-1.7-5.8-1.3-8.7
			c0.4-3,1.6-5.8,3.5-8.1c5.3-5.9,15-5.9,22-2.1c7,3.8,11.9,10.4,16.6,16.8l7.9,10.8c0.7,0.9,1.9,2.1,2.9,3.5
			c-7.1-16.9-13.8-34.1-19.9-51.4c-0.1,0.1-0.2,0.2-0.3,0.3c-1.6,1.1-8.1-0.8-10.1-1.1c-3.3-0.5-6.7-1.1-10-1.8
			c-5.3-1-10.3-2.8-15-5.4c-4.7-2.6-8.3-6.9-10.1-12c-0.9-2.5-1-5.3-0.4-7.9c0.6-2.6,2-5,3.9-6.9c5.3-4.7,13.9-3.8,19.7,0.2
			c5.8,4.1,9.6,10.4,13.1,16.5l5.9,10.3c0.3,0.6,0.8,1.3,1.4,2.1c-5.4-15.6-10.3-31.4-14.8-47.3c-1.9,0.6-7.3-0.9-9-1.2
			c-3.1-0.5-6.3-1-9.4-1.7c-4.9-0.9-9.7-2.6-14.1-5.1c-4.4-2.5-7.8-6.4-9.5-11.2c-0.8-2.4-0.9-4.9-0.4-7.4c0.6-2.4,1.8-4.7,3.6-6.5
			c5-4.4,13-3.5,18.5,0.2c5.5,3.8,9,9.7,12.3,15.5c1.9,3.2,3.7,6.4,5.6,9.6c0.2,0.3,0.3,0.6,0.5,0.8c-2.8-10.4-5.3-20.9-7.7-31.4
			c-6.4-29.3-10.8-58.9-12.8-88.8c-0.2-3.3-0.5-6.6-0.7-10c-1.7-0.6-3.3-1.4-4.8-2.3c-1.9-0.9-3.8-1.8-5.6-2.8c-3-1.5-5.7-3.4-8-5.8
			c-2.4-2.4-3.8-5.5-4-8.8c-0.1-1.7,0.3-3.3,1.1-4.8c0.8-1.4,2-2.6,3.5-3.4c3.8-1.9,8.9,0,11.7,3.5c2.8,3.5,3.8,7.8,5,12.1l0.8,3
			c-0.5-10.7-0.7-21.5-0.3-32.2c-1.3-0.5-2.5-1.1-3.7-1.7c-1.5-0.7-2.9-1.3-4.3-2.1c-2.2-1.1-4.3-2.6-6.1-4.4
			c-1.8-1.8-2.9-4.2-3-6.7c0-1.3,0.2-2.5,0.9-3.6c0.6-1.1,1.5-2,2.6-2.6c3-1.5,6.7,0,8.9,2.6c1.9,2.7,3.2,5.8,3.8,9.1
			c0.4,1.5,0.8,3,1.1,4.6c0.3-6,0.8-12.1,1.4-18c-0.9-1.3-1.5-2.7-1.9-4.2c-0.6-1.5-1.1-3-1.6-4.5c-0.8-2.4-1.3-4.8-1.4-7.4
			c-0.1-2.5,0.8-5,2.4-6.9c0.8-0.9,1.9-1.6,3.1-2c1.2-0.4,2.5-0.4,3.7-0.1c3.2,1,4.8,4.7,4.6,8c-0.5,3.3-1.7,6.4-3.6,9.2
			c-0.9,1.6-1.9,3.2-2.8,4.8c-0.1,0.2-0.3,0.6-0.5,1l-0.4,18.7c0.8-3.9,2.4-7.7,4.5-11.1c1.3-2,3.1-3.6,5.2-4.6
			c1.1-0.5,2.3-0.7,3.4-0.5c1.2,0.2,2.3,0.7,3.1,1.5c0.7,0.8,1.2,1.8,1.4,2.9c0.2,1.1,0.1,2.2-0.3,3.2c-0.8,2-2,3.9-3.6,5.3
			c-3.7,3.8-8.7,7.8-13.9,9.3c-0.7,21.5,0,43,1.8,64.5c0.7,6.7,1.5,13.3,2.4,19.9c0.5-10.4,3.7-20.6,9.4-29.4
			c2.3-3.6,5.6-6.5,9.5-8.4c1.9-0.9,4.1-1.2,6.2-0.9c2.1,0.3,4.1,1.2,5.7,2.7c1.3,1.5,2.1,3.3,2.5,5.3c0.3,1.9,0.2,3.9-0.5,5.8
			c-1.4,3.7-3.7,7-6.6,9.7c-6.9,7-16.3,14.6-26,17.1c1.1,7.8,2.3,15.5,3.6,23.2c0.1-5.2,1-10.4,2.6-15.3c1.3-4.1,3.6-7.8,6.8-10.7
			c1.6-1.4,3.6-2.3,5.8-2.6c2.1-0.3,4.3,0.1,6.2,1c1.6,1.1,3,2.6,3.8,4.4c0.9,1.8,1.2,3.8,1.1,5.7c-0.4,3.9-1.6,7.7-3.7,11.1
			c-4.5,8.3-11.2,17.7-19.4,23c7.4,35.2,17.4,69.9,29.8,103.7c-3.7-11.7-2.4-28.6,0.8-37.5c1.5-4.8,4.2-9.2,8-12.5
			c3.8-3.1,9.7-4.4,14.1-1.9c1.9,1.3,3.5,3.1,4.5,5.1c1,2.1,1.5,4.4,1.3,6.7c-0.4,4.6-1.9,9.1-4.3,13.1c-5.6,10.2-13.8,21.9-24,27.8
			c14.1,38.9,30.7,76.9,48.6,114.4c-5.4-14.3-5.9-34.2-3.2-45.3c1.5-6.2,3.8-12.5,8.4-17c4.6-4.5,11.7-6.9,17.6-4.3
			c5.4,2.4,8.6,8.4,9,14.3c0.1,6-1.1,11.9-3.7,17.2c-5.6,13.7-14.5,29.6-26.4,38.5c11.5,23.9,23.4,47.5,35.4,71
			C1167.8,857.5,1166,858.6,1165.4,857.4z M1099.4,680.2c-2.5,10.5-1.9,30.2,4.1,42.8c10.6-7.8,18.4-21.9,23.4-34
			c2.2-4.7,3.3-9.9,3.2-15.1c-0.1-2.6-0.9-5.1-2.2-7.3c-1.4-2.2-3.3-4-5.7-5.2c-5.2-2.3-11.5-0.2-15.4,3.8
			C1103,669.5,1100.4,674.7,1099.4,680.2z M1048.3,455.6c-4.4,6.8-6.8,14.7-6.8,22.8c7.1-1.8,14-7.4,19-12.5c2.1-1.9,3.8-4.4,4.8-7
			c0.5-1.4,0.6-2.8,0.4-4.2c-0.2-1.4-0.9-2.7-1.8-3.8c-1.2-1-2.6-1.7-4.2-1.9s-3.1,0-4.5,0.6C1052.4,450.9,1050,453,1048.3,455.6z
			 M1065.8,578.3c-3.1,8.5-4.3,24.9-0.5,35.9c9.6-5.5,17.2-16.5,22.5-26.1c2.3-3.7,3.6-7.9,4.1-12.2c0.2-2.2-0.2-4.3-1.2-6.3
			c-1-2-2.4-3.6-4.2-4.8c-4.1-2.4-9.6-1.2-13.2,1.7C1069.8,569.7,1067.2,573.8,1065.8,578.3L1065.8,578.3z M1025,516.1
			c2.5,1.4,5.1,2.7,7.8,3.8c1.5,0.7,6.4,3.7,8,3.2c2.1-0.6,0-5.2-0.6-7.2c-0.8-3.3-1.6-6.5-2.5-9.8c-1.4-5.9-3-11.9-6.9-16.6
			c-3.8-4.7-10.7-7.4-16.1-4.8c-2,1.1-3.6,2.7-4.8,4.7c-1.1,2-1.7,4.3-1.5,6.5c0.3,4.6,2.2,8.9,5.5,12.2
			C1017.2,511.4,1020.9,514.1,1025,516.1L1025,516.1z M1112.6,765.6c-5.3-7.3-10.9-14.8-18.9-19.2c-8-4.3-19-4.3-25,2.5
			c-2.1,2.7-3.5,5.9-3.9,9.2c-0.4,3.4,0.1,6.8,1.5,9.9c3,6.2,8.2,11.1,14.5,13.8c6.3,2.6,13,4.2,19.8,4.7c4.3,0.5,8.6,0.8,12.9,0.9
			c2.5,0,11,1.5,12.9,0c2.5-2.1-3.1-7.2-4.9-9.7L1112.6,765.6z M1038.3,563.7c1.7,0.2,7.2,1.8,8.6,0.9c1.8-1.2-1.5-5-2.6-6.8
			c-1.7-2.9-3.4-5.8-5-8.8c-3-5.2-6.2-10.7-11.2-14.1c-5-3.4-12.3-4.2-16.8-0.2c-1.6,1.6-2.8,3.6-3.3,5.9c-0.5,2.2-0.4,4.5,0.3,6.7
			c1.5,4.3,4.6,8,8.6,10.2c4,2.2,8.3,3.8,12.8,4.6C1032.6,562.8,1035.4,563.3,1038.3,563.7z"/>
		
			<linearGradient id="SVGID_00000018228521361371353710000004472762358895099276_" gradientUnits="userSpaceOnUse" x1="1140.3304" y1="11.4998" x2="1109.9004" y2="434.0529" gradientTransform="matrix(1 0 0 -1 0 821.8353)">
			<stop  offset="0" style="stop-color:#424242"/>
			<stop  offset="3.000000e-02" style="stop-color:#464646"/>
			<stop  offset="0.99" style="stop-color:#BCBCBC"/>
		</linearGradient>
		<path style="fill:url(#SVGID_00000018228521361371353710000004472762358895099276_);" d="M1158.8,806.3
			c-10.8-35.7-20.1-71.8-28.1-108.3c-2.6-11.9-5-23.9-7.2-35.9c-0.1,0.2-0.3,0.4-0.5,0.5c-1.9,1-9-1.9-11.1-2.4
			c-3.7-1-7.3-2-10.9-3.3c-5.7-1.7-11.2-4.4-16.1-7.9c-4.9-3.5-8.4-8.7-9.8-14.6c-0.6-2.9-0.4-6,0.6-8.8c1-2.8,2.8-5.3,5.2-7.2
			c6.4-4.6,15.9-2.5,21.9,2.7c6,5.2,9.4,12.7,12.5,20.1l5.3,12.2c0.4,1,1.3,2.5,2,4c-3.2-18.1-6-36.3-8.2-54.5
			c-0.1,0.1-0.2,0.2-0.4,0.2c-1.9,0.7-7.7-2.5-9.6-3.3c-3.2-1.2-6.3-2.5-9.3-4c-4.9-2.1-9.4-5-13.4-8.5c-4-3.6-6.6-8.5-7.2-13.9
			c-0.3-2.7,0.2-5.4,1.4-7.8c1.2-2.4,3-4.4,5.3-5.9c6.2-3.5,14.4-0.7,19.2,4.5c4.8,5.2,7.1,12.2,9.2,19l3.5,11.3
			c0.2,0.6,0.5,1.4,0.9,2.3c-1.9-16.4-3.2-32.9-4.1-49.4c-2.1,0.1-6.9-2.5-8.5-3.1c-3-1.1-5.9-2.3-8.8-3.7c-4.6-2-8.9-4.7-12.6-8
			c-3.8-3.4-6.2-8-6.8-13c-0.2-2.5,0.2-5,1.3-7.3c1.1-2.3,2.8-4.2,4.9-5.5c5.7-3.3,13.4-0.6,18,4.3c4.6,4.9,6.6,11.5,8.6,17.8
			c1.1,3.5,2.2,7.1,3.3,10.6c0,0.3,0.2,0.6,0.3,0.9c-0.5-10.8-0.7-21.5-0.6-32.3c0.1-30,2.4-60,6.8-89.7c0.5-3.3,1-6.6,1.6-9.9
			c-1.5-1-2.9-2.1-4.2-3.3c-1.7-1.2-3.3-2.6-4.9-3.9c-2.6-2.1-4.8-4.6-6.6-7.4c-1.8-2.8-2.5-6.3-1.9-9.6c0.3-1.6,1-3.2,2.1-4.4
			c1.1-1.2,2.5-2.1,4.1-2.6c4.3-1,8.7,2,10.7,6c1.7,4.1,2.4,8.5,2.2,12.8v3.1c1.9-10.5,4-21.1,6.7-31.5c-1.1-0.8-2.2-1.6-3.2-2.5
			c-1.3-1-2.5-1.9-3.7-3c-1.9-1.6-3.6-3.5-5-5.6c-1.3-2.1-1.9-4.7-1.5-7.2c0.2-1.2,0.8-2.4,1.6-3.3c0.8-0.9,1.9-1.6,3.1-2
			c3.2-0.8,6.6,1.5,8.1,4.5c1.3,3.1,1.8,6.4,1.7,9.7l0.1,4.7c1.6-5.8,3.4-11.6,5.3-17.3c-0.5-1.5-0.8-3-0.9-4.5
			c-0.2-1.6-0.5-3.1-0.6-4.7c-0.3-2.5-0.2-5,0.2-7.5c0.5-2.5,1.8-4.7,3.8-6.2c1-0.7,2.2-1.2,3.5-1.3c1.2-0.1,2.5,0.2,3.6,0.7
			c2.9,1.7,3.7,5.7,2.7,8.8c-1.2,3.1-3.1,5.9-5.5,8.2l-3.8,4.1c-0.2,0.2-0.4,0.5-0.7,0.8c-1.5,6.1-3,12.1-4.5,18.1
			c1.7-3.7,4-7,6.8-9.8c1.7-1.7,3.8-2.8,6.1-3.4c1.1-0.3,2.3-0.3,3.4,0.1c1.1,0.4,2,1.1,2.7,2c0.7,0.9,1,2.1,1,3.2
			c0,1.2-0.4,2.3-1.1,3.2c-1.2,1.8-2.8,3.3-4.7,4.4c-4.6,3.2-10,5.3-15.6,6c-5.3,20.8-9.4,42-12.3,63.3c-0.8,6.7-1.5,13.3-2.1,20
			c2.8-10.1,8.2-19.2,15.7-26.5c3.1-3,6.9-5.1,11.1-6.1c2.1-0.5,4.3-0.3,6.3,0.5c2,0.8,3.7,2.1,5,3.8c0.9,1.8,1.3,3.7,1.3,5.7
			c-0.1,2-0.7,3.9-1.8,5.6c-2.2,3.3-5.1,6-8.6,8c-8.2,5.3-19.2,10.7-29.1,11c-0.7,7.8-1.2,15.6-1.5,23.4c1.2-5,3.2-9.9,5.9-14.3
			c2.1-3.8,5.2-6.8,9-8.9c1.9-1,4-1.5,6.2-1.3c2.1,0.2,4.2,1,5.8,2.3c1.4,1.4,2.3,3.2,2.8,5.1c0.5,1.9,0.4,3.9-0.2,5.8
			c-1.2,3.8-3.3,7.2-6,10c-6.2,7.1-14.8,14.9-23.9,18.2c-0.5,36,1.6,72.1,6.3,107.8c-1-12.2,3.8-28.5,9-36.4
			c2.5-4.4,6.2-8,10.6-10.5c4.5-2.2,10.4-2.1,14.1,1.3c1.6,1.7,2.7,3.8,3.3,6c0.5,2.3,0.5,4.6-0.2,6.8c-1.4,4.4-3.8,8.5-7.1,11.8
			c-7.7,8.7-18.3,18.3-29.5,21.9c5.2,41,13.2,81.8,22.5,122.2c-2.2-15.1,1.7-34.7,6.7-44.9c2.8-5.8,6.5-11.4,11.9-14.8
			c5.4-3.4,12.9-4.2,18.1-0.4c4.8,3.5,6.5,10,5.8,15.9c-1.2,5.8-3.7,11.3-7.4,15.9c-8.4,12.1-20.6,25.7-34.2,31.8
			c6,25.8,12.4,51.5,19,77.1C1161.1,806.9,1159.1,807.6,1158.8,806.3z M1133,619c-4.8,9.7-8.4,29.1-5.4,42.7
			c12.1-5.3,22.8-17.4,30.2-28c3.2-4.1,5.4-8.9,6.5-14c0.8-5.1-0.8-10.9-5-14c-4.5-3.3-11.2-2.7-15.9,0.3
			C1138.9,609.3,1135.3,613.8,1133,619z M1132.3,388.7c-5.8,5.6-9.8,12.8-11.6,20.7c7.3-0.2,15.3-4.1,21.3-8
			c2.5-1.4,4.6-3.4,6.2-5.8c0.8-1.2,1.2-2.6,1.3-4c0.1-1.4-0.2-2.9-0.9-4.1c-0.9-1.3-2.2-2.2-3.6-2.8c-1.5-0.6-3.1-0.7-4.6-0.3
			C1137.3,385,1134.5,386.5,1132.3,388.7z M1122.5,512.2c-4.9,7.7-9.6,23.4-8.3,35c10.5-3.3,20.5-12.3,27.7-20.5
			c3-3.1,5.3-6.9,6.7-11c0.6-2.1,0.7-4.3,0.2-6.4c-0.5-2.1-1.6-4.1-3.1-5.6c-1.8-1.5-4.1-2.4-6.4-2.6c-2.4-0.2-4.7,0.3-6.8,1.4
			C1128.3,504.7,1124.8,508,1122.5,512.2L1122.5,512.2z M1096.3,442.6c2.2,1.9,4.4,3.7,6.7,5.4c1.4,1,5.5,5,7.1,4.9
			c2.1-0.2,1-5.1,1-7.2c0-3.4-0.2-6.7-0.2-10.1c-0.2-6-0.3-12.3-3.1-17.7s-8.8-9.6-14.7-8.2c-2.2,0.6-4.1,1.9-5.7,3.6
			c-1.5,1.7-2.5,3.8-2.9,6c-0.7,4.5,0.2,9.2,2.7,13.1C1089.7,436.2,1092.8,439.6,1096.3,442.6L1096.3,442.6z M1127.3,705.2
			c-3.6-8.3-7.4-16.9-14.3-22.8c-6.8-5.9-17.6-8.3-24.9-3.1c-2.7,2.1-4.7,5-5.8,8.2c-1.2,3.2-1.4,6.7-0.7,10
			c1.6,6.7,5.5,12.6,11.1,16.6c5.6,3.9,11.8,7,18.3,9c4.1,1.4,8.2,2.6,12.4,3.7c2.5,0.6,10.4,3.8,12.6,2.8c2.9-1.5-1.4-7.7-2.7-10.5
			C1131.3,714.4,1129.3,709.7,1127.3,705.2L1127.3,705.2z M1098.8,492c1.6,0.6,6.6,3.4,8.2,2.8c2-0.8-0.4-5.2-1-7.2l-3-9.6
			c-1.8-5.8-3.7-11.8-7.8-16.2c-4.1-4.4-11.1-6.8-16.3-3.8c-1.9,1.2-3.5,2.9-4.5,5c-1,2.1-1.4,4.3-1.2,6.6c0.6,4.6,2.7,8.8,6.2,11.8
			c3.4,3,7.3,5.5,11.5,7.3C1093.5,489.8,1096.1,490.9,1098.8,492L1098.8,492z"/>
		
			<linearGradient id="SVGID_00000093859480626116307040000001604402483150162099_" gradientUnits="userSpaceOnUse" x1="857.7352" y1="-126.5122" x2="827.3043" y2="296.0428" gradientTransform="matrix(1 0 0 -1 0 821.8353)">
			<stop  offset="0" style="stop-color:#424242"/>
			<stop  offset="3.000000e-02" style="stop-color:#464646"/>
			<stop  offset="0.99" style="stop-color:#BCBCBC"/>
		</linearGradient>
		<path style="fill:url(#SVGID_00000093859480626116307040000001604402483150162099_);" d="M876.1,943.9
			c-10.8-35.7-20.1-71.8-28.1-108.3c-2.6-11.9-5-23.9-7.3-36c-0.1,0.2-0.3,0.4-0.5,0.5c-1.9,1-8.9-1.9-11.1-2.4
			c-3.7-1-7.3-2-10.9-3.3c-5.7-1.8-11.2-4.4-16.1-7.9c-4.9-3.5-8.3-8.7-9.7-14.6c-0.6-2.9-0.4-6,0.6-8.8c1-2.8,2.8-5.3,5.1-7.2
			c6.5-4.6,15.9-2.5,21.9,2.7c6,5.2,9.4,12.8,12.5,20c1.8,4.1,3.5,8.1,5.3,12.2c0.4,1,1.3,2.5,2,4c-3.3-18.1-6-36.3-8.2-54.5
			c-0.1,0.1-0.2,0.2-0.4,0.2c-1.8,0.7-7.8-2.5-9.6-3.3c-3.2-1.2-6.3-2.5-9.4-4c-4.9-2.1-9.4-5-13.4-8.5c-4-3.6-6.6-8.5-7.2-13.9
			c-0.3-2.7,0.2-5.4,1.4-7.8c1.2-2.4,3-4.4,5.3-5.9c6.2-3.5,14.3-0.7,19.2,4.5c4.8,5.2,7,12.2,9.2,19l3.5,11.3
			c0.2,0.6,0.5,1.4,0.9,2.3c-1.9-16.4-3.2-32.9-4.1-49.4c-2,0.1-6.9-2.5-8.5-3.1c-3-1.1-5.9-2.3-8.8-3.7c-4.6-2-8.9-4.7-12.6-8
			c-3.8-3.4-6.2-8-6.8-13c-0.2-2.5,0.2-5,1.3-7.3c1.1-2.3,2.8-4.2,4.9-5.5c5.7-3.3,13.4-0.6,18,4.3c4.6,4.9,6.6,11.5,8.6,17.8
			l3.3,10.6c0,0.3,0.2,0.6,0.3,0.9c-0.4-10.8-0.7-21.5-0.6-32.3c0.1-30,2.4-60,6.8-89.7c0.5-3.3,1-6.6,1.6-9.9
			c-1.5-1-2.9-2.1-4.2-3.3c-1.7-1.2-3.3-2.5-4.9-3.8c-2.6-2.1-4.8-4.6-6.6-7.4c-1.8-2.9-2.5-6.3-1.9-9.6c0.3-1.6,1-3.2,2.2-4.4
			c1.1-1.2,2.5-2.1,4.1-2.6c4.3-1,8.7,2,10.6,6c1.7,4.1,2.5,8.4,2.2,12.8c0,1.1,0,2.1,0,3.1c1.9-10.5,4-21.1,6.7-31.5
			c-1.1-0.7-2.2-1.6-3.2-2.5c-1.3-1-2.5-1.9-3.7-3c-2-1.6-3.6-3.5-5-5.6c-1.4-2.1-1.9-4.7-1.5-7.2c0.2-1.2,0.8-2.4,1.6-3.3
			c0.8-0.9,1.9-1.6,3.1-2c3.2-0.8,6.6,1.5,8.1,4.5c1.3,3.1,1.8,6.4,1.7,9.8l0.1,4.7c1.6-5.8,3.4-11.6,5.3-17.3
			c-0.5-1.5-0.8-3-0.9-4.5c-0.3-1.6-0.5-3.1-0.6-4.7c-0.3-2.5-0.2-5,0.3-7.5c0.5-2.5,1.8-4.7,3.8-6.2c1-0.7,2.2-1.2,3.5-1.3
			c1.3-0.1,2.5,0.2,3.6,0.7c2.9,1.7,3.7,5.7,2.7,8.8c-1.2,3.1-3.1,5.9-5.5,8.2l-3.8,4.1c-0.2,0.2-0.4,0.5-0.7,0.8
			c-1.5,6.1-3,12.1-4.5,18.1c1.7-3.7,4-7,6.8-9.8c1.7-1.7,3.8-2.8,6.1-3.4c1.2-0.3,2.4-0.2,3.5,0.3c1.1,0.4,2.1,1.2,2.7,2.1
			c0.5,1,0.7,2,0.7,3.1c-0.1,1.1-0.4,2.1-1,3.1c-1.2,1.8-2.8,3.3-4.7,4.4c-4.6,3.2-10,5.3-15.6,6c-5.3,20.8-9.4,42-12.3,63.3
			c-0.8,6.7-1.5,13.3-2,20c2.8-10.1,8.1-19.3,15.6-26.6c3.1-3,6.9-5.1,11.1-6.1c2-0.6,4.2-0.5,6.1,0.2c2,0.7,3.7,2,4.9,3.7
			c1.2,1.7,1.8,3.8,1.8,5.9c0,2.1-0.7,4.1-2,5.8c-2.2,3.3-5.1,6-8.6,8c-8.3,5.3-19.2,10.7-29.1,11c-0.7,7.8-1.2,15.6-1.5,23.4
			c1.2-5,3.2-9.9,5.7-14.3c2.1-3.7,5.2-6.8,9-8.9c1.9-1,4-1.5,6.2-1.3c2.1,0.2,4.2,1,5.9,2.3c1.4,1.4,2.3,3.2,2.8,5.1
			c0.5,1.9,0.4,3.9-0.2,5.8c-1.2,3.8-3.3,7.2-6,10c-6.2,7.1-14.8,14.9-23.9,18.2c-0.5,36.1,1.7,72.1,6.4,107.9
			c-1.1-12.3,3.8-28.5,9-36.4c2.5-4.4,6.1-8,10.6-10.5c4.5-2.2,10.4-2.1,14.1,1.3c1.6,1.7,2.7,3.8,3.3,6c0.5,2.3,0.5,4.6-0.2,6.8
			c-1.4,4.4-3.8,8.4-7,11.7c-7.7,8.7-18.3,18.3-29.5,21.9c5.2,41,13.2,81.8,22.5,122.2c-2.1-15.1,1.7-34.7,6.8-44.9
			c2.8-5.8,6.5-11.4,11.9-14.8c5.4-3.4,12.9-4.2,18.1-0.4c4.8,3.5,6.5,10,5.7,15.9c-1.2,5.8-3.7,11.3-7.4,15.9
			c-8.5,12.1-20.6,25.7-34.2,31.8c6,25.8,12.4,51.5,19.1,77.1C878.4,944.5,876.5,945.2,876.1,943.9z M850.4,756.6
			c-4.8,9.7-8.4,29.1-5.4,42.7c12-5.3,22.8-17.3,30.2-28c3.2-4.1,5.4-8.9,6.5-14c0.8-5.1-0.8-10.9-5-14c-4.5-3.3-11.1-2.7-15.9,0.3
			C856.2,746.9,852.6,751.4,850.4,756.6z M849.6,526.3c-5.8,5.6-9.8,12.8-11.6,20.7c7.3-0.2,15.3-4.1,21.3-8
			c2.5-1.4,4.6-3.4,6.2-5.8c0.8-1.2,1.2-2.6,1.3-4c0.1-1.4-0.2-2.9-0.9-4.1c-0.9-1.3-2.2-2.2-3.6-2.8c-1.5-0.6-3-0.7-4.6-0.3
			C854.6,522.6,851.8,524.1,849.6,526.3z M839.9,649.8c-4.9,7.7-9.6,23.4-8.4,34.9c10.5-3.3,20.5-12.3,27.7-20.5
			c3-3.1,5.3-6.9,6.6-11c0.6-2.1,0.7-4.3,0.2-6.4c-0.5-2.1-1.5-4.1-3-5.6c-1.9-1.5-4.1-2.4-6.4-2.6c-2.4-0.2-4.7,0.3-6.8,1.4
			C845.6,642.3,842.2,645.7,839.9,649.8z M813.7,580.1c2.2,1.9,4.4,3.7,6.7,5.4c1.4,1,5.5,5,7.1,4.9c2.2-0.2,1.1-5.1,1-7.2
			l-0.2-10.1c-0.2-6-0.4-12.3-3.1-17.7c-2.7-5.4-8.8-9.6-14.7-8.2c-2.2,0.6-4.1,1.9-5.7,3.6c-1.5,1.7-2.6,3.8-3,6
			c-0.7,4.5,0.2,9.2,2.7,13.1C807,573.8,810.1,577.2,813.7,580.1z M844.7,842.8c-3.6-8.3-7.4-16.9-14.3-22.8
			c-6.8-5.9-17.6-8.3-24.9-3.1c-2.7,2.1-4.7,5-5.9,8.2c-1.2,3.2-1.4,6.7-0.7,10c1.6,6.7,5.5,12.6,11.1,16.6c5.6,3.9,11.8,7,18.3,9
			c4.1,1.4,8.2,2.7,12.4,3.7c2.5,0.6,10.4,3.8,12.6,2.8c2.9-1.5-1.4-7.7-2.7-10.5C848.7,852,846.7,847.4,844.7,842.8L844.7,842.8z
			 M816.2,629.6c1.6,0.6,6.6,3.4,8.2,2.8c2-0.8-0.4-5.2-1-7.2c-1-3.2-2-6.4-3-9.6c-1.8-5.8-3.7-11.8-7.8-16.2
			c-4.1-4.4-11.1-6.8-16.3-3.8c-1.9,1.2-3.5,2.9-4.5,5c-1,2.1-1.4,4.3-1.2,6.6c0.5,4.6,2.7,8.8,6.2,11.8c3.4,3,7.3,5.5,11.5,7.3
			C810.8,627.4,813.5,628.5,816.2,629.6L816.2,629.6z"/>
		
			<linearGradient id="SVGID_00000137834559084084807420000016941814456562985400_" gradientUnits="userSpaceOnUse" x1="-22.239" y1="33.8343" x2="99.5264" y2="437.6583" gradientTransform="matrix(1 0 0 -1 0 821.8353)">
			<stop  offset="0" style="stop-color:#424242"/>
			<stop  offset="0.99" style="stop-color:#5F5F5F"/>
		</linearGradient>
		<path style="fill:url(#SVGID_00000137834559084084807420000016941814456562985400_);" d="M-42.7,784.3c12-23.5,24-47.2,35.4-71.1
			c-12-9-20.8-24.9-26.5-38.5c-2.6-5.4-3.8-11.3-3.7-17.3c0.4-5.9,3.6-11.9,9-14.3c5.9-2.6,13-0.2,17.6,4.3c4.5,4.5,6.9,10.8,8.4,17
			c2.7,11.1,2.2,31-3.2,45.3c17.9-37.5,34.5-75.5,48.6-114.4c-10.1-5.9-18.4-17.6-24-27.8c-2.4-3.9-3.9-8.4-4.4-13
			c-0.2-2.3,0.3-4.6,1.3-6.7c1-2.1,2.6-3.9,4.5-5.2c4.3-2.5,10.1-1.3,14.1,1.9c3.8,3.4,6.5,7.7,8,12.6c3.2,8.9,4.5,25.8,0.8,37.5
			C55.7,561,65.6,526.3,73,491c-8.1-5.2-14.8-14.7-19.4-23c-2.1-3.4-3.3-7.2-3.7-11.1c-0.2-2,0.2-4,1.1-5.8c0.9-1.8,2.2-3.3,3.9-4.4
			c1.9-0.9,4.1-1.3,6.2-1c2.1,0.3,4.1,1.2,5.8,2.6c3.2,2.9,5.6,6.6,6.8,10.7c1.6,5,2.5,10.1,2.5,15.3c1.4-7.7,2.6-15.4,3.7-23.2
			c-9.6-2.5-19.2-10.1-26-17.1c-3-2.7-5.3-6-6.7-9.8c-0.7-1.8-0.9-3.9-0.6-5.8c0.3-1.9,1.2-3.8,2.5-5.3c1.6-1.4,3.6-2.4,5.7-2.7
			c2.1-0.3,4.3,0,6.2,0.9c3.9,1.9,7.2,4.8,9.6,8.4c5.7,8.8,8.9,18.9,9.4,29.4c0.9-6.6,1.7-13.2,2.3-19.9c1.9-21.4,2.5-43,1.9-64.5
			c-5.2-1.5-10.2-5.5-13.9-9.3c-1.6-1.5-2.8-3.3-3.6-5.3c-0.5-1.1-0.6-2.2-0.4-3.4c0.2-1.1,0.8-2.2,1.7-2.9c0.8-0.8,1.9-1.3,3.1-1.4
			c1.1-0.1,2.3,0.1,3.3,0.6c2.1,1,3.9,2.6,5.2,4.6c2.2,3.4,3.7,7.1,4.5,11c-0.1-6.2-0.3-12.4-0.4-18.7c-0.2-0.4-0.3-0.7-0.5-1
			l-2.8-4.8c-1.9-2.8-3.1-5.9-3.6-9.2c-0.2-3.3,1.4-7,4.6-8.1c1.2-0.3,2.5-0.3,3.7,0.1c1.2,0.4,2.3,1.1,3.1,2
			c1.6,1.9,2.5,4.4,2.5,6.9c-0.1,2.5-0.5,5-1.4,7.4c-0.5,1.5-1,3-1.6,4.5c-0.4,1.5-1.1,2.9-1.9,4.2c0.7,6,1.2,12,1.4,18l1.1-4.6
			c0.6-3.3,1.9-6.4,3.8-9.1c2.1-2.6,5.9-4.1,8.9-2.6c1.1,0.6,2,1.5,2.7,2.6c0.6,1.1,0.9,2.3,0.9,3.6c-0.2,2.5-1.2,4.9-3,6.7
			c-1.8,1.8-3.8,3.2-6.1,4.4c-1.4,0.8-2.8,1.5-4.3,2.1c-1.2,0.7-2.4,1.2-3.7,1.7c0.3,10.7,0.1,21.5-0.3,32.2c0.2-1,0.5-2,0.8-3
			c1.1-4.3,2.2-8.7,5-12.1c2.8-3.4,7.8-5.4,11.7-3.5c1.4,0.8,2.6,2,3.4,3.5s1.2,3.1,1.1,4.8c-0.2,3.3-1.6,6.5-4,8.9
			c-2.3,2.3-5.1,4.3-8,5.8c-1.9,1-3.8,1.9-5.7,2.8c-1.6,0.9-3.2,1.6-4.8,2.3c-0.2,3.4-0.4,6.7-0.6,10c-2.1,29.9-6.5,59.7-13,89
			c-2.3,10.5-4.9,21-7.7,31.4l0.5-0.8l5.5-9.6c3.3-5.8,6.8-11.7,12.3-15.5c5.5-3.8,13.5-4.7,18.4-0.2c1.8,1.8,3,4,3.6,6.5
			c0.6,2.4,0.5,5-0.3,7.4c-1.7,4.8-5.1,8.7-9.5,11.2c-4.4,2.4-9.1,4.1-14.1,5c-3.1,0.7-6.2,1.3-9.4,1.7c-1.7,0.2-7,1.7-9,1.2
			c-4.4,15.9-9.3,31.7-14.8,47.3c0.5-0.8,1-1.5,1.4-2.1l6-10.4c3.5-6.2,7.2-12.5,13.1-16.5c5.8-4,14.4-5,19.7-0.2
			c1.9,1.9,3.2,4.3,3.9,6.9c0.6,2.6,0.5,5.3-0.4,7.9c-1.8,5.1-5.4,9.4-10.1,12c-4.7,2.6-9.7,4.4-15,5.3c-3.3,0.7-6.6,1.3-10,1.9
			c-1.9,0.3-8.4,2.1-10.1,1.1c-0.1-0.1-0.2-0.2-0.3-0.3C40.8,613.8,34.1,631,27,647.9c1-1.3,2.2-2.6,2.9-3.5l7.9-10.8
			c4.7-6.4,9.6-13,16.6-16.8c7-3.8,16.7-3.8,22,2.2c1.9,2.3,3.1,5.2,3.5,8.2c0.4,3-0.1,6-1.4,8.8c-2.6,5.5-7.2,9.8-12.7,12.1
			c-5.5,2.3-11.4,3.7-17.4,4.2c-3.8,0.4-7.7,0.7-11.4,0.8c-2.2,0-9.6,1.3-11.4,0c-0.2-0.2-0.3-0.4-0.4-0.6
			c-4.8,11.3-9.8,22.4-14.9,33.5c-15.7,33.8-32.7,66.9-51.1,99.5C-41.5,786.6-43.3,785.5-42.7,784.3z M17.8,593.3
			c-4-4-10.3-6-15.5-3.8c-4.8,2.1-7.5,7.3-7.9,12.5c-0.1,5.2,1,10.4,3.2,15.1c5,12,12.8,26.1,23.4,34c5.9-12.6,6.6-32.3,4.1-42.8
			C24.1,602.7,21.5,597.5,17.8,593.3z M69.3,377.6c-1.3-0.7-2.9-1-4.4-0.9s-2.9,0.8-4.1,1.9c-1.1,1-1.9,2.4-2.2,3.9
			c-0.3,1.5-0.1,3,0.5,4.4c1,2.7,2.7,5.1,4.8,7.1c5,5.1,12,10.7,19,12.5c0-8.1-2.4-16-6.8-22.8C74.5,381,72.1,378.9,69.3,377.6z
			 M51.3,494.5c-3.7-3-9.1-4.1-13.2-1.7c-1.8,1.2-3.3,2.9-4.2,4.8c-1,2-1.4,4.1-1.2,6.3c0.4,4.3,1.8,8.5,4.1,12.2
			c5.2,9.6,13,20.5,22.5,26.1c3.8-11,2.5-27.4-0.5-35.9C57.4,501.7,54.8,497.7,51.3,494.5L51.3,494.5z M110.6,436.1
			c3.3-3.2,5.2-7.6,5.5-12.2c0.1-2.3-0.4-4.5-1.5-6.5c-1.1-2-2.8-3.6-4.8-4.8c-5.4-2.6-12.2,0.1-16.1,4.8
			c-3.9,4.7-5.4,10.7-6.9,16.6c-0.8,3.3-1.6,6.5-2.5,9.8c-0.5,2-2.7,6.6-0.6,7.2c1.6,0.5,6.5-2.5,8-3.2c2.6-1.2,5.2-2.4,7.8-3.8
			C103.6,442,107.4,439.4,110.6,436.1L110.6,436.1z M3,705.8c-1.9,2.5-7.4,7.7-4.9,9.7c1.9,1.6,10.4,0.1,12.9,0
			c4.3-0.1,8.6-0.4,12.9-0.9c6.8-0.5,13.5-2.1,19.8-4.7c6.3-2.7,11.5-7.6,14.5-13.8c1.4-3.1,1.9-6.5,1.5-9.9
			c-0.4-3.4-1.8-6.6-3.9-9.2c-6-6.7-17-6.7-25-2.5c-8,4.3-13.6,11.8-18.9,19.2C8.9,697.7,5.9,701.7,3,705.8z M94.8,490.3
			c4.5-0.8,8.8-2.4,12.8-4.6c4-2.2,7.1-5.9,8.6-10.2c0.7-2.2,0.8-4.5,0.3-6.7c-0.5-2.2-1.7-4.3-3.3-5.9c-4.5-4-11.8-3.2-16.8,0.2
			c-5,3.4-8.1,8.8-11.1,14.1l-5,8.8c-1,1.8-4.4,5.6-2.5,6.8c1.4,0.9,6.9-0.7,8.6-0.9C89.1,491.4,92,490.9,94.8,490.3z"/>
		
			<linearGradient id="SVGID_00000170969418365265394920000015258323999227748514_" gradientUnits="userSpaceOnUse" x1="289.2763" y1="-87.0076" x2="411.0423" y2="316.8144" gradientTransform="matrix(1 0 0 -1 0 821.8353)">
			<stop  offset="0" style="stop-color:#424242"/>
			<stop  offset="0.21" style="stop-color:#626262"/>
			<stop  offset="0.99" style="stop-color:#D8D8D8"/>
		</linearGradient>
		<path style="fill:url(#SVGID_00000170969418365265394920000015258323999227748514_);" d="M268.8,905.2c12-23.5,24-47.2,35.4-71.1
			c-12-8.9-20.8-24.9-26.5-38.5c-2.5-5.4-3.8-11.3-3.7-17.3c0.4-5.9,3.6-11.9,9-14.3c5.9-2.6,13-0.2,17.6,4.3
			c4.6,4.5,6.9,10.8,8.4,17.1c2.7,11.1,2.2,31-3.2,45.3c17.9-37.5,34.6-75.5,48.6-114.4c-10.2-5.9-18.4-17.6-24-27.8
			c-2.4-4-3.9-8.4-4.3-13.1c-0.2-2.3,0.3-4.6,1.3-6.7c1-2.1,2.6-3.9,4.5-5.2c4.3-2.5,10.1-1.3,14.1,1.9c3.8,3.4,6.5,7.7,8,12.6
			c3.2,8.9,4.5,25.8,0.8,37.5c12.4-33.8,22.3-68.5,29.7-103.8c-8.1-5.2-14.8-14.7-19.4-23c-2.1-3.4-3.3-7.2-3.7-11.1
			c-0.1-2,0.2-3.9,1.1-5.7c0.9-1.8,2.2-3.3,3.8-4.4c1.9-0.9,4.1-1.3,6.2-1c2.1,0.3,4.1,1.2,5.8,2.6c3.2,2.9,5.6,6.6,6.8,10.7
			c1.6,5,2.5,10.1,2.6,15.3c1.4-7.7,2.6-15.4,3.6-23.2c-9.6-2.5-19.2-10.1-26-17.1c-2.9-2.7-5.2-6-6.6-9.7c-0.7-1.9-0.9-3.9-0.5-5.8
			c0.3-1.9,1.2-3.8,2.5-5.3c1.6-1.4,3.6-2.4,5.7-2.7c2.1-0.3,4.3,0,6.2,0.9c3.9,1.9,7.2,4.8,9.6,8.4c5.7,8.8,8.9,18.9,9.4,29.4
			c0.9-6.6,1.7-13.2,2.3-19.9c1.9-21.4,2.5-43,1.8-64.5c-5.3-1.9-10.1-5.1-13.9-9.3c-1.6-1.5-2.9-3.3-3.6-5.3
			c-0.5-1.1-0.6-2.2-0.4-3.4c0.2-1.1,0.8-2.2,1.7-2.9c0.8-0.8,1.9-1.3,3.1-1.4c1.1-0.1,2.3,0.1,3.3,0.6c2.1,1,3.9,2.6,5.2,4.6
			c2.2,3.4,3.7,7.1,4.5,11l-0.4-18.7c-0.2-0.4-0.3-0.7-0.5-1l-2.7-4.9c-1.9-2.8-3.1-5.9-3.6-9.2c-0.2-3.3,1.4-7,4.6-8.1
			c1.2-0.3,2.5-0.3,3.7,0.1c1.2,0.4,2.3,1.1,3.1,2c1.6,1.9,2.5,4.4,2.5,6.9c-0.1,2.5-0.5,5-1.4,7.4c-0.5,1.5-1,3-1.6,4.5
			c-0.4,1.5-1,2.9-1.8,4.2c0.7,6,1.1,12,1.4,18c0.4-1.5,0.7-3,1.1-4.6c0.6-3.3,1.9-6.4,3.8-9.1c2.1-2.6,5.9-4.1,8.9-2.6
			c1.1,0.6,2,1.5,2.6,2.6c0.6,1.1,0.9,2.3,0.9,3.6c-0.2,2.5-1.2,4.9-3,6.7c-1.8,1.8-3.8,3.2-6.1,4.4c-1.4,0.8-2.8,1.5-4.3,2.1
			c-1.2,0.7-2.4,1.2-3.7,1.7c0.3,10.7,0.1,21.5-0.3,32.2l0.7-3c1.1-4.3,2.2-8.7,5-12.1c2.8-3.4,7.8-5.4,11.7-3.5
			c1.5,0.8,2.6,2,3.5,3.4c0.8,1.4,1.2,3.1,1.1,4.7c-0.2,3.3-1.6,6.5-4,8.9c-2.4,2.3-5.1,4.3-8,5.8c-1.9,1-3.7,1.9-5.6,2.8
			c-1.6,0.9-3.2,1.6-4.8,2.3c-0.2,3.4-0.4,6.7-0.7,10c-2.1,29.9-6.5,59.7-13,89c-2.3,10.5-4.9,21-7.7,31.4c0.2-0.3,0.4-0.5,0.5-0.8
			l5.6-9.6c3.3-5.8,6.8-11.7,12.2-15.5c5.5-3.8,13.5-4.7,18.5-0.2c1.8,1.8,3,4,3.6,6.4c0.6,2.4,0.5,5-0.3,7.4
			c-1.7,4.8-5,8.8-9.5,11.2c-4.4,2.4-9.1,4.1-14.1,5c-3.1,0.7-6.2,1.3-9.4,1.7c-1.7,0.2-7,1.7-9,1.1c-4.4,15.9-9.3,31.7-14.8,47.3
			c0.5-0.8,1-1.5,1.3-2.1l5.9-10.3c3.5-6.2,7.3-12.5,13.1-16.5c5.8-4,14.4-5,19.7-0.2c1.9,1.9,3.2,4.3,3.9,6.9
			c0.6,2.6,0.5,5.3-0.3,7.9c-1.8,5.1-5.4,9.3-10.1,12c-4.7,2.6-9.8,4.4-15,5.4c-3.3,0.7-6.6,1.3-10,1.8c-1.9,0.3-8.4,2.1-10.1,1.1
			c-0.1-0.1-0.2-0.2-0.3-0.3c-6.1,17.3-12.8,34.4-19.9,51.4c1-1.3,2.2-2.6,2.9-3.4l7.9-10.8c4.7-6.4,9.6-13,16.6-16.8
			c7-3.8,16.7-3.8,22,2.2c1.9,2.3,3.1,5.2,3.5,8.1c0.4,3-0.1,6-1.3,8.8c-2.6,5.5-7.2,9.8-12.7,12.1c-5.5,2.3-11.4,3.7-17.4,4.2
			c-3.8,0.4-7.6,0.7-11.4,0.8c-2.2,0-9.6,1.3-11.4,0c-0.2-0.2-0.3-0.4-0.4-0.6c-4.8,11.3-9.8,22.4-14.9,33.5
			c-15.7,33.8-32.8,67.1-51.1,99.7C269.9,907.4,268.2,906.3,268.8,905.2z M329.2,714.1c-4-4-10.3-6-15.4-3.8
			c-4.8,2.1-7.5,7.3-7.9,12.5c-0.1,5.2,1,10.4,3.2,15.1c5,12.1,12.8,26.1,23.4,34c5.9-12.6,6.6-32.3,4.1-42.8
			C335.6,723.5,333,718.3,329.2,714.1z M380.8,498.4c-1.3-0.7-2.9-1-4.4-0.8c-1.5,0.2-2.9,0.8-4,1.9c-1.1,1-1.9,2.4-2.2,3.9
			c-0.3,1.5-0.1,3,0.5,4.4c1,2.7,2.7,5.1,4.8,7c5,5.1,12,10.7,19,12.5c0-8.1-2.4-16-6.8-22.8C386,501.9,383.6,499.8,380.8,498.4z
			 M362.7,615.3c-1.6-1.6-3.7-2.7-6-3c-2.3-0.4-4.6,0-6.7,1.1c-2.1,1-3.7,2.7-4.8,4.8c-1.1,2-1.4,4.4-1.1,6.7
			c0.4,4.3,1.8,8.5,4.1,12.2c5.2,9.6,13,20.5,22.5,26.1c3.8-11,2.6-27.4-0.5-35.9C368.8,622.6,366.2,618.5,362.7,615.3L362.7,615.3z
			 M422.1,557c3.3-3.3,5.2-7.6,5.5-12.2c0.1-2.3-0.4-4.6-1.6-6.5c-1.1-2-2.8-3.6-4.8-4.7c-5.4-2.6-12.2,0.1-16.1,4.8
			c-3.8,4.7-5.4,10.7-6.9,16.6c-0.8,3.3-1.6,6.5-2.5,9.8c-0.5,2-2.7,6.6-0.6,7.2c1.6,0.5,6.5-2.5,8-3.2c2.6-1.2,5.2-2.5,7.7-3.8
			C415.1,562.9,418.8,560.2,422.1,557L422.1,557z M314.4,826.6c-1.8,2.5-7.4,7.7-4.9,9.7c1.9,1.6,10.4,0.1,12.9,0
			c4.3-0.1,8.7-0.4,12.9-0.9c6.8-0.5,13.5-2.1,19.8-4.7c6.3-2.7,11.5-7.6,14.5-13.8c1.4-3.1,2-6.5,1.5-9.9c-0.4-3.4-1.8-6.6-3.9-9.2
			c-6-6.8-17-6.7-25-2.4c-8,4.3-13.6,11.8-18.9,19.2C320.4,818.5,317.3,822.5,314.4,826.6z M406.3,611.1c4.5-0.8,8.8-2.4,12.8-4.6
			c4-2.2,7.1-5.9,8.6-10.2c0.7-2.2,0.8-4.5,0.3-6.7c-0.5-2.2-1.7-4.3-3.3-5.9c-4.5-4-11.8-3.2-16.8,0.2c-5,3.4-8.1,8.8-11.2,14.1
			l-5,8.8c-1,1.8-4.4,5.6-2.5,6.8c1.4,0.9,6.9-0.7,8.6-0.9C400.6,612.2,403.4,611.7,406.3,611.1z"/>
		
			<linearGradient id="SVGID_00000022532766943916575980000001903506695252807334_" gradientUnits="userSpaceOnUse" x1="646.4166" y1="-118.2966" x2="684.9346" y2="301.8114" gradientTransform="matrix(1 0 0 -1 0 821.8353)">
			<stop  offset="0" style="stop-color:#424242"/>
			<stop  offset="3.000000e-02" style="stop-color:#464646"/>
			<stop  offset="0.99" style="stop-color:#BCBCBC"/>
		</linearGradient>
		<path style="fill:url(#SVGID_00000022532766943916575980000001903506695252807334_);" d="M626.1,939.4c7-25.5,13.9-51,20.3-76.7
			c-13.5-6.3-25.4-20.2-33.7-32.4c-3.6-4.7-6-10.2-7.1-16.1c-0.8-5.9,1.1-12.4,5.9-15.8c5.2-3.7,12.7-2.8,18.1,0.7
			c5.4,3.5,8.9,9.2,11.7,15c4.9,10.3,8.4,29.9,6,45c10-40.3,18.6-80.9,24.5-121.9c-11.1-3.7-21.6-13.4-29.1-22.4
			c-3.2-3.4-5.5-7.5-6.9-11.9c-0.6-2.2-0.7-4.6-0.1-6.8c0.6-2.3,1.7-4.3,3.4-6c3.8-3.3,9.6-3.3,14.1-1c4.4,2.5,8,6.2,10.4,10.7
			c4.9,8.1,9.6,24.4,8.4,36.6c5.3-35.7,8-71.6,8.1-107.7c-9-3.5-17.5-11.4-23.6-18.6c-2.7-2.9-4.7-6.4-5.9-10.2
			c-0.5-1.9-0.6-3.9-0.1-5.8c0.5-1.9,1.5-3.7,2.9-5.1c1.7-1.3,3.8-2.1,5.9-2.2c2.1-0.2,4.3,0.3,6.2,1.4c3.7,2.2,6.8,5.3,8.8,9.1
			c2.6,4.5,4.4,9.4,5.6,14.4c-0.2-7.8-0.6-15.6-1.1-23.4c-9.9-0.5-20.7-6.1-28.9-11.5c-3.4-2-6.3-4.8-8.4-8.1
			c-1.2-1.7-1.8-3.7-1.8-5.8c0-2.1,0.7-4.1,1.9-5.8s2.9-3,4.9-3.6c2-0.7,4.1-0.7,6.1-0.1c4.2,1,8,3.2,11,6.3
			c7.3,7.4,12.6,16.7,15.2,26.8c-0.5-6.7-1-13.3-1.7-20c-2.5-21.4-6.3-42.6-11.3-63.6c-5.4-0.4-11.1-3.4-15.5-6.3
			c-1.9-1.1-3.5-2.7-4.6-4.5c-0.6-0.9-0.9-2-0.9-3.1c0-1.1,0.2-2.2,0.8-3.1c0.7-1,1.7-1.7,2.8-2.1c1.1-0.4,2.3-0.5,3.5-0.2
			c2.3,0.6,4.4,1.8,6.1,3.5c2.8,2.9,5.1,6.2,6.7,9.9c-1.4-6.1-2.8-12.1-4.2-18.2c-0.2-0.3-0.5-0.7-0.7-0.9l-3.7-4.2
			c-2.4-2.3-4.2-5.2-5.4-8.3c-0.5-1.6-0.6-3.3,0-4.9c0.5-1.6,1.5-3,2.9-3.9c1.1-0.6,2.4-0.8,3.6-0.7c1.3,0.1,2.4,0.6,3.4,1.3
			c2,1.6,3.4,3.8,3.8,6.3c0.4,2.5,0.5,5,0.1,7.5c-0.2,1.6-0.4,3.1-0.7,4.7c-0.1,1.5-0.4,3.1-0.9,4.5c1.9,5.8,3.5,11.5,5,17.4
			l0.2-4.7c-0.1-3.3,0.6-6.6,1.9-9.7c1.6-3,4.9-5.2,8.1-4.4c1.2,0.4,2.3,1.1,3.1,2c0.8,1,1.4,2.1,1.6,3.4c0.4,2.5-0.2,5.1-1.6,7.2
			c-1.4,2.1-3.1,4-5.1,5.5c-1.2,1-2.5,1.9-3.8,2.9c-1,0.9-2.1,1.7-3.3,2.4c2.5,10.5,4.5,21.1,6.1,31.6c0-1,0.1-2.1,0.1-3.1
			c0.2-4.4,0.4-9,2.5-12.8c2-3.9,6.5-6.9,10.7-5.8c1.6,0.5,3,1.4,4.1,2.7c1.1,1.3,1.8,2.8,2.1,4.4c0.5,3.3-0.3,6.7-2.1,9.5
			c-1.8,2.8-4.1,5.2-6.7,7.2c-1.6,1.4-3.3,2.6-5,3.8c-1.3,1.2-2.8,2.2-4.3,3.2c0.5,3.3,1,6.6,1.4,9.9c4,29.8,5.7,59.8,5.3,89.8
			c-0.1,10.8-0.5,21.5-1.1,32.3c0.1-0.3,0.2-0.6,0.3-0.9c1.2-3.5,2.3-7.1,3.5-10.6c2.1-6.3,4.3-12.8,8.9-17.7
			c4.6-4.8,12.3-7.3,18-3.9c2.1,1.4,3.8,3.3,4.9,5.6c1.1,2.3,1.5,4.8,1.2,7.3c-0.7,5-3.2,9.6-7,12.9c-3.8,3.3-8.1,5.9-12.8,7.8
			c-2.9,1.3-5.8,2.5-8.8,3.6c-1.6,0.6-6.5,3.1-8.6,3c-1.1,16.5-2.7,32.9-4.9,49.3c0.4-0.9,0.7-1.7,0.9-2.3c1.2-3.8,2.5-7.5,3.7-11.3
			c2.2-6.7,4.6-13.7,9.5-18.8c4.9-5.1,13.1-7.8,19.3-4.2c2.2,1.5,4,3.5,5.2,6c1.1,2.4,1.6,5.1,1.3,7.8c-0.7,5.3-3.4,10.2-7.5,13.8
			c-4.1,3.5-8.7,6.3-13.6,8.3c-3.1,1.4-6.2,2.7-9.4,3.8c-1.9,0.7-7.8,3.8-9.6,3.1c-0.1-0.1-0.2-0.1-0.4-0.2
			c-2.5,18.2-5.6,36.3-9.1,54.3c0.7-1.5,1.6-3,2.1-4l5.5-12.1c3.3-7.2,6.8-14.7,12.9-19.8c6.1-5.1,15.6-7.1,22-2.3
			c2.3,1.9,4.1,4.4,5,7.3c1,2.8,1.1,5.9,0.4,8.8c-1.5,5.9-5,11-10,14.4c-5,3.4-10.4,6-16.2,7.7c-3.6,1.2-7.3,2.2-11,3.1
			c-2.2,0.5-9.2,3.3-11.1,2.3c-0.2-0.1-0.4-0.3-0.5-0.5c-2.4,12-5.1,23.9-7.9,35.8c-8.6,36.3-18.5,72.3-29.9,107.9
			C627.7,941.4,625.8,940.7,626.1,939.4z M646.6,740c-4.7-3.1-11.3-3.8-15.9-0.6c-4.2,3-5.9,8.7-5.2,13.9c1,5.1,3.1,10,6.2,14.1
			c7.3,10.8,17.8,23,29.8,28.5c3.3-13.6,0-33-4.6-42.8C654.7,747.9,651.2,743.4,646.6,740L646.6,740z M653.6,518.3
			c-1.5-0.4-3.1-0.3-4.6,0.3c-1.5,0.5-2.7,1.5-3.7,2.7c-0.7,1.3-1,2.7-1,4.1c0,1.4,0.5,2.8,1.2,4.1c1.6,2.4,3.6,4.4,6.1,5.9
			c6,4,13.9,8.1,21.1,8.4c-1.7-7.9-5.6-15.2-11.3-20.9C659.3,520.7,656.6,519.1,653.6,518.3L653.6,518.3z M659.5,636.5
			c-4.2-2.1-9.7-2.1-13.3,1c-1.5,1.5-2.6,3.5-3.2,5.6c-0.5,2.1-0.5,4.3,0.1,6.4c1.3,4.2,3.5,8,6.5,11.2c7,8.3,16.9,17.5,27.3,21
			c1.5-11.5-3-27.4-7.8-35.1C667,642.4,663.6,638.9,659.5,636.5L659.5,636.5z M705.8,567.4c2.5-3.8,3.6-8.5,2.9-13
			c-0.4-2.3-1.3-4.4-2.8-6.1c-1.5-1.7-3.4-3-5.6-3.7c-5.9-1.5-12,2.6-14.8,7.9c-2.8,5.3-3.1,11.5-3.4,17.6
			c-0.1,3.4-0.3,6.7-0.4,10.1c0,2.1-1.3,7,0.9,7.2c1.6,0.2,5.7-3.8,7.2-4.8c2.3-1.7,4.6-3.5,6.8-5.3
			C700.2,574.5,703.3,571.2,705.8,567.4L705.8,567.4z M654.9,853.2c-1.3,2.8-5.7,9-2.8,10.5c2.2,1.2,10.2-1.9,12.7-2.6
			c4.2-1,8.4-2.2,12.5-3.5c6.6-1.9,12.8-4.8,18.4-8.7c5.7-3.9,9.7-9.8,11.4-16.4c0.8-3.3,0.6-6.8-0.5-10.1s-3.1-6.1-5.7-8.3
			c-7.3-5.4-18.1-3.2-25,2.7c-6.9,5.8-10.9,14.3-14.6,22.6L654.9,853.2z M701.3,623.5c4.2-1.7,8.1-4.1,11.5-7.1
			c3.5-3,5.7-7.2,6.4-11.8c0.3-2.3-0.1-4.6-1.1-6.6c-1-2.1-2.5-3.8-4.4-5.1c-5.2-3-12.2-0.8-16.4,3.6c-4.2,4.4-6.2,10.3-8.1,16
			l-3.2,9.6c-0.7,1.9-3.1,6.4-1.1,7.2c1.6,0.6,6.6-2.1,8.2-2.6C695.9,625.8,698.6,624.7,701.3,623.5z"/>
		
			<linearGradient id="SVGID_00000023976959291142752310000003361450589733026199_" gradientUnits="userSpaceOnUse" x1="645.3691" y1="-157.6897" x2="767.1341" y2="246.1113" gradientTransform="matrix(1 0 0 -1 0 821.8353)">
			<stop  offset="0" style="stop-color:#424242"/>
			<stop  offset="0.21" style="stop-color:#626262"/>
			<stop  offset="0.99" style="stop-color:#D8D8D8"/>
		</linearGradient>
		<path style="fill:url(#SVGID_00000023976959291142752310000003361450589733026199_);" d="M625,975.9c12-23.5,24-47.2,35.4-71
			c-12-9-20.8-24.9-26.5-38.5c-2.5-5.4-3.8-11.3-3.7-17.3c0.4-5.9,3.6-11.9,9-14.3c5.9-2.6,13-0.2,17.6,4.3c4.6,4.5,6.9,10.8,8.4,17
			c2.7,11.1,2.2,31-3.2,45.3c17.9-37.5,34.5-75.5,48.6-114.4c-10.2-5.9-18.4-17.6-24-27.8c-2.4-4-3.9-8.4-4.3-13.1
			c-0.2-2.3,0.3-4.6,1.3-6.7c1-2.1,2.6-3.9,4.5-5.2c4.3-2.5,10.1-1.3,14.1,1.9c3.8,3.4,6.5,7.7,8,12.6c3.2,8.9,4.5,25.8,0.8,37.5
			c12.4-33.9,22.4-68.6,29.8-103.8c-8.1-5.2-14.8-14.7-19.4-23c-2.1-3.4-3.3-7.2-3.7-11.1c-0.2-2,0.2-4,1.1-5.7
			c0.9-1.8,2.2-3.3,3.8-4.4c1.9-0.9,4.1-1.3,6.2-1c2.1,0.3,4.1,1.2,5.8,2.6c3.2,2.9,5.6,6.6,6.8,10.7c1.6,5,2.5,10.1,2.6,15.3
			c1.4-7.7,2.6-15.4,3.6-23.2c-9.6-2.5-19.2-10.1-26-17.1c-2.9-2.6-5.2-5.9-6.6-9.6c-0.7-1.9-0.9-3.9-0.5-5.8c0.3-2,1.2-3.8,2.5-5.3
			c1.6-1.4,3.6-2.4,5.7-2.7c2.1-0.3,4.3,0,6.2,0.9c3.9,1.9,7.2,4.8,9.5,8.4c5.7,8.8,8.9,18.9,9.4,29.4c0.9-6.6,1.7-13.2,2.3-19.9
			c1.9-21.4,2.5-43,1.8-64.5c-5.3-1.9-10.1-5.1-13.9-9.3c-1.6-1.5-2.9-3.3-3.6-5.3c-0.4-1-0.5-2.1-0.3-3.2c0.2-1.1,0.7-2.1,1.4-2.9
			c0.9-0.8,2-1.3,3.1-1.5s2.4,0,3.4,0.5c2.1,1,3.9,2.6,5.2,4.6c2.2,3.4,3.7,7.1,4.5,11c-0.1-6.2-0.3-12.4-0.4-18.7
			c-0.2-0.4-0.3-0.7-0.5-1l-2.8-4.9c-1.9-2.8-3.1-5.9-3.6-9.2c-0.2-1.7,0.1-3.3,0.9-4.8c0.8-1.5,2.1-2.6,3.6-3.3
			c1.2-0.3,2.5-0.3,3.7,0.1c1.2,0.4,2.3,1.1,3.1,2c1.6,1.9,2.5,4.4,2.5,6.9c-0.1,2.5-0.5,5-1.4,7.4c-0.5,1.5-1,3-1.6,4.5
			c-0.4,1.5-1,2.9-1.8,4.2c0.7,5.9,1.1,12,1.4,18c0.4-1.5,0.7-3,1.1-4.6c0.6-3.3,1.9-6.4,3.8-9.1c1-1.3,2.4-2.3,4-2.8
			c1.6-0.5,3.3-0.4,4.9,0.2c1.1,0.6,2,1.5,2.6,2.6c0.6,1.1,0.9,2.4,0.9,3.6c-0.2,2.5-1.2,4.9-3,6.7c-1.8,1.8-3.8,3.3-6.1,4.4
			c-1.4,0.8-2.8,1.5-4.3,2.1c-1.2,0.7-2.4,1.2-3.7,1.7c0.3,10.8,0.1,21.5-0.3,32.2l0.7-3c1.1-4.3,2.2-8.7,5-12.1
			c2.8-3.4,7.7-5.4,11.7-3.5c1.5,0.8,2.6,2,3.5,3.4c0.8,1.4,1.2,3.1,1.1,4.8c-0.2,3.3-1.6,6.5-4,8.9c-2.4,2.3-5.1,4.3-8,5.8
			c-1.9,1-3.7,1.9-5.6,2.8c-1.6,0.9-3.2,1.6-4.8,2.3c-0.2,3.3-0.4,6.7-0.7,10c-2.2,29.9-6.5,59.6-13,88.9c-2.3,10.5-4.9,21-7.7,31.4
			c0.2-0.3,0.4-0.5,0.5-0.8c1.9-3.2,3.7-6.4,5.6-9.6c3.3-5.8,6.8-11.7,12.2-15.5c5.5-3.8,13.5-4.7,18.5-0.2c1.8,1.8,3,4,3.6,6.4
			c0.6,2.4,0.5,5-0.3,7.4c-1.7,4.8-5,8.8-9.5,11.2c-4.4,2.4-9.1,4.1-14.1,5c-3.1,0.7-6.2,1.3-9.4,1.7c-1.7,0.2-7,1.7-9,1.2
			c-4.4,15.9-9.3,31.7-14.8,47.3c0.5-0.8,1-1.5,1.3-2.1l5.9-10.3c3.5-6.1,7.3-12.5,13.1-16.5c5.8-4,14.4-5,19.7-0.2
			c1.9,1.9,3.2,4.3,3.9,6.9c0.6,2.6,0.5,5.3-0.3,7.9c-1.8,5.1-5.4,9.3-10.1,12c-4.7,2.6-9.8,4.4-15,5.4c-3.3,0.8-6.6,1.3-10,1.8
			c-1.9,0.3-8.4,2.1-10.1,1.1c-0.1-0.1-0.2-0.2-0.3-0.3c-6.1,17.3-12.8,34.5-19.9,51.4c1-1.3,2.2-2.6,2.9-3.5l7.9-10.8
			c4.7-6.4,9.6-13,16.6-16.8c7-3.8,16.7-3.8,22,2.2c1.9,2.3,3.1,5.2,3.5,8.1s-0.1,6-1.3,8.8c-2.6,5.5-7.2,9.8-12.7,12.1
			c-5.5,2.3-11.4,3.7-17.4,4.2c-3.8,0.4-7.7,0.7-11.4,0.8c-2.2,0-9.7,1.3-11.4,0c-0.2-0.2-0.3-0.4-0.4-0.6
			c-4.8,11.3-9.8,22.4-14.9,33.5c-15.7,33.8-32.8,67-51.1,99.6C626.1,978.2,624.4,977.1,625,975.9z M685.4,784.9
			c-4-4-10.3-6.1-15.4-3.8c-2.3,1.2-4.3,3-5.6,5.2c-1.4,2.2-2.2,4.7-2.2,7.3c-0.1,5.2,1,10.4,3.2,15.1c5,12,12.8,26.1,23.4,34
			c5.9-12.6,6.6-32.3,4.1-42.8C691.7,794.2,689.2,789.1,685.4,784.9z M736.9,569.1c-1.4-0.7-3-0.9-4.5-0.7c-1.5,0.2-3,0.9-4.1,1.9
			c-0.9,1.1-1.6,2.4-1.8,3.8c-0.3,1.4-0.1,2.9,0.4,4.2c1,2.7,2.7,5.1,4.8,7c5,5.1,12,10.7,19,12.5c0-8.1-2.4-16-6.8-22.8
			C742.1,572.6,739.7,570.5,736.9,569.1z M718.8,686.1c-1.6-1.6-3.7-2.7-6-3c-2.3-0.4-4.6,0-6.7,1.1c-2.1,1-3.7,2.7-4.8,4.8
			c-1.1,2-1.4,4.4-1.1,6.7c0.4,4.3,1.8,8.5,4.1,12.2c5.2,9.6,13,20.5,22.5,26.1c3.8-11,2.6-27.4-0.5-35.9
			C725,693.3,722.4,689.3,718.8,686.1L718.8,686.1z M778.2,627.7c3.3-3.3,5.2-7.6,5.5-12.2c0.1-2.3-0.4-4.6-1.5-6.5
			c-1.1-2-2.8-3.6-4.8-4.7c-5.4-2.7-12.2,0.1-16.1,4.8c-3.8,4.7-5.4,10.7-6.9,16.6c-0.8,3.3-1.6,6.6-2.5,9.8
			c-0.5,1.9-2.7,6.6-0.6,7.2c1.6,0.5,6.5-2.5,8-3.2c2.6-1.2,5.2-2.4,7.8-3.8C771.2,633.6,775,630.9,778.2,627.7L778.2,627.7z
			 M670.6,897.3c-1.8,2.5-7.4,7.7-4.9,9.7c1.9,1.6,10.4,0.1,12.9,0c4.3-0.1,8.7-0.4,12.9-0.9c6.8-0.5,13.5-2.1,19.8-4.7
			c6.3-2.7,11.5-7.6,14.5-13.8c1.4-3.1,2-6.5,1.5-9.9s-1.8-6.6-3.9-9.2c-6-6.8-17-6.8-25-2.5c-8,4.3-13.6,11.8-18.9,19.2
			L670.6,897.3z M762.4,681.8c4.5-0.8,8.8-2.4,12.8-4.6c4-2.2,7.1-5.9,8.6-10.2c0.7-2.2,0.8-4.5,0.3-6.7c-0.5-2.2-1.7-4.3-3.3-5.9
			c-4.5-4-11.8-3.2-16.8,0.2c-5,3.4-8.1,8.8-11.2,14.1c-1.7,2.9-3.4,5.9-5,8.8c-1,1.8-4.4,5.6-2.5,6.8c1.4,0.9,6.9-0.7,8.6-0.9
			C756.8,682.9,759.6,682.4,762.4,681.8z"/>
		
			<linearGradient id="SVGID_00000003075000696286640030000009236627310082294424_" gradientUnits="userSpaceOnUse" x1="383.71" y1="-25.2399" x2="505.476" y2="378.5602" gradientTransform="matrix(1 0 0 -1 0 821.8353)">
			<stop  offset="0" style="stop-color:#424242"/>
			<stop  offset="3.000000e-02" style="stop-color:#464646"/>
			<stop  offset="0.99" style="stop-color:#BCBCBC"/>
		</linearGradient>
		<path style="fill:url(#SVGID_00000003075000696286640030000009236627310082294424_);" d="M363.3,843.4c12-23.5,24-47.2,35.4-71.1
			c-12-8.9-20.8-24.9-26.5-38.5c-2.5-5.4-3.8-11.2-3.7-17.2c0.4-5.9,3.6-11.9,9-14.3c5.9-2.6,13-0.2,17.6,4.3
			c4.5,4.5,6.9,10.8,8.4,17c2.7,11.1,2.2,31-3.2,45.3c17.9-37.5,34.5-75.5,48.6-114.4c-10.2-5.9-18.4-17.6-24-27.8
			c-2.4-4-3.9-8.4-4.3-13.1c-0.2-2.3,0.3-4.6,1.3-6.7c1-2.1,2.6-3.9,4.5-5.2c4.3-2.5,10.1-1.3,14.1,1.9c3.8,3.4,6.5,7.7,8,12.5
			c3.2,8.9,4.5,25.8,0.8,37.6c12.4-33.9,22.3-68.6,29.7-103.8c-8.1-5.2-14.8-14.7-19.4-23c-2.1-3.4-3.3-7.2-3.7-11.1
			c-0.3-2.1,0-4.2,1-6.1c1-1.9,2.5-3.4,4.4-4.3s4-1.3,6.1-1c2.1,0.3,4,1.3,5.5,2.8c3.2,2.9,5.6,6.6,6.8,10.7
			c1.6,5,2.4,10.1,2.5,15.3c1.4-7.7,2.6-15.4,3.7-23.2c-9.6-2.5-19.2-10.1-26-17.1c-2.9-2.7-5.2-6-6.6-9.7c-0.9-1.9-1.1-4-0.7-6.1
			c0.4-2.1,1.5-3.9,3-5.3c1.5-1.4,3.5-2.3,5.6-2.6c2.1-0.3,4.2,0.2,6,1.2c3.9,1.9,7.1,4.8,9.5,8.4c5.7,8.8,8.9,18.9,9.4,29.3
			c0.9-6.6,1.7-13.2,2.3-19.9c1.9-21.4,2.5-43,1.9-64.5c-5.2-1.5-10.2-5.6-13.9-9.3c-1.6-1.5-2.8-3.3-3.6-5.3
			c-0.4-1-0.5-2.1-0.3-3.2c0.2-1.1,0.7-2.1,1.4-2.9c0.9-0.8,2-1.3,3.1-1.5c1.2-0.2,2.4,0,3.4,0.5c2.1,1,3.9,2.6,5.2,4.6
			c2.2,3.4,3.7,7.1,4.5,11c-0.1-6.2-0.3-12.4-0.4-18.7c-0.2-0.4-0.3-0.7-0.5-1l-2.8-4.8c-1.9-2.8-3.1-5.9-3.6-9.2
			c-0.2-1.7,0.1-3.3,0.9-4.8c0.8-1.5,2.1-2.6,3.6-3.2c1.2-0.3,2.5-0.3,3.7,0.1c1.2,0.4,2.3,1.1,3.1,2c1.6,1.9,2.5,4.4,2.5,6.9
			c-0.1,2.5-0.5,5-1.4,7.4c-0.5,1.5-1,3-1.6,4.5c-0.4,1.5-1,2.9-1.8,4.2c0.7,6,1.2,12,1.4,18l1.1-4.6c0.6-3.3,1.9-6.4,3.8-9.1
			c2.1-2.6,5.9-4.1,8.9-2.6c1.1,0.6,2,1.5,2.6,2.6c0.6,1.1,0.9,2.3,0.9,3.6c-0.2,2.5-1.2,4.9-3,6.7c-1.8,1.8-3.8,3.2-6.1,4.4
			c-1.4,0.7-2.8,1.5-4.3,2.1c-1.2,0.7-2.4,1.3-3.7,1.7c0.3,10.8,0.1,21.5-0.3,32.2c0.2-1,0.5-2,0.8-3c0.8-4.3,2.5-8.5,5-12.1
			c2.8-3.4,7.7-5.4,11.7-3.5c1.5,0.8,2.6,2,3.5,3.5c0.8,1.4,1.2,3.1,1.1,4.8c-0.2,3.3-1.6,6.5-4,8.8c-2.3,2.3-5.1,4.3-8,5.8
			c-1.9,1-3.7,1.9-5.7,2.8c-1.6,0.9-3.2,1.6-4.8,2.3c-0.2,3.4-0.4,6.7-0.6,10c-2.1,29.9-6.5,59.7-13,89c-2.3,10.5-4.9,21-7.7,31.4
			l0.5-0.8l5.5-9.6c3.3-5.8,6.8-11.7,12.3-15.5c5.5-3.8,13.5-4.7,18.4-0.2c1.8,1.8,3,4,3.6,6.5c0.6,2.4,0.5,5-0.3,7.4
			c-1.7,4.8-5.1,8.8-9.5,11.2c-4.4,2.4-9.1,4.1-14.1,5c-3.1,0.7-6.2,1.2-9.4,1.7c-1.7,0.2-7,1.7-9,1.2c-4.5,15.7-9.5,31.5-14.9,47.1
			c0.5-0.8,1-1.5,1.4-2.1l5.9-10.3c3.5-6.1,7.2-12.5,13.1-16.5c5.8-4,14.4-5,19.7-0.2c1.9,1.9,3.2,4.3,3.9,6.9
			c0.6,2.6,0.5,5.3-0.4,7.9c-1.8,5.1-5.4,9.4-10.1,12c-4.7,2.6-9.7,4.4-15,5.4c-3.3,0.8-6.6,1.3-10,1.9c-1.9,0.3-8.4,2.1-10.1,1.1
			c-0.1-0.1-0.2-0.2-0.3-0.3c-6.1,17.3-12.8,34.5-19.9,51.4c1-1.3,2.2-2.6,2.9-3.5l7.9-10.8c4.7-6.4,9.6-13.1,16.6-16.8
			c7-3.8,16.7-3.8,22,2.2c1.9,2.3,3.1,5.2,3.4,8.1c0.4,3-0.1,6-1.4,8.7c-2.6,5.4-7.2,9.7-12.7,12.1c-5.5,2.3-11.4,3.7-17.4,4.2
			c-3.8,0.4-7.7,0.7-11.4,0.8c-2.2,0-9.7,1.4-11.4,0c-0.2-0.2-0.3-0.4-0.4-0.6c-4.8,11.3-9.8,22.4-14.9,33.5
			c-15.7,33.8-32.7,67-51.1,99.6C364.4,845.7,362.7,844.6,363.3,843.4z M423.7,652.4c-4-4-10.3-6-15.5-3.8
			c-4.8,2.1-7.5,7.4-7.9,12.5c-0.1,5.2,0.9,10.4,3.2,15.2c5,12,12.8,26.1,23.4,34c5.9-12.6,6.6-32.3,4.1-42.8
			C430,661.8,427.4,656.6,423.7,652.4L423.7,652.4z M475.2,436.6c-1.4-0.7-3-0.9-4.5-0.7c-1.5,0.2-3,0.9-4.2,1.9
			c-0.9,1.1-1.5,2.4-1.8,3.8c-0.2,1.4-0.1,2.9,0.4,4.2c1,2.7,2.7,5.1,4.8,7c5,5.1,12,10.7,19,12.5c0-8.1-2.4-16-6.8-22.7
			C480.4,440.1,478,438,475.2,436.6z M457.2,553.6c-3.7-2.9-9.1-4.1-13.2-1.7c-1.8,1.2-3.3,2.9-4.2,4.8c-1,2-1.4,4.1-1.2,6.3
			c0.4,4.3,1.8,8.5,4.1,12.2c5.2,9.6,13,20.5,22.5,26.1c3.8-11,2.5-27.4-0.5-35.9C463.3,560.8,460.7,556.7,457.2,553.6z
			 M516.6,495.2c3.3-3.3,5.2-7.6,5.5-12.2c0.1-2.3-0.4-4.5-1.6-6.5c-1.1-2-2.8-3.6-4.8-4.7c-5.4-2.7-12.2,0.1-16.1,4.8
			c-3.9,4.7-5.4,10.7-6.9,16.6c-0.8,3.3-1.6,6.5-2.5,9.8c-0.5,2-2.7,6.6-0.6,7.2c1.6,0.5,6.5-2.5,8-3.2c2.6-1.2,5.2-2.4,7.8-3.8
			C509.6,501.1,513.3,498.4,516.6,495.2L516.6,495.2z M408.9,764.9c-1.9,2.5-7.4,7.7-4.9,9.6c1.9,1.6,10.4,0.1,12.9,0
			c4.3-0.2,8.6-0.4,12.9-0.9c6.8-0.5,13.5-2.1,19.8-4.7c6.3-2.7,11.5-7.6,14.5-13.8c1.4-3.1,1.9-6.5,1.5-9.9
			c-0.4-3.4-1.8-6.6-3.9-9.2c-6-6.7-17-6.7-25-2.5c-8,4.3-13.6,11.8-18.9,19.2L408.9,764.9z M500.7,549.3c4.5-0.8,8.8-2.4,12.8-4.6
			c4-2.2,7.1-5.9,8.6-10.2c0.7-2.2,0.8-4.5,0.3-6.7c-0.5-2.2-1.7-4.3-3.3-5.9c-4.5-4-11.8-3.2-16.8,0.2c-5,3.4-8.1,8.8-11.1,14.1
			c-1.7,2.9-3.4,5.8-5,8.8c-1,1.8-4.4,5.6-2.5,6.8c1.4,0.9,6.9-0.7,8.6-0.9C495,550.4,497.9,549.9,500.7,549.3z"/>
		
			<linearGradient id="SVGID_00000010309665168409722040000007580639904120363925_" gradientUnits="userSpaceOnUse" x1="649.198" y1="-115.2424" x2="649.198" y2="185.7206" gradientTransform="matrix(1 0 0 -1 0 821.8353)">
			<stop  offset="0" style="stop-color:#080808"/>
			<stop  offset="1" style="stop-color:#5F5F5F"/>
		</linearGradient>
		<path style="fill:url(#SVGID_00000010309665168409722040000007580639904120363925_);" d="M476.2,729.3
			c-1.7-11.2-2.2-22.8,1.3-33.6c3.5-10.7,11.7-20.5,22.6-23.3c13.3-3.5,27.5,3.8,36.2,14.6c8.6,10.8,12.8,24.3,16.6,37.5
			c-4.9-18.2-9.8-36.8-8.2-55.6c1.5-18.8,10.8-38,27.7-46.3c16.9-8.3,41.1-1.2,46.8,16.7c1.2,4.3,1.8,8.8,1.9,13.2l2.8,41.3
			c1.8-14.2,7-27.8,15.3-39.4c8.3-11.7,19.3-21.1,32.2-27.4c13.3-6.4,31.4-8.2,40.8,3.2c7.7,9.4,5.8,23.3,2,34.9
			c-3.8,11.6-9.2,23.4-7,35.3c1.3-15.2,17.2-27.5,32.3-24.8c0.9,13,1.8,26.1,2.8,39.1c1.6-19.7,19.4-36.7,39.2-37.4
			c19.7-0.7,38.7,15.2,41.5,34.7c2.3,15.9-4.8,31.5-12.1,45.8c-16.6,32.2-36.6,64.7-67.9,82.9c-32.6,18.9-72.1,19.5-109.7,19.6
			c-36.9,0-77.1-1-105.4-24.8c-14.2-12-20.8-28.2-29.4-44.1C487.7,771.9,479.6,751.7,476.2,729.3z"/>
		
			<linearGradient id="SVGID_00000032614039598607667310000011494086259450916529_" gradientUnits="userSpaceOnUse" x1="962.1787" y1="-89.8524" x2="962.1787" y2="219.3456" gradientTransform="matrix(1 0 0 -1 0 821.8353)">
			<stop  offset="0" style="stop-color:#080808"/>
			<stop  offset="1" style="stop-color:#5F5F5F"/>
		</linearGradient>
		<path style="fill:url(#SVGID_00000032614039598607667310000011494086259450916529_);" d="M789.3,708c-1.7-11.2-2.2-22.8,1.3-33.6
			c3.5-10.7,11.7-20.5,22.6-23.4c13.3-3.5,27.5,3.8,36.2,14.6c8.6,10.8,12.7,24.3,16.7,37.5c-4.9-18.2-9.8-36.8-8.2-55.5
			c1.5-18.7,10.8-38,27.7-46.3c16.9-8.3,41.1-1.2,46.8,16.7c1.2,4.3,1.8,8.8,1.9,13.2l2.6,41.2c1.8-14.2,7-27.8,15.3-39.4
			c8.3-11.7,19.3-21.1,32.2-27.4c13.3-6.4,31.4-8.2,40.8,3.2c7.7,9.4,5.8,23.3,2,34.8c-3.7,11.5-9.2,23.4-7,35.4
			c1.3-15.3,17.2-27.5,32.3-24.8c0.9,13,1.9,26.1,2.8,39.1c1.6-19.7,19.4-36.7,39.2-37.4c19.7-0.6,38.7,15.2,41.5,34.7
			c2.3,15.9-4.8,31.5-12.1,45.8c-16.6,32.2-36.6,64.7-67.9,82.9c-32.6,18.9-72.1,19.5-109.7,19.6c-36.9,0.1-77.1-1-105.4-24.8
			c-14.2-12-20.8-28.2-29.4-44.1C800.8,750.5,792.6,730.4,789.3,708z"/>
		
			<linearGradient id="SVGID_00000000203400594137438090000014541505430001009078_" gradientUnits="userSpaceOnUse" x1="1305.6632" y1="22.7429" x2="1175.7231" y2="307.5538" gradientTransform="matrix(1 0 0 -1 0 821.8353)">
			<stop  offset="0" style="stop-color:#080808"/>
			<stop  offset="1" style="stop-color:#5F5F5F"/>
		</linearGradient>
		<path style="fill:url(#SVGID_00000000203400594137438090000014541505430001009078_);" d="M1074.2,674.3
			c-1.7-11.2-2.2-22.8,1.3-33.6c3.5-10.8,11.7-20.5,22.6-23.3c13.3-3.5,27.6,3.8,36.2,14.6c8.6,10.8,12.7,24.3,16.7,37.5
			c-4.9-18.2-9.8-36.8-8.2-55.5c1.5-18.7,10.8-38,27.7-46.2c16.9-8.3,41.1-1.2,46.8,16.7c1.2,4.3,1.8,8.8,1.9,13.2l2.6,41.2
			c1.8-14.2,7-27.8,15.3-39.4s19.3-21.1,32.2-27.4c13.3-6.4,31.4-8.2,40.8,3.2c7.7,9.4,5.8,23.3,2,34.9c-3.8,11.6-9.2,23.4-7,35.4
			c1.3-15.2,17.2-27.5,32.3-24.8c0.9,13,1.8,26.1,2.8,39.1c1.6-19.7,19.4-36.7,39.2-37.4c19.7-0.7,38.7,15.2,41.5,34.7
			c2.3,15.9-4.8,31.5-12.2,45.8c-16.6,32.2-36.6,64.7-67.8,82.9c-32.6,18.9-72.1,19.5-109.7,19.6c-36.9,0.1-77.2-1-105.4-24.8
			c-14.2-12-20.8-28.2-29.4-44.1C1085.7,716.9,1077.5,696.8,1074.2,674.3z"/>
		
			<linearGradient id="SVGID_00000116923037802277549310000009985937693089588132_" gradientUnits="userSpaceOnUse" x1="309.8841" y1="28.9677" x2="309.8841" y2="256.4217" gradientTransform="matrix(1 0 0 -1 0 821.8353)">
			<stop  offset="0" style="stop-color:#080808"/>
			<stop  offset="1" style="stop-color:#5F5F5F"/>
		</linearGradient>
		<path style="fill:url(#SVGID_00000116923037802277549310000009985937693089588132_);" d="M137,634.1c-1.7-11.2-2.2-22.8,1.3-33.6
			c3.5-10.7,11.7-20.5,22.6-23.3c13.3-3.5,27.6,3.8,36.2,14.6c8.6,10.8,12.8,24.3,16.7,37.5c-4.9-18.2-9.8-36.8-8.2-55.5
			c1.5-18.7,10.8-38,27.7-46.3c16.9-8.3,41.1-1.2,46.8,16.7c1.2,4.3,1.8,8.8,1.9,13.2l2.6,41.3c1.8-14.2,7-27.8,15.3-39.4
			c8.3-11.7,19.3-21.1,32.2-27.4c13.3-6.4,31.4-8.2,40.8,3.2c7.7,9.4,5.7,23.3,2,34.8c-3.7,11.5-9.2,23.4-7,35.4
			c1.3-15.2,17.2-27.5,32.3-24.8c0.9,13,1.8,26.1,2.8,39.1c1.6-19.7,19.4-36.7,39.2-37.4c19.7-0.7,38.7,15.2,41.6,34.7
			c2.3,15.9-4.8,31.6-12.1,45.8c-16.6,32.2-36.6,64.7-67.9,83c-32.6,18.9-72.1,19.5-109.7,19.6c-36.9,0-77.1-1-105.4-24.8
			c-14.2-12-20.8-28.2-29.4-44.1C148.4,676.5,140.3,656.4,137,634.1z"/>
		
			<linearGradient id="SVGID_00000130630721702874930520000006742126415137304979_" gradientUnits="userSpaceOnUse" x1="61.7934" y1="-34.2224" x2="61.7934" y2="193.2156" gradientTransform="matrix(1 0 0 -1 0 821.8353)">
			<stop  offset="0" style="stop-color:#080808"/>
			<stop  offset="1" style="stop-color:#5F5F5F"/>
		</linearGradient>
		<path style="fill:url(#SVGID_00000130630721702874930520000006742126415137304979_);" d="M-111.1,748.5
			c-1.7-11.2-2.2-22.8,1.3-33.6s11.7-20.5,22.6-23.4c13.3-3.5,27.6,3.8,36.2,14.6c8.6,10.8,12.7,24.3,16.7,37.5
			c-4.9-18.2-9.8-36.7-8.2-55.5c1.5-18.8,10.8-38,27.7-46.2c16.9-8.3,41.1-1.2,46.8,16.7c1.2,4.3,1.8,8.8,1.9,13.2l2.6,41.2
			c1.8-14.2,7-27.8,15.3-39.4s19.3-21.1,32.2-27.4c13.3-6.3,31.4-8.3,40.8,3.2c7.7,9.4,5.7,23.3,1.9,34.9c-3.8,11.6-9.2,23.4-7,35.4
			c1.3-15.2,17.2-27.5,32.3-24.8c0.9,13,1.8,26.1,2.8,39.1c1.6-19.7,19.4-36.7,39.2-37.4c19.7-0.7,38.7,15.2,41.5,34.7
			c2.4,15.9-4.8,31.5-12.1,45.8c-16.6,32.2-36.5,64.7-67.9,82.9c-32.4,18.8-72,19.4-109.6,19.5c-36.9,0.1-77.1-1-105.4-24.8
			c-14.2-12-20.8-28.2-29.4-44.1C-99.6,791-107.7,770.8-111.1,748.5z"/>
		
			<linearGradient id="SVGID_00000109729773843543513510000014703799303971608484_" gradientUnits="userSpaceOnUse" x1="1058.7788" y1="-66.4927" x2="987.9039" y2="214.5193" gradientTransform="matrix(1 0 0 -1 0 821.8353)">
			<stop  offset="0" style="stop-color:#2E2E2E"/>
			<stop  offset="1" style="stop-color:#999999"/>
		</linearGradient>
		<path style="fill:url(#SVGID_00000109729773843543513510000014703799303971608484_);" d="M1093.9,835.5
			c25.6-27.7,40.2-64,40.8-101.7c0.1-7.7-0.5-15.8-4-22.7c-3.5-6.9-10.6-12.5-18.3-12.2c-6.6,0.3-12.4,4.7-16.1,10.1
			c-3.7,5.4-5.5,11.8-7.4,18.1c4.5-20,5.7-40.5,3.3-60.9c-1.1-9.4-4.5-20.5-13.6-22.8c-6.4-1.6-13.3,2.2-17.2,7.5
			c-4,5.3-5.6,12-7.1,18.5c29.8-94.7-24.4-123.6-36.4-61.1c-10.8-26.1-20.6-114.8-67-93.4c-46.5,21.4,8.9,96,21.8,116.3
			c-10.8-9-45.8-35.9-57.7-18.3c-17.2,25.6,24.6,61.9,57.9,89.1c-13.3-5.9-27.2-11.9-41.7-11.2c-14.5,0.7-29.7,10.4-31.5,24.9
			c-1.5,12.4,6.8,23.8,15.7,32.6c20.5,20.4,45.7,35.4,73.4,43.6c-9.4-0.4-19.2-0.7-27.9,2.9c-8.7,3.6-16.8,12.4-15,21.6
			C956.9,873.7,1091.3,843.6,1093.9,835.5z"/>
		<path class="st20" d="M1076,678.4c-5.5,27.4-13.3,54.5-18.8,81.9c-8.5-19.4-17-38.7-25.6-58c3.3-27.6,2.9-56,2.7-83.8
			c0-1.2-1.8-1.3-1.8-0.1c-0.6,26-2.9,51.9-3.6,77.8c-24.4-54.9-49.2-109.6-72.9-164.7c-0.2-0.5-1.1-0.1-0.8,0.4
			c21.9,53.7,43.6,107.5,66.3,161c-22-16.7-46.3-30.5-68.4-47.1c-0.4-0.3-0.7,0.3-0.4,0.6c22,18.2,45,38,70.7,50.8
			c9.6,22.6,19.5,45.1,29.5,67.5c-29.6-8-58.7-11-85.9-27.2c-0.6-0.4-1.2,0.5-0.6,0.9c26.5,16.6,56.6,26.6,87.8,29.1
			c10,22.1,20.2,44,30.7,65.7c0.2,0.4,0.5,0.6,0.9,0.8c0.4,0.1,0.8,0.1,1.2-0.1c0.4-0.2,0.7-0.5,0.8-0.9c0.1-0.4,0.1-0.8-0.1-1.2
			c-9.3-22.6-18.9-45.1-28.7-67.5c9.9-27.1,14.3-57.5,17.5-85.9C1076.5,678.2,1076.1,678.2,1076,678.4z"/>
		
			<linearGradient id="SVGID_00000029026144280523235690000012326804229225543058_" gradientUnits="userSpaceOnUse" x1="-41.467" y1="-18.5072" x2="4.8142" y2="384.7858" gradientTransform="matrix(1 0 0 -1 0 821.8353)">
			<stop  offset="0" style="stop-color:#232323"/>
			<stop  offset="1" style="stop-color:#818181"/>
		</linearGradient>
		<path style="fill:url(#SVGID_00000029026144280523235690000012326804229225543058_);" d="M-34.4,901.9l-0.8-0.9
			c-1.2-1.5-2.3-3-3.5-4.5c-23.3-30.8-44.9-70.8-60.1-130.1l27.8-13.4l-35.7-19.5c0,0,1.2-19.8,3.8-47.7c0.1-0.9,0.2-1.8,0.2-2.7
			c0.6-5.8,1.2-12,1.9-18.3c0.3-3.3,0.7-6.6,1.1-10c3.7-32.7,9-69.6,16.1-98.2c0.1-0.5,0.2-1,0.4-1.5c0.2-0.9,0.5-1.8,0.7-2.7
			c1.6-6.4,2.9-12,4.1-17c0.2-1,0.5-1.9,0.7-2.9c6.3-26.4,7-32.8,6.8-34.1l39.7-4l-29.7-15.7c17.9-31.1,37.5-61.1,58.9-89.9
			C8.9,399,66,456.9,70.2,549L43,561.2l24.9,5.1c0,0-0.5,10.6-1.9,27c-0.3,3.4-0.6,7-1,10.8c-3.1,30.8-9.3,75-20.9,112.1
			c-0.7,2.3-1.5,4.6-2.3,7.1l-2.6,7.7C15.9,797.4-34.4,901.9-34.4,901.9z"/>
		<path class="st4" d="M-51.6,972.5c4.4-25.3,8.8-50.7,13-76c12-71.7,23.2-143.6,33.7-215.6c1-6.6,1.9-13.2,2.8-19.8
			c-17.7,3.8-35.8,5.4-53.4,9.9c-16,4.1-31.9,9-47.4,14.7c0.1-0.9,0.2-1.8,0.2-2.7c14.6-7.1,29.8-13,45.4-17.5
			c17.7-5,37.2-10.3,56-10.3l0.4-2.8c-17.7-2-35.5-1.8-53.1,0.7c-10.9,1.6-21.6,3.9-32.1,7c-4.8,1.4-9.8,4.1-14.7,4.7
			c0.3-3.3,0.7-6.6,1.1-10c4.2-2,9.1-3.3,12.8-4.7c11.4-4.4,23.1-7.9,35-10.4c18.1-3.6,35.9-4.4,52.7,1.1c2.7-20.5,5.2-41,7.1-61.5
			c-15.3-5-30.2-11.3-45.7-15.6c-14.8-4.2-30.1-7.1-45.4-8.6c0.2-0.9,0.5-1.8,0.7-2.7c30.7,0.8,62.9,9.2,90.9,22c0-0.2,0-0.5,0-0.7
			c-28-15-55.9-30.9-86.8-38.3c0.2-1,0.5-1.9,0.7-2.9c30.7,5.1,61.2,19.4,86.5,36.4c4.7-56.1,4.5-112.2-7-168.7c0-0.1,0-0.1,0-0.2
			c0,0,0.1-0.1,0.1-0.1c0.1,0,0.1,0,0.2,0c0,0,0.1,0.1,0.1,0.1c21.7,72,6.3,211.1,4.1,226.2c19-12.6,38.9-23.7,59.6-33.1
			c-0.3,3.4-0.6,7-1,10.8c-19.3,8.1-38.3,16.8-57.2,26.7c-0.3,0.2-0.6,0.3-0.9,0.3c-0.3,0-0.7,0-1-0.2c-0.5,3.7-5.4,37-6,40.8
			c-3.4,23.8-6.8,47.5-10.2,71.4c12.9-9.4,30.4-14.6,45.5-18.3c2.2-0.5,4.5-1.1,6.7-1.5l-2.6,7.7l-4.1,0.9
			C19,735.4,4.6,742.9-11,747.5c-7.4,51.4-15,102.6-24.1,153.5c-4.2,24.1-8.8,48.1-13.9,72.1c-0.1,0.3-0.3,0.6-0.6,0.8
			c-0.3,0.2-0.6,0.2-1,0.2c-0.3-0.1-0.6-0.3-0.8-0.6C-51.6,973.2-51.6,972.8-51.6,972.5z"/>
		
			<linearGradient id="SVGID_00000036953932595290754410000013293640347587172274_" gradientUnits="userSpaceOnUse" x1="362.4831" y1="-60.8943" x2="534.4731" y2="267.3947" gradientTransform="matrix(1 0 0 -1 0 821.8353)">
			<stop  offset="0" style="stop-color:#232323"/>
			<stop  offset="1" style="stop-color:#818181"/>
		</linearGradient>
		<path style="fill:url(#SVGID_00000036953932595290754410000013293640347587172274_);" d="M501.6,775.5
			c6.7-5.2,12.7-12.3,13.5-20.8c0.8-8.5-5.7-17.8-14.2-17.4c8.3-0.7,16.8-1.4,24.2-5.2c7.4-3.8,13.4-11.5,12.8-19.7
			c-0.6-8.2-10.2-15.3-17.6-11.6c8-2.3,16.2-4.7,23-9.6c6.8-4.9,12-12.7,11.5-21.1c-0.5-8.4-6.7-15.2-14.3-18
			c-7.8-2.6-16.3-2-23.6,1.6c11.7-9.1,23-19.2,30.8-31.8c7.8-12.7,11.8-28.2,8.1-42.6c-3.7-14.4-16.1-26.8-31-28
			c-17-1.2-32.3,12.5-38.5,28.5c-6.2,15.9-5.4,33.6-4.6,50.7c0.2-13.6-16.2-23.4-29.3-19.5c-13.1,3.9-21.3,17.8-22.2,31.4
			c-0.9,13.6,4.1,27,10.2,39.1c-4.6-13.8-20.1-22.6-34.5-20.6s-26.5,13.9-29.8,28.1c-3.3,14.1,32.1,96.7,32.1,96.7
			S482.7,790.3,501.6,775.5z"/>
		<path class="st23" d="M477,700.7c23.8-40.4,44.3-86.4,53.6-132.6c0,0,0-0.1,0-0.1c0,0-0.1,0-0.1,0c0,0-0.1,0-0.1,0
			c0,0,0,0.1,0,0.1c-9,21.6-14.9,44.6-23.8,66.3c-9.1,22.4-19.9,44-32.3,64.7c-24.3,40.9-54.9,76.4-88.2,110.1
			c-0.1,0.1-0.2,0.2-0.3,0.3c-0.1,0.1-0.1,0.3-0.1,0.4c0,0.1,0,0.3,0.1,0.4c0,0.1,0.1,0.3,0.2,0.4c0.1,0.1,0.2,0.2,0.3,0.2
			c0.1,0.1,0.3,0.1,0.4,0.1c0.1,0,0.3,0,0.4-0.1c0.1-0.1,0.3-0.1,0.4-0.2C423.4,780,453.1,741.4,477,700.7z"/>
		
			<linearGradient id="SVGID_00000095338191939633005100000017798658137120414136_" gradientUnits="userSpaceOnUse" x1="556.5292" y1="-40.5346" x2="611.7023" y2="194.8344" gradientTransform="matrix(1 0 0 -1 0 821.8353)">
			<stop  offset="0" style="stop-color:#2E2E2E"/>
			<stop  offset="1" style="stop-color:#999999"/>
		</linearGradient>
		<path style="fill:url(#SVGID_00000095338191939633005100000017798658137120414136_);" d="M589.4,876.6c26.6-9.6,48.7-28.8,62-53.7
			c2.7-5.1,5.1-10.6,5.1-16.4c0-5.8-2.8-12-8-14.4c-2.3-0.9-4.8-1.3-7.2-1.1c-2.5,0.2-4.8,1-6.9,2.3c-4.2,2.6-8,5.8-11.2,9.6
			c9.9-11.7,17.7-25,23.1-39.3c2.5-6.6,4-15.2-1.2-19.8c-3.7-3.3-9.6-3.1-14-0.9c-4.4,2.2-7.8,6.1-11.1,9.8
			c52.3-52.8,26.2-90.6-3.2-53.1c1.8-21.1,25.7-83.4-12.5-85.2s-27,66.9-25.5,84.9c-4.1-9.7-18.1-39.6-32.1-32
			c-20.3,11.1-4.9,49.7,7.9,79.2c-6.8-8.5-14-17.3-23.9-21.8c-9.9-4.5-23.3-3.3-29.5,5.8c-5.3,7.7-3.6,18.2-0.8,27.1
			c6.6,20.6,18.3,39.2,33.9,54.2c-6.1-3.5-12.5-7-19.6-7.7c-7-0.6-15.3,2.5-17.4,9.2C485.1,854.9,584.9,881,589.4,876.6z"/>
		<path class="st20" d="M631.5,765.9c-13.1,16.4-27.6,31.6-40.6,47.9c1-15.8,2-31.6,2.9-47.4c11.7-17.2,21.1-36.3,30.7-54.8
			c0.4-0.8-0.7-1.5-1.2-0.7c-9.3,17.1-19.7,33.5-29.1,50.5c2.6-44.9,4.9-89.8,8-134.6c0-0.4-0.6-0.4-0.7,0
			c-3.8,43.2-7.9,86.5-11.1,129.9c-8.9-18.6-20.3-36.2-29.4-54.8c-0.1-0.3-0.6,0-0.4,0.2c8.4,19.6,16.9,40.8,29.6,58.1
			c-1.4,18.3-2.5,36.7-3.5,55c-17-15.5-35.3-27.5-47.9-47.6c-0.3-0.5-1,0-0.7,0.4c11.9,20.2,28.5,37.2,48.4,49.5
			c-0.9,18.1-1.7,36.2-2.1,54.3c0,0.3,0.1,0.6,0.3,0.8c0.2,0.2,0.5,0.3,0.8,0.3s0.6-0.1,0.8-0.3c0.2-0.2,0.3-0.5,0.3-0.8
			c1.5-18.2,2.9-36.5,4.1-54.8c15.9-14.6,29.2-33.3,41.1-51.1C631.9,765.9,631.6,765.7,631.5,765.9z"/>
		
			<linearGradient id="SVGID_00000026868471714748498530000004738042585357553336_" gradientUnits="userSpaceOnUse" x1="1391.6927" y1="135.2029" x2="1245.4927" y2="429.1219" gradientTransform="matrix(1 0 0 -1 0 821.8353)">
			<stop  offset="0" style="stop-color:#232323"/>
			<stop  offset="1" style="stop-color:#818181"/>
		</linearGradient>
		<path style="fill:url(#SVGID_00000026868471714748498530000004738042585357553336_);" d="M1328.4,754
			c-30.3-18.6-55.4-44.5-73.3-75.2c-5.8-9.9-10.7-20.5-12.5-31.8c-1.8-11.3,0-23.6,6.8-32.8c6.8-9.2,19.2-14.7,30.1-11.6
			c-8.7-14.1-17.5-28.6-20.8-44.9c-3.4-16.3-0.2-34.9,12.1-46c12.3-11.2,34.6-10.9,43.6,3.1c-6.5-11.2-6.9-26.2,0.9-36.4
			c9.1-11.9,27.3-14.4,40.9-8.1c13.6,6.3,23,19.8,27.7,34c4.7,14.2,5.5,29.5,6.3,44.5c0.3-13.7,13.2-25.1,26.8-26
			c13.6-0.9,26.8,7.1,34.7,18.3c7.9,11.2,11.1,25.1,11.8,38.7c1.6,32.6-9.4,64.5-30.8,89.1C1432.7,668.9,1329.8,752.5,1328.4,754z"
			/>
		<path class="st23" d="M1329.2,774.4c10.4-48,16.5-96.9,18.2-146c-28.5-17.6-49-43.7-69.3-70c-0.3-0.4,0.3-0.9,0.6-0.5
			c20.6,24.8,41.7,48.9,68.7,66.8c1.3-46.5-2.5-93-11.3-138.6c0-0.2,0-0.4,0.1-0.6c0.1-0.2,0.3-0.3,0.5-0.3c0.2,0,0.4,0,0.6,0.1
			c0.2,0.1,0.3,0.3,0.3,0.5c3.8,17.9,6.8,36,9.2,54.3c3-4.7,6.7-8.9,9.6-13.8c3.5-6.1,6.5-12.4,9-19c0.1-0.1,0.2-0.3,0.3-0.3
			c0.2-0.1,0.3-0.1,0.5,0c0.2,0,0.3,0.1,0.4,0.3c0.1,0.1,0.1,0.3,0.1,0.5c-1.3,6.3-3.4,12.4-6.3,18.2c-1.5,3-3.2,5.9-5.1,8.7
			c-1.8,2.7-5.5,6-6,9.2c0,0.2-0.1,0.4-0.2,0.5c-0.1,0.2-0.2,0.3-0.4,0.4c-0.1,0.1-0.3,0.2-0.5,0.2c-0.2,0-0.4,0-0.5,0
			c4.5,36.5,6,73.4,4.2,110.2c30.7-23.6,59.2-53.1,70.9-90.5c0-0.1,0.1-0.2,0.2-0.3c0.1-0.1,0.2-0.1,0.4-0.1c0.1,0,0.2,0.1,0.3,0.2
			s0.1,0.2,0.1,0.4c-0.4,19.8-13,37-25.2,51.8c-13.4,16.4-28.9,31.9-47,43c-2.1,39.2-8.5,78.1-19.2,115.8
			C1331.8,777.6,1328.8,776.5,1329.2,774.4z"/>
		
			<linearGradient id="SVGID_00000122696016105573820130000016493941982217426353_" gradientUnits="userSpaceOnUse" x1="1276.4006" y1="50.5448" x2="1244.3406" y2="312.6169" gradientTransform="matrix(1 0 0 -1 0 821.8353)">
			<stop  offset="0" style="stop-color:#232323"/>
			<stop  offset="1" style="stop-color:#818181"/>
		</linearGradient>
		<path style="fill:url(#SVGID_00000122696016105573820130000016493941982217426353_);" d="M1300.3,722.1
			c25.1-17.9,42.8-44.5,49.6-74.6c1.4-6.2,2.2-12.7,0.6-18.8c-1.7-6.1-6.4-11.7-12.6-12.8c-5.3-0.9-10.7,1.7-14.5,5.4
			c-3.7,3.9-6.7,8.4-8.9,13.3c7-15.2,11.3-31.5,12.8-48.2c0.7-7.7-0.2-17.1-7.1-20.5c-4.9-2.4-11-0.5-15,3.1
			c-4,3.6-6.4,8.7-8.8,13.6c4.2-17.5,6.3-35.4,6.2-53.4c0-6.4-0.7-13.4-5.2-17.8c-4.5-4.4-15.9-7.7-19.9,16.2
			c-4.3-22.7-10.4-45-18.3-66.6c-3.4-9.3-9.8-20.3-19.7-19.3c-9.9,1-14,13.2-14.7,23.1c-1.4,19.6,5.9,55.1,12.7,73.6
			c-7.1-9-30.7-36.4-43.1-24.3c-18.1,17.6,9.4,53.7,31.4,81c-9.6-6.9-19.8-14.1-31.5-15.9c-11.7-1.8-25.5,3.4-29.3,14.6
			c-3.3,9.6,1.5,20.1,7.1,28.8c13,19.7,30.6,35.9,51.4,47c-7.4-1.9-15.2-3.7-22.8-2.3c-7.6,1.4-15.5,7.1-15.6,14.8
			C1184.3,729.9,1296.8,728,1300.3,722.1z"/>
		<path class="st27" d="M1312.2,593.4c-9,21.1-19.7,41.4-28.7,62.3c-3.5-16.9-7.1-33.8-10.8-50.7c7.3-21.6,11.6-44.3,16.1-66.6
			c0.2-0.9-1.2-1.3-1.4-0.4c-4.8,20.7-11,41-15.9,61.6c-10.4-47.9-21.1-95.9-30.9-143.9c-0.1-0.5-0.8-0.3-0.7,0.2
			c8.5,46.6,17,93.3,26.2,139.9c-14.8-17-32-32.1-46.9-49.1c-0.2-0.3-0.6,0.1-0.4,0.4c14.5,18.2,29.7,37.9,48,52.5
			c4,19.7,8.1,39.3,12.4,58.9c-22.4-11.4-45.1-18.6-64.2-36.1c-0.4-0.4-1.1,0.2-0.7,0.7c18.5,17.7,40.9,30.6,65.5,37.8
			c4.3,19.3,8.8,38.6,13.6,57.7c0.1,0.3,0.3,0.6,0.6,0.7c0.3,0.1,0.6,0.2,0.9,0.1c0.3-0.1,0.6-0.3,0.8-0.5c0.2-0.3,0.2-0.6,0.2-0.9
			c-3.7-19.6-7.6-39.2-11.7-58.8c12.4-20,21.1-43.6,28.3-65.8C1312.6,593.2,1312.2,593.2,1312.2,593.4z"/>
		
			<linearGradient id="SVGID_00000026859078633580065140000003282520262977219476_" gradientUnits="userSpaceOnUse" x1="1113.73" y1="-75.4968" x2="1155.4299" y2="369.3743" gradientTransform="matrix(1 0 0 -1 0 821.8353)">
			<stop  offset="0" style="stop-color:#666666"/>
			<stop  offset="1" style="stop-color:#BCBCBC"/>
		</linearGradient>
		<path style="fill:url(#SVGID_00000026859078633580065140000003282520262977219476_);" d="M1112.1,915.2c0,0-35.3-135-35.2-232.3
			c0-59.7,2.8-129.7,38.7-177.3c28.2-37.3,68.2-16.2,79.4,21.4c15.3,52.2,2.7,129.7-8.2,182.1
			C1165.4,812.1,1112.1,915.2,1112.1,915.2z"/>
		<path class="st29" d="M1192.2,576.3c-24,27.2-46,56.1-65.8,86.5c0.5-4.9,1-9.8,1.5-14.7c20.7-31.7,42.9-62.6,66.1-92.5
			c0-0.1,0-0.2-0.1-0.1c-23.4,27.7-45.2,56.7-65.3,86.8c4.9-44.6,11.5-89.1,18.5-133.5c0-0.3-0.5-0.5-0.5-0.2
			c-2.3,12.9-4.5,25.7-6.7,38.6c-1.2-12.3-2.9-24.6-5-36.8c0-0.1-0.2,0-0.2,0c2.1,13.1,3.7,26.2,4.7,39.4
			c-8.3,49.8-15.3,99.7-19.2,150c-7-42.1-16.3-83.9-27.9-125c0-0.1-0.2,0-0.2,0c11.3,43,20.2,86.5,27.6,130.4
			c-0.4,5.5-0.8,10.9-1.1,16.4l-0.8,13.7c-7.7-46-21-91.4-30.1-137.2c0-0.2-0.2-0.1-0.2,0c10.7,47.9,17,97.3,29.8,144.8
			c-4,67.5-8.4,135.6-8,203.2c0,0.3,0.1,0.6,0.3,0.8c0.2,0.2,0.5,0.3,0.8,0.3s0.6-0.1,0.8-0.3c0.2-0.2,0.3-0.5,0.3-0.8
			c4.8-52.6,6.1-105.4,7.7-158.4c26.3-18.5,43.1-49.3,59-76.4c0.1-0.1,0.1-0.2,0-0.3c0-0.1-0.1-0.2-0.2-0.2c-0.1,0-0.2-0.1-0.3,0
			c-0.1,0-0.2,0.1-0.2,0.2c-16.8,27.5-34.5,52.2-58.2,73.8c0.2-5.5,0.4-11.1,0.6-16.6c24.4-25.9,43.7-55.6,60.5-86.8
			c0-0.1-0.1-0.2-0.2-0.1c-16.6,30-37.6,57.1-60.2,82.8c0.5-12.6,1-25.2,1.6-37.8c1-19.6,2.4-39.2,4.3-58.7
			c20.3-31.6,42.6-62,66.6-90.9C1192.6,576.4,1192.3,576.1,1192.2,576.3z"/>
		
			<linearGradient id="SVGID_00000083078953339796583920000001005534299087645335_" gradientUnits="userSpaceOnUse" x1="316.227" y1="-43.6784" x2="544.386" y2="124.1996" gradientTransform="matrix(1 0 0 -1 0 821.8353)">
			<stop  offset="0" style="stop-color:#6D6D6D"/>
			<stop  offset="1" style="stop-color:#B6B6B6"/>
		</linearGradient>
		<path style="fill:url(#SVGID_00000083078953339796583920000001005534299087645335_);" d="M322.4,781.8c7.3-26.6,20.6-52.3,42-69.7
			c36.5-29.7,88.4-30.1,135.1-24.3c13,1.6,27,4.1,35.9,13.7c9.3,10,10.3,25.1,9.3,38.7c-2.9,38-18.1,73.9-43.4,102.4
			c-25.3,28.5-59.1,47.8-96.5,55.2c-16.9,3.3-34.7,4.1-51.2-1c-16.5-5.1-37.2-19.8-41-37.8C307.8,836.9,316.5,803.3,322.4,781.8z"/>
		<path class="st23" d="M534.1,718c-10.7,5.1-21.5,10.3-32.2,15.7c5.3-8.5,9.6-17.5,13-27c0.1-0.4-0.5-0.7-0.7-0.3
			c-4.6,10.3-10.7,19.4-16.3,29.2l-3.4,1.7c7.1-10.6,10.8-22.8,14.4-35.1c0-0.2-0.3-0.3-0.4,0c-4.7,13.2-9.8,26.2-18.4,37.3
			c-25.3,12.8-50.4,26.3-74.4,41.4c4.5-25.3,7.7-50.1,15.8-74.8c0.1-0.4-0.6-0.6-0.7-0.2c-9.1,24-17.5,50.7-17.7,76.7
			c-5.8,3.7-11.5,7.5-17.2,11.3c3.5-28.1,6.7-55.2,14.3-82.7c0.2-0.6-0.7-0.8-0.9-0.2c-9.6,26.5-17,56.7-16.6,85.2
			c-4.7,3.3-9.4,6.6-13.9,10c-15.3,11.3-29.5,23.9-42.6,37.6c1.9-12.4,2.8-24.9,5.3-37.3c3.1-14.8,7.5-29.3,13.1-43.3
			c0.1-0.3-0.4-0.5-0.5-0.2c-11.8,25-23.9,56.7-21.8,85.1c-19.9,22.2-35.8,47.8-42.4,76.8c-0.1,0.3-0.1,0.6-0.1,0.9
			c0,0.3,0.1,0.6,0.3,0.8c0.1,0.2,0.3,0.5,0.6,0.6c0.2,0.2,0.5,0.3,0.8,0.4c0.3,0.1,0.6,0.1,0.9,0.1c0.3,0,0.6-0.1,0.8-0.3
			c0.2-0.1,0.5-0.3,0.6-0.6c0.2-0.2,0.3-0.5,0.4-0.8c13.3-33.9,33.6-64.6,59.7-90.1c25.2-1.5,53,9.7,76,17.3c0.3,0.1,0.6,0,0.8-0.1
			c0.3-0.1,0.4-0.3,0.6-0.6s0.1-0.5,0-0.8c-0.1-0.3-0.3-0.5-0.5-0.7c-13.8-6.5-28.3-11.3-43.2-14.1c-10.2-2.1-20.7-4.2-31.1-3.6
			c2-1.9,4.1-4,6.3-5.9c31.5-1.7,60.7,8.3,91,16.1c0.3,0.1,0.6,0,0.8-0.1c0.3-0.1,0.4-0.4,0.5-0.7c0.1-0.3,0-0.6-0.1-0.8
			c-0.1-0.2-0.4-0.4-0.7-0.5c-28.3-10.9-59.4-19-89.8-15.6c8.8-7.8,17.9-15.2,27.4-22.1c14.4-10.4,29.3-20.2,44.5-29.5
			c17.9,4.7,35,12,50.9,21.6c0.1,0,0.1,0.1,0.2,0c0.1,0,0.1-0.1,0.2-0.1c0-0.1,0.1-0.1,0.1-0.2c0-0.1,0-0.1-0.1-0.2
			c-12-11.5-31.4-20.1-48.2-23c4.5-2.8,9-5.5,13.6-8.2c9,1.4,17.3,2.3,25.8,6c8.1,3.8,16,8,23.6,12.7c1,0.6,1.9-0.9,0.9-1.6
			c-12.5-9.2-29.2-21.2-45.8-19.8c10.5-6.2,21.2-12.1,31.8-18c0.2,0,0.3-0.1,0.5-0.2c15-8.2,30-16.3,45-24.2
			C535.7,718.8,534.9,717.6,534.1,718z"/>
		
			<linearGradient id="SVGID_00000010993429865250484070000009162902217252608932_" gradientUnits="userSpaceOnUse" x1="1306.2155" y1="-32.1021" x2="1374.6161" y2="187.6248" gradientTransform="matrix(1 0 0 -1 0 821.8353)">
			<stop  offset="0" style="stop-color:#232323"/>
			<stop  offset="1" style="stop-color:#818181"/>
		</linearGradient>
		<path style="fill:url(#SVGID_00000010993429865250484070000009162902217252608932_);" d="M1299.4,840.2
			c-22.8-14.6-43-34.7-53.1-59.9c-17.2-43-2.4-91.8,16.6-134c5.3-11.8,11.8-24.2,23.4-29.7c12.1-5.8,26.5-2.4,39,2.6
			c34.8,13.8,64.1,38.6,83.4,70.7c19.3,32.1,27.6,69.6,23.6,106.9c-1.9,16.9-6.3,33.8-15.9,47.8c-9.6,14-29.5,29.1-47.5,27.5
			C1346.7,870,1317.8,852,1299.4,840.2z"/>
		<path class="st23" d="M1301.3,622.6c1.7,11.5,3.4,23.2,5.3,34.9c-6.4-7.4-13.7-14.2-21.5-20.1c-0.3-0.2-0.8,0.3-0.5,0.5
			c8.3,7.4,15.1,15.8,22.7,23.8c0.2,1.2,0.4,2.5,0.6,3.7c-7.9-9.7-18.2-16.9-28.7-23.8c-0.2-0.1-0.4,0.2-0.2,0.3
			c11,8.3,21.7,16.9,29.7,28.2c4.6,27.5,9.9,55.1,17.1,82c-22.5-11.7-44.8-21.8-65.5-36.7c-0.4-0.3-0.8,0.3-0.4,0.6
			c19.9,15.6,42.4,31.3,66.7,39c1.8,6.5,3.6,13,5.6,19.4c-25.3-11.5-49.8-22.5-73.5-37.7c-0.1-0.1-0.2-0.1-0.3-0.1
			c-0.1,0-0.2,0.1-0.3,0.2s-0.1,0.2-0.1,0.3c0,0.1,0.1,0.2,0.2,0.3c22.1,16.7,48.2,32.6,75,40.5c1.7,5.4,3.5,10.7,5.4,16.1
			c6.1,17.6,13.8,34.7,22.8,51.1c-11-5.5-22.6-9.9-33.5-15.9c-13-7.2-25.3-15.5-36.9-24.9c-0.2-0.2-0.5,0.2-0.3,0.4
			c20,18.4,46.2,39,73.5,45.4c15,25.2,34.5,47.6,59.7,62.3c0.5,0.3,1.1,0.4,1.6,0.3c0.6-0.1,1-0.5,1.4-1c0.3-0.5,0.4-1.1,0.3-1.6
			c-0.1-0.5-0.5-1-0.9-1.3c-28-22.4-50.8-50.5-67.1-82.4c5.9-24.1,24.6-46.9,38.5-66.4c0.8-1.1-0.9-2.5-1.8-1.5
			c-10.1,11-18.8,23.3-25.8,36.5c-5,8.9-10,18.2-12.5,28.2c-1.3-2.5-2.5-5.1-3.7-7.7c7.7-30.1,25.6-54.6,41.7-80.8
			c0.7-1.2-1-2.2-1.8-1.2c-18.5,23.4-35.2,50.2-40.8,79.8c-4.8-10.5-9-21.2-12.7-32.2c-5.6-16.6-10.4-33.4-14.7-50.5
			c9.7-15.4,21.5-29.4,35.1-41.5c0,0,0.1,0,0.1-0.1c0,0,0-0.1,0-0.1c0,0,0-0.1,0-0.1c0,0,0-0.1,0-0.1c0,0-0.1-0.1-0.1-0.1
			s-0.1,0-0.1,0c0,0-0.1,0-0.1,0c0,0-0.1,0-0.1,0c-14.3,8-28.1,23.7-35.7,38.6c-1.3-5-2.5-10.1-3.7-15.2c4-8,7.2-15.6,13.2-22.5
			c5.9-6.5,12.2-12.7,18.8-18.5c0.9-0.8-0.3-1.9-1.2-1.3c-12.3,9.1-28.4,21.2-32,37.2c-2.7-11.7-5.2-23.4-7.6-35.2
			c0-0.2,0-0.4-0.1-0.5c-3.3-16.5-6.5-33-9.6-49.4C1302.5,621.4,1301.1,621.7,1301.3,622.6z"/>
		
			<linearGradient id="SVGID_00000180354202649152956200000012578682979264168102_" gradientUnits="userSpaceOnUse" x1="103.7325" y1="-29.8939" x2="54.8341" y2="286.6422" gradientTransform="matrix(1 0 0 -1 0 821.8353)">
			<stop  offset="0" style="stop-color:#2E2E2E"/>
			<stop  offset="1" style="stop-color:#999999"/>
		</linearGradient>
		<path style="fill:url(#SVGID_00000180354202649152956200000012578682979264168102_);" d="M165.7,800.2
			c38.4-70.9,18.7-136.5-5.4-196.9c-6.1-15.4-13.7-30.7-25.7-42.2c-12-11.5-29.1-18.7-45.3-15.3c-18.4,3.8-32.3,20.7-36.1,39.2
			c-3.8,18.4,1.2,37.8,9.9,54.4c-6-6.6-12.1-13.4-20.1-17.4s-18.3-4.7-25.4,0.7c-9.2,7-9.6,20.5-8.1,31.9
			c3.1,23.3,10.7,45.7,22.3,66.1c-4.4-7.2-9-14.4-15.5-19.7c-6.5-5.3-15.5-8.2-23.5-5.5c-7.9,2.8-13.1,10.7-14.7,18.9
			c-1.2,8.3-0.5,16.8,2.2,24.7c30.5,100.8,133.2,112.7,133.2,112.7S142.4,843,165.7,800.2z"/>
		<path class="st20" d="M81,592.9c-0.3-0.7-1.5-0.5-1.2,0.4c14,49.3,28.9,97.5,37.2,148.3c8.5,51.6,9.6,103.4,14.1,155.4
			c0,0.5,0.2,1,0.6,1.3c0.4,0.3,0.9,0.5,1.4,0.5c0.5,0,1-0.2,1.3-0.6c0.4-0.4,0.5-0.9,0.5-1.4c4.7-50.6-2.5-103.3-11.5-153.1
			C114.1,693,102,640.3,81,592.9z"/>
		
			<linearGradient id="SVGID_00000067206712849845548160000006631328334968020406_" gradientUnits="userSpaceOnUse" x1="783.2774" y1="-126.0174" x2="804.0344" y2="156.3826" gradientTransform="matrix(1 0 0 -1 0 821.8353)">
			<stop  offset="0" style="stop-color:#878787"/>
			<stop  offset="1" style="stop-color:#B8B8B8"/>
		</linearGradient>
		<path style="fill:url(#SVGID_00000067206712849845548160000006631328334968020406_);" d="M800.1,873.3
			c73.4-33.2,97.3-97.5,114.6-160.2c4.4-16,7.7-32.8,5-49.2c-2.7-16.4-11.8-32.6-26.8-39.7c-17-8.1-38.3-3-52.4,9.4
			c-14.1,12.4-21.9,30.8-24.9,49.4c-0.7-8.9-1.6-18-5.5-26c-3.9-8-11.7-14.8-20.6-14.8c-11.5,0-20,10.5-25.7,20.5
			c-11.6,20.4-19.1,42.9-22.1,66.2c0.8-8.4,1.6-16.9-0.5-25.1c-2-8.1-7.4-16-15.3-18.5c-7.9-2.6-16.9,0.6-23.1,6.2
			c-6,5.9-10.5,13.1-13.1,21.1c-36.9,98.7,37.8,170.4,37.8,170.4S755.6,893.4,800.1,873.3z"/>
		<path class="st34" d="M817.3,767.9c32-9.6,59.5-34.3,77.3-61.9c0.3-0.5-0.5-0.9-0.8-0.5c-19,27.6-44.4,44.9-74.4,57.8
			c15.8-34.3,29.7-70.1,38.3-106.4c0.2-0.8-0.9-1.3-1.2-0.4c-18.3,46.9-35.2,93.4-58.5,138.2c-7.3-28.7-10.4-58.3-9.4-88
			c0-0.2-0.3-0.2-0.4,0c-1.8,30.2,1.2,60.5,8.9,89.7l-0.4,0.8c-12.5,23.5-26.4,45.9-40.7,67.9c-19.5-35.9-29.9-77.8-25.9-118.7
			c0-0.2-0.2-0.2-0.2,0c-3.8,42.6,2.9,83.6,23.7,121.4c0.1,0.2,0.2,0.4,0.4,0.5c-13.3,20.4-26.8,40.6-39.9,61.2
			c-0.2,0.4-0.2,0.9-0.1,1.3c0.1,0.4,0.4,0.8,0.7,1.1c0.4,0.3,0.8,0.4,1.2,0.4c0.4,0,0.9-0.2,1.2-0.5c24.9-27.2,45.6-59.2,63.7-92
			c35.5-14.5,71.5-32,95.5-62.8c0.3-0.4-0.3-1.1-0.7-0.6c-24.1,30.1-58.6,45.4-93,60.2c6.2-11.2,12-22.5,17.7-33.7
			C806.1,791.5,811.9,779.7,817.3,767.9z"/>
		
			<linearGradient id="SVGID_00000124876581071438454370000017976960179929436558_" gradientUnits="userSpaceOnUse" x1="646.6002" y1="-32.4513" x2="545.6492" y2="71.4586" gradientTransform="matrix(1 0 0 -1 0 821.8353)">
			<stop  offset="0" style="stop-color:#6D6D6D"/>
			<stop  offset="1" style="stop-color:#B6B6B6"/>
		</linearGradient>
		<path style="fill:url(#SVGID_00000124876581071438454370000017976960179929436558_);" d="M672.6,868.5
			c-23.7-14.3-59.3-25.6-88.1-38.5c-37.5-16.7-51.9-50.9-37.3-67.8c14.6-16.9,50.2-11.4,73.2,16.4
			C649.8,814.5,672.6,868.5,672.6,868.5z"/>
		<path class="st36" d="M677.6,874.5c-34.5-35.8-71.6-69-108.7-101.8c-0.3-0.3-0.7,0.2-0.4,0.5c36.4,34,72.8,67.8,107.3,103.5
			C676.4,875.9,677,875.2,677.6,874.5z"/>
		
			<linearGradient id="SVGID_00000122686427169310074010000010331122212354352315_" gradientUnits="userSpaceOnUse" x1="663.4062" y1="-38.6011" x2="661.4724" y2="142.6959" gradientTransform="matrix(1 0 0 -1 0 821.8353)">
			<stop  offset="0" style="stop-color:#6D6D6D"/>
			<stop  offset="1" style="stop-color:#B6B6B6"/>
		</linearGradient>
		<path style="fill:url(#SVGID_00000122686427169310074010000010331122212354352315_);" d="M674.8,884.2
			c-9.2-33.2-31.5-73.8-46.5-110c-19.5-47.1-3.4-90.2,24.2-92.9c27.6-2.7,55,32.6,51.9,77.3C700.4,816,674.8,884.2,674.8,884.2z"/>
		<path class="st36" d="M674.2,893.9c-0.5-61.7-5.5-123.5-11.1-184.7c0-0.5-0.8-0.3-0.7,0.2c3.8,61.7,7.8,123.3,8.3,184.9
			C671.9,894.1,673.1,894,674.2,893.9z"/>
		
			<linearGradient id="SVGID_00000048465028934752364900000005556578838664167865_" gradientUnits="userSpaceOnUse" x1="65.8508" y1="-45.1944" x2="-56.5451" y2="132.0876" gradientTransform="matrix(1 0 0 -1 0 821.8353)">
			<stop  offset="0" style="stop-color:#6D6D6D"/>
			<stop  offset="1" style="stop-color:#B6B6B6"/>
		</linearGradient>
		<path style="fill:url(#SVGID_00000048465028934752364900000005556578838664167865_);" d="M100,868.5
			c-23.7-14.3-59.3-25.6-88.1-38.5c-37.5-16.7-51.9-50.9-37.3-67.8c14.7-16.9,50.2-11.4,73.1,16.4C77.2,814.5,100,868.5,100,868.5z"
			/>
		<path class="st36" d="M105,874.5c-34.5-35.8-71.6-69-108.7-101.8c-0.3-0.3-0.6,0.2-0.3,0.5c36.4,34,72.8,67.8,107.3,103.5
			C103.8,875.9,104.4,875.2,105,874.5z"/>
		
			<linearGradient id="SVGID_00000156575972814114398480000004273623464884817333_" gradientUnits="userSpaceOnUse" x1="105.9726" y1="-22.8821" x2="104.0246" y2="158.4198" gradientTransform="matrix(1 0 0 -1 0 821.8353)">
			<stop  offset="0" style="stop-color:#6D6D6D"/>
			<stop  offset="1" style="stop-color:#ADADAD"/>
		</linearGradient>
		<path style="fill:url(#SVGID_00000156575972814114398480000004273623464884817333_);" d="M117.4,869.1
			c-9.2-33.2-31.5-73.8-46.5-110C51.3,712,67.4,668.9,95,666.2c27.6-2.7,55,32.6,51.9,77.3C143,800.9,117.4,869.1,117.4,869.1z"/>
		<path class="st36" d="M116.8,878.7c-0.5-61.7-5.5-123.5-11.1-184.7c0-0.5-0.8-0.3-0.7,0.2c3.8,61.7,7.8,123.3,8.3,184.9
			L116.8,878.7z"/>
		
			<linearGradient id="SVGID_00000017483514865147213010000004828695090670657954_" gradientUnits="userSpaceOnUse" x1="197.5728" y1="60.7339" x2="404.9521" y2="92.1348" gradientTransform="matrix(1 0 0 -1 0 821.8353)">
			<stop  offset="0" style="stop-color:#666666"/>
			<stop  offset="1" style="stop-color:#BCBCBC"/>
		</linearGradient>
		<path style="fill:url(#SVGID_00000017483514865147213010000004828695090670657954_);" d="M384.1,595.6
			C319.3,621.6,168.8,728.8,220,895c0,0,92.9-23.7,127.3-123.9C370.4,704.1,384.4,628.4,384.1,595.6z"/>
		<path class="st41" d="M219.6,947.8c1.2-38.7,9.3-74.6,22.1-109.5h0.2c27.2-8.8,54.8-13.8,82.8-19.2c0.1,0,0.1,0,0.2-0.1
			c0,0,0.1-0.1,0.1-0.2c0-0.1,0-0.1-0.1-0.2c0,0-0.1-0.1-0.2-0.1c-27.6,0-54.8,6-81,14.1c0.2-0.5,0.4-1.1,0.6-1.7
			c14.5-4.2,28.7-9.3,43.4-12.7c14-3.3,28.3-4.6,42.1-7.7c0.6-0.1,0.7-1.1,0-1.2c-26.8-0.9-58.4,5.8-83.7,16.7
			c6.2-15.6,13.4-31.1,21.3-46.5c0.9-1.8,1.9-3.6,2.9-5.4c28.4-10.8,57.3-18.7,86.1-27.9c0.7-0.2,0.3-1.2-0.3-1.1
			C328,749,300,758,273.5,768.6c1.8-3.4,3.5-6.8,5.3-10.2c27.5-9.7,54.5-20.6,82.4-29.3c0.2,0,0.1-0.3,0-0.3
			c-27.2,6.7-54.8,14.5-80.5,26c3.5-6.5,7-13,10.7-19.4c0.3-0.1,0.5-0.3,0.6-0.6c0.1-0.3,0.2-0.6,0.2-0.9
			c21.3-38.5,45.5-75.3,72.5-110c0.4-0.5-0.3-1-0.7-0.6c-23.2,28.1-44.4,57.7-63.4,88.8c0.3-16.1-6-34.5-14-47.5
			c-0.2-0.4-0.7,0-0.6,0.3c2.8,9.1,5.9,18.3,7.9,27.6c1.7,8.2,1.8,16.6,3.6,24.7c-2.1,3.5-4.1,6.9-6.2,10.4
			c-3.3-19.9-5.2-39.6-14.2-58.1c0-0.1-0.3,0-0.2,0c7.4,20.1,8.4,41.7,11.7,62.6c-9.2,15.7-18,31.7-26.4,47.9
			c-5.4,10.4-10.5,20.9-15.3,31.5c-2.8-8-8.3-14.8-12.2-22.4c-4.3-8.7-8.1-17.6-11.5-26.7c-0.2-0.4-0.5-0.8-0.9-1
			c-0.4-0.2-0.9-0.3-1.3-0.3c-0.5,0.1-0.9,0.3-1.2,0.6c-0.3,0.3-0.6,0.8-0.6,1.2c-1,8.7,3.9,19.6,7.7,27.2c4.4,9,9.7,19.9,17.6,26.2
			l0.3,0.2c-18.1,41.4-30.1,84.4-29.2,130.9C215.5,950.2,219.6,950.2,219.6,947.8z"/>
		
			<linearGradient id="SVGID_00000049223176828050057350000010290426642586954895_" gradientUnits="userSpaceOnUse" x1="162.8924" y1="-57.746" x2="261.1824" y2="378.111" gradientTransform="matrix(1 0 0 -1 0 821.8353)">
			<stop  offset="0" style="stop-color:#6D6D6D"/>
			<stop  offset="1" style="stop-color:#B6B6B6"/>
		</linearGradient>
		<path style="fill:url(#SVGID_00000049223176828050057350000010290426642586954895_);" d="M159,897.1c0,0-17.8-138.4-5.3-234.9
			c7.7-59.2,19.3-128.3,61.1-170.9c32.7-33.4,69.8-7.3,76,31.4c8.6,53.7-13.9,128.9-31.4,179.7C225.1,801.7,159,897.1,159,897.1z"/>
		<path class="st41" d="M281.8,571.3c-27.3,23.9-52.8,49.7-76.3,77.3c1.1-4.8,2.2-9.6,3.3-14.4c24.6-28.8,50.5-56.6,77.4-83.3
			c0-0.1,0-0.2-0.1-0.2c-26.7,24.5-52.1,50.5-76,77.8c10.6-43.7,22.9-86.9,35.4-130.1c0-0.3-0.4-0.6-0.5-0.2
			c-3.9,12.5-7.8,24.9-11.5,37.4c0.4-12.4,0.3-24.8-0.3-37.1c0,0,0-0.1,0-0.1c0,0,0,0-0.1,0c0,0-0.1,0-0.1,0c0,0,0,0,0,0.1
			c0.4,13.2,0.3,26.4-0.3,39.7c-14.6,48.3-28,96.8-38.3,146.3c-1.6-42.7-5.5-85.3-11.7-127.6c0,0,0,0,0-0.1s0,0-0.1,0c0,0,0,0-0.1,0
			s0,0,0,0.1c5.7,44.1,8.9,88.4,10.8,132.8c-1.1,5.3-2.1,10.7-3.2,16.1l-2.5,13.4c-1.8-46.7-9.1-93.3-12.3-139.9c0,0,0-0.1,0-0.1
			c0,0-0.1,0-0.1,0c0,0-0.1,0-0.1,0c0,0,0,0.1,0,0.1c4.5,48.9,4.4,98.7,11.1,147.4c-12.5,66.6-25.6,133.5-33.8,200.6
			c0,0.3,0,0.6,0.2,0.8c0.2,0.2,0.4,0.4,0.7,0.4c0.3,0,0.6,0,0.8-0.2c0.2-0.2,0.4-0.4,0.4-0.7c11.5-51.5,19.5-103.9,27.9-156.1
			c28.4-15,49.1-43.3,68.2-68.2c0-0.1,0.1-0.2,0-0.3c0-0.1-0.1-0.2-0.1-0.2c-0.1-0.1-0.2-0.1-0.2-0.1c-0.1,0-0.2,0-0.2,0.1
			c-20.2,25.1-40.8,47.4-67.2,65.7l2.6-16.4c27.5-22.5,50.5-49.5,71.1-78.3c0-0.1-0.1-0.3-0.2-0.2c-20.3,27.6-44.6,51.8-70.3,74.5
			c2.1-12.5,4.2-24.9,6.4-37.3c3.4-19.3,7.4-38.6,11.7-57.7c24.2-28.7,50.1-56,77.6-81.6C282.2,571.4,281.9,571.1,281.8,571.3z"/>
		
			<linearGradient id="SVGID_00000107585845282824279830000005360852352990547641_" gradientUnits="userSpaceOnUse" x1="1105.5153" y1="-145.3064" x2="1259.4752" y2="172.0516" gradientTransform="matrix(1 0 0 -1 0 821.8353)">
			<stop  offset="0" style="stop-color:#6D6D6D"/>
			<stop  offset="1" style="stop-color:#B6B6B6"/>
		</linearGradient>
		<path style="fill:url(#SVGID_00000107585845282824279830000005360852352990547641_);" d="M1285.4,632
			c-64.9,26-215.2,133.2-164.1,299.4c0,0,92.9-23.7,127.3-123.9C1271.7,740.5,1285.6,664.9,1285.4,632z"/>
		<path class="st41" d="M1120.9,984.2c1.2-38.6,9.3-74.6,22.1-109.5c0.1,0,0.2,0,0.2,0c27.2-8.8,54.8-13.7,82.8-19.2
			c0,0,0.1-0.1,0.1-0.1c0,0,0-0.1,0-0.2c0,0,0-0.1,0-0.1c0,0-0.1-0.1-0.1-0.1c-27.6,0-54.8,6-81,14.2c0.2-0.6,0.4-1.1,0.6-1.7
			c14.5-4.2,28.7-9.3,43.4-12.7c14-3.3,28.3-4.6,42.2-7.7c0.6-0.1,0.7-1.2,0-1.2c-26.8-0.9-58.4,5.8-83.7,16.6
			c6.3-15.6,13.4-31.1,21.3-46.5c0.9-1.8,1.9-3.6,2.8-5.4c28.3-10.8,57.3-18.7,86.1-27.9c0.6-0.2,0.3-1.2-0.3-1.1
			c-28.3,3.7-56.3,12.7-82.8,23.3c1.8-3.4,3.5-6.8,5.3-10.2c27.6-9.7,54.5-20.6,82.4-29.3c0.2,0,0.1-0.3,0-0.3
			c-27.1,6.7-54.8,14.5-80.5,26c3.5-6.5,7-13,10.7-19.4c0.3-0.1,0.5-0.3,0.6-0.6s0.2-0.6,0.2-0.8c21.3-38.5,45.5-75.3,72.5-110
			c0.4-0.5-0.4-1-0.8-0.6c-23.2,28-44.4,57.7-63.4,88.8c0.3-16.1-6-34.5-14-47.5c-0.2-0.4-0.7,0-0.6,0.3c2.8,9.1,5.9,18.3,7.9,27.6
			c1.7,8.2,1.8,16.6,3.5,24.7c-2.1,3.5-4.1,6.9-6.2,10.4c-3.3-19.9-5.2-39.6-14.2-58.1c0-0.1-0.3,0-0.2,0.1
			c7.3,20.1,8.4,41.7,11.6,62.6c-9.2,15.7-17.9,31.7-26.3,47.9c-5.4,10.4-10.5,20.9-15.3,31.5c-2.8-7.9-8.3-14.8-12.2-22.4
			c-4.3-8.7-8.2-17.6-11.5-26.7c-0.2-0.4-0.5-0.8-0.9-1c-0.4-0.2-0.9-0.3-1.3-0.3c-0.5,0.1-0.9,0.3-1.2,0.6
			c-0.3,0.3-0.6,0.8-0.6,1.2c-1,8.7,3.9,19.6,7.7,27.1c4.5,9.1,9.7,19.9,17.6,26.2c0.1,0.1,0.2,0.1,0.3,0.2
			c-18.2,41.5-30.1,84.3-29.2,130.9C1116.8,986.6,1120.8,986.7,1120.9,984.2z"/>
		
			<linearGradient id="SVGID_00000152244086313768389090000017255335952455371665_" gradientUnits="userSpaceOnUse" x1="1119.1731" y1="16.256" x2="909.5142" y2="22.536" gradientTransform="matrix(1 0 0 -1 0 821.8353)">
			<stop  offset="0" style="stop-color:#6D6D6D"/>
			<stop  offset="1" style="stop-color:#B6B6B6"/>
		</linearGradient>
		<path style="fill:url(#SVGID_00000152244086313768389090000017255335952455371665_);" d="M912.6,663.4
			c67.5,18.2,229.5,106.9,198.2,278c0,0-95-12.6-141-108C939.1,769.5,916.2,696.1,912.6,663.4z"/>
		<path class="st41" d="M1117.5,993.8c-5.7-38.3-18.1-73-34.9-106.1h-0.3c-28.1-5.6-56-7.2-84.5-9.2c-0.1,0-0.1,0-0.2-0.1
			c0,0-0.1-0.1-0.1-0.2c0-0.1,0-0.1,0.1-0.2c0,0,0.1-0.1,0.2-0.1c27.4-3.3,55.1-0.5,82.1,4.5c-0.3-0.5-0.5-1.1-0.8-1.6
			c-14.9-2.4-29.6-5.8-44.6-7.5c-14.3-1.6-28.6-1.2-42.8-2.6c-0.6,0-0.9-1-0.2-1.2c26.5-4.1,58.7-1.1,85.1,6.7
			c-8.1-14.8-16.9-29.3-26.6-43.7l-3.5-5.1c-29.4-7.3-59.1-11.8-88.8-17.5c-0.7-0.1-0.5-1.2,0.2-1.2c28.5,0.3,57.5,6,85,13.4
			c-2.2-3.2-4.3-6.4-6.5-9.6c-28.5-6.4-56.5-14-85.3-19.3c-0.2,0-0.1-0.3,0-0.3c27.8,3.5,56.2,7.9,83,16.3c-4.2-6-8.5-12-12.9-18
			c-0.3-0.1-0.5-0.3-0.7-0.5c-0.2-0.2-0.3-0.5-0.3-0.8c-25.6-35.7-54-69.4-84.9-100.6c-0.4-0.4,0.2-1.1,0.7-0.7
			c26.4,25.1,50.9,52.1,73.4,80.7c-2.2-15.9,1.9-34.9,8.3-48.8c0.2-0.4,0.7,0,0.6,0.3c-1.7,9.4-3.7,18.9-4.5,28.4
			c-0.8,8.3,0.2,16.7-0.6,24.9c2.5,3.2,4.9,6.4,7.4,9.6c1-20.2,0.5-39.9,7.2-59.4c0,0,0-0.1,0-0.1c0,0,0.1,0,0.1,0s0.1,0,0.1,0
			c0,0,0,0.1,0,0.1c-4.9,20.8-3.4,42.4-4.2,63.6c11,14.5,21.6,29.3,31.8,44.4c6.6,9.7,12.9,19.5,18.9,29.4
			c1.9-8.2,6.5-15.7,9.4-23.6c3.2-9.1,6-18.3,8.2-27.7c0.1-0.4,0.4-0.8,0.8-1.1c0.4-0.3,0.8-0.4,1.3-0.4c0.5,0,0.9,0.2,1.3,0.4
			c0.4,0.3,0.7,0.7,0.8,1.1c1.9,8.5-1.6,19.9-4.4,27.9c-3.3,9.6-7.3,20.9-14.4,28.1c-0.1,0.1-0.2,0.1-0.3,0.2
			c23,39,39.8,80.2,44.4,126.5C1121.9,995.6,1117.8,996.2,1117.5,993.8z"/>
		
			<linearGradient id="SVGID_00000061450520986599971990000018402747427309104004_" gradientUnits="userSpaceOnUse" x1="1220.1049" y1="-20.2411" x2="1329.1249" y2="76.599" gradientTransform="matrix(1 0 0 -1 0 821.8353)">
			<stop  offset="0" style="stop-color:#6D6D6D"/>
			<stop  offset="1" style="stop-color:#B6B6B6"/>
		</linearGradient>
		<path style="fill:url(#SVGID_00000061450520986599971990000018402747427309104004_);" d="M1210.1,862.7
			c15.3-23,28.3-58.1,42.4-86.3c18.3-36.7,53.1-49.7,69.3-34.3c16.2,15.4,9.2,50.7-19.7,72.4
			C1265.1,842.3,1210.1,862.7,1210.1,862.7z"/>
		<path class="st36" d="M1204,867.4c37.2-32.8,72.2-68.5,106.5-104.1c0.3-0.3-0.2-0.7-0.5-0.4c-35.6,34.8-70.9,69.8-108.1,102.6
			L1204,867.4z"/>
		
			<linearGradient id="SVGID_00000020379308960411545510000004667905906237857444_" gradientUnits="userSpaceOnUse" x1="1103.2659" y1="-48.0178" x2="1064.2358" y2="128.9212" gradientTransform="matrix(1 0 0 -1 0 821.8353)">
			<stop  offset="0" style="stop-color:#6D6D6D"/>
			<stop  offset="1" style="stop-color:#ADADAD"/>
		</linearGradient>
		<path style="fill:url(#SVGID_00000020379308960411545510000004667905906237857444_);" d="M1119.4,893.5
			c-15.7-30.7-45.7-65.9-67.7-98.3c-28.6-42.2-21.5-87.7,5-95.8c26.5-8.2,60.5,20.9,66.4,65.3
			C1130.7,821.6,1119.4,893.5,1119.4,893.5z"/>
		<path class="st36" d="M1120.7,903.1c-12.9-60.3-30.2-119.8-48-178.6c-0.1-0.5-0.8-0.2-0.7,0.3c16.1,59.6,32.6,119.2,45.4,179.4
			C1118.5,903.8,1119.6,903.5,1120.7,903.1z"/>
		
			<linearGradient id="SVGID_00000029766347415907057760000011481775926605990333_" gradientUnits="userSpaceOnUse" x1="856.0197" y1="-35.576" x2="981.4197" y2="95.3901" gradientTransform="matrix(1 0 0 -1 0 821.8353)">
			<stop  offset="0" style="stop-color:#6D6D6D"/>
			<stop  offset="1" style="stop-color:#B6B6B6"/>
		</linearGradient>
		<path style="fill:url(#SVGID_00000029766347415907057760000011481775926605990333_);" d="M848.3,881.8
			c16.6-30.2,29-74.8,43.5-111.2c18.9-47.4,60.6-66.9,82.2-49.6c21.6,17.4,16.6,61.8-16.9,91.6C914.1,851,848.3,881.8,848.3,881.8z"
			/>
		<path class="st36" d="M841.1,888.3c42.7-44.5,82.3-92.2,121-139.8c0.3-0.4-0.3-0.8-0.6-0.4c-40.4,46.7-80.5,93.6-123.2,138
			C839.2,886.9,840.2,887.6,841.1,888.3z"/>
		
			<radialGradient id="SVGID_00000022523102586470282770000005618521830352667554_" cx="219.8644" cy="911.0205" r="1" gradientTransform="matrix(1622.4399 0 0 -1623.5699 -355258.7188 1478982)" gradientUnits="userSpaceOnUse">
			<stop  offset="0" style="stop-color:#E5E5E5"/>
			<stop  offset="0.52" style="stop-color:#E3E3E3;stop-opacity:0.49"/>
			<stop  offset="1" style="stop-color:#E1E1E1;stop-opacity:0"/>
		</radialGradient>
		<path style="opacity:0.51;fill:url(#SVGID_00000022523102586470282770000005618521830352667554_);enable-background:new    ;" d="
			M1392.1-39.6H-44.7v872h1436.8V-39.6z"/>
		
			<linearGradient id="SVGID_00000152254837960137811330000016122073982780885121_" gradientUnits="userSpaceOnUse" x1="1094.9705" y1="1062.7407" x2="499.7545" y2="254.1969" gradientTransform="matrix(1 0 0 -1 0 821.8353)">
			<stop  offset="0" style="stop-color:#EFEFEF"/>
			<stop  offset="0.5" style="stop-color:#EEEEEE;stop-opacity:0.49"/>
			<stop  offset="1" style="stop-color:#EDEDED;stop-opacity:0"/>
		</linearGradient>
		<path style="opacity:0.44;fill:url(#SVGID_00000152254837960137811330000016122073982780885121_);enable-background:new    ;" d="
			M1395.2-179.3L714.4,990.7h-422L1296.7-179.3H1395.2z M1465.7-142.2L805.5,1068.7l114.2,9l574.1-1208.6L1465.7-142.2z M378-195.1
			L-53.4,238.7l-8,167c0,0,499.1-565.3,502.2-572.7L378-195.1z M526.7-164.4l-640.8,787.3l76.6,67.1l631.2-854.5L526.7-164.4z
			 M843.7-164.4C833.5-157-74.6,859.3-74.6,859.3l189,121.5L895.3-179.3L843.7-164.4z"/>
	</g>
</mask>
<g class="st50">
	<rect y="10.9" class="st51" width="1440" height="754"/>
</g>
</svg>
