<?xml version="1.0" encoding="UTF-8"?><svg id="Layer_2" xmlns="http://www.w3.org/2000/svg" viewBox="0 0 524.55 143.95"><defs><style>.cls-1{fill:#002a8a;}</style></defs><g id="Layer_1-2"><g><path class="cls-1" d="M131.53,4.47l-4.8-4.47-8.93,9.6,4.8,4.46c14.22,13.24,22.38,31.97,22.38,51.39,0,28.19-16.45,53.17-42.14,64.36-3.68-1.6-7.17-3.5-10.45-5.64-2.42,3.28-6.04,6.94-9.69,9.27,5.42,3.82,11.35,7.05,17.74,9.56l2.4,.94,2.4-.94c32.1-12.63,52.85-43.07,52.85-77.56,0-23.04-9.68-45.27-26.56-60.98Z"/><path class="cls-1" d="M110.49,65.45c0-23.04-9.68-45.27-26.56-60.98l-4.8-4.47-.09,.09-.09-.09-4.8,4.47c-16.88,15.71-26.56,37.94-26.56,60.98,0,19.67,6.76,38.01,18.51,52.5,3.22-1.8,6.94-4.91,9.85-8.7-9.69-12.14-15.25-27.42-15.25-43.8,0-17.48,6.63-34.4,18.34-47.26,11.7,12.86,18.34,29.78,18.34,47.26,0,28.19-16.45,53.17-42.14,64.36C29.56,118.62,13.11,93.64,13.11,65.45c0-19.42,8.16-38.14,22.38-51.39l4.8-4.47L31.36,0l-4.8,4.47C9.68,20.18,0,42.41,0,65.45c0,34.48,20.74,64.92,52.85,77.56l2.4,.94,2.4-.94c32.1-12.63,52.85-43.07,52.85-77.56Z"/></g><g><g><path class="cls-1" d="M181.26,74.84v-.77l1.54-.62c1.03-.36,1.7-.84,2.04-1.46,.33-.61,.5-1.41,.5-2.38V29.44c0-1.02-.17-1.84-.5-2.46-.33-.61-1.01-1.1-2.04-1.46l-1.54-.61v-.77h19.51v.77l-1.31,.54c-.97,.36-1.64,.83-2,1.42-.36,.59-.54,1.4-.54,2.42v18.67h18.36V29.29c0-1.02-.17-1.83-.5-2.42-.33-.59-1.01-1.06-2.04-1.42l-1.38-.54v-.77h19.59v.77l-1.54,.61c-.97,.36-1.64,.85-2,1.46-.36,.61-.54,1.43-.54,2.46v40.17c0,.97,.18,1.77,.54,2.38,.36,.61,1.03,1.1,2,1.46l1.54,.62v.77h-19.59v-.77l1.38-.46c1.02-.41,1.7-.91,2.04-1.5,.33-.59,.5-1.39,.5-2.42v-20.2h-18.36v20.2c0,1.9,.85,3.2,2.54,3.92l1.31,.46v.77h-19.51Z"/><path class="cls-1" d="M287.8,76.22c-3.12,0-6.13-.56-9.03-1.69-2.89-1.13-5.48-2.8-7.76-5.03-2.28-2.23-4.08-5.01-5.42-8.33-1.33-3.33-2-7.22-2-11.68s.67-8.27,2-11.6c1.33-3.33,3.15-6.11,5.45-8.33,2.31-2.23,4.9-3.92,7.8-5.07,2.89-1.15,5.88-1.73,8.95-1.73s6.13,.55,9.03,1.65c2.89,1.1,5.48,2.77,7.76,4.99,2.28,2.23,4.08,5.02,5.41,8.37s2,7.26,2,11.71-.67,8.21-2,11.56c-1.33,3.35-3.14,6.14-5.41,8.37-2.28,2.23-4.87,3.92-7.76,5.07-2.89,1.15-5.9,1.73-9.03,1.73Zm0-1.61c2.82,0,5.1-.76,6.84-2.27,1.74-1.51,3.01-4.1,3.8-7.76,.79-3.66,1.19-8.69,1.19-15.09s-.4-11.51-1.19-15.17c-.8-3.66-2.06-6.25-3.8-7.76-1.74-1.51-4.02-2.27-6.84-2.27s-5.02,.76-6.76,2.27c-1.74,1.51-3.01,4.1-3.8,7.76-.79,3.66-1.19,8.72-1.19,15.17s.4,11.43,1.19,15.09c.79,3.66,2.06,6.25,3.8,7.76,1.74,1.51,3.99,2.27,6.76,2.27Z"/><path class="cls-1" d="M344.64,74.84v-.77l1.54-.62c1.03-.36,1.7-.84,2.04-1.46,.33-.61,.5-1.43,.5-2.46V29.44c0-1.02-.15-1.84-.46-2.46-.31-.61-1-1.1-2.08-1.46l-1.54-.61v-.77h19.74v.77l-1.54,.61c-1.03,.36-1.7,.85-2.04,1.46s-.5,1.43-.5,2.46v40.1c0,1.03,.17,1.83,.5,2.42,.33,.59,1.01,1.09,2.04,1.5l1.54,.62v.77h-19.74Z"/><path class="cls-1" d="M397.42,74.84v-.77l1.92-.69c1.03-.41,1.82-.91,2.38-1.5,.56-.59,1.02-1.42,1.38-2.5l15.83-45.4h6.53l15.59,45.7c.41,1.13,.87,1.99,1.38,2.57,.51,.59,1.31,1.09,2.38,1.5l.92,.31v.77h-19.51v-.77l1.15-.38c1.08-.41,1.73-.99,1.96-1.73,.23-.74,.19-1.62-.12-2.65l-3.61-11.06h-17.05l-3.69,10.83c-.36,1.13-.48,2.02-.35,2.69,.13,.67,.73,1.2,1.8,1.61l1.69,.69v.77h-10.6Zm11.68-18.13h16.05l-7.76-23.89-8.3,23.89Z"/><path class="cls-1" d="M479.84,74.84v-.77l2.54-.77c.92-.25,1.59-.76,2-1.5s.62-1.63,.62-2.65V32.21c-.56-1.23-1.01-2.15-1.34-2.77-.33-.61-.7-1.14-1.11-1.58-.41-.43-.97-.98-1.69-1.65l-1.31-1.31v-.77h13.6l25.5,34.8V29.98c0-1.02-.17-1.95-.5-2.77-.33-.82-1.01-1.36-2.04-1.61l-2.53-.69v-.77h10.98v.77l-2.07,.69c-.92,.31-1.49,.84-1.69,1.61-.2,.77-.31,1.66-.31,2.69v45.17h-4.3l-29.34-40.33v34.41c0,1.03,.15,1.9,.46,2.61,.31,.72,.95,1.23,1.92,1.54l2.31,.77v.77h-11.68Z"/></g><g><path class="cls-1" d="M187.92,120.67l-6.18-20.79c-.16-.54-.34-.93-.52-1.17-.19-.24-.51-.47-.98-.68l-.42-.18v-.35h9.26v.35l-.73,.28c-.54,.21-.9,.47-1.08,.77-.19,.3-.2,.72-.03,1.26l3.81,14.53,4.12-12.19-.8-2.48c-.16-.49-.31-.86-.45-1.12s-.37-.47-.7-.63l-.77-.42v-.35h8.77v.35l-1.08,.42c-.47,.16-.73,.4-.79,.72-.06,.31,0,.72,.16,1.2l4.44,14.85,4.19-14.57c.16-.56,.22-1.05,.17-1.47-.05-.42-.34-.72-.87-.91l-.73-.24v-.35h4.86v.35l-.91,.35c-.47,.16-.79,.42-.98,.77-.19,.35-.35,.78-.49,1.29l-5.8,20.4h-2.41l-5.24-16.42-5.38,16.42h-2.41Z"/><path class="cls-1" d="M228.55,121.19c-1.42,0-2.79-.26-4.11-.77-1.32-.51-2.49-1.28-3.53-2.29s-1.86-2.28-2.46-3.79c-.61-1.51-.91-3.28-.91-5.31s.3-3.76,.91-5.27c.61-1.51,1.43-2.78,2.48-3.79,1.05-1.01,2.23-1.78,3.55-2.31,1.32-.52,2.67-.79,4.07-.79s2.79,.25,4.11,.75,2.49,1.26,3.53,2.27c1.04,1.01,1.86,2.28,2.46,3.81,.61,1.52,.91,3.3,.91,5.33s-.3,3.73-.91,5.26c-.61,1.53-1.43,2.79-2.46,3.81-1.04,1.01-2.21,1.78-3.53,2.31s-2.68,.79-4.11,.79Zm0-.73c1.28,0,2.32-.34,3.11-1.03,.79-.69,1.37-1.86,1.73-3.53,.36-1.66,.54-3.95,.54-6.86s-.18-5.23-.54-6.9c-.36-1.66-.94-2.84-1.73-3.53-.79-.69-1.83-1.03-3.11-1.03s-2.28,.34-3.07,1.03-1.37,1.86-1.73,3.53c-.36,1.67-.54,3.97-.54,6.9s.18,5.2,.54,6.86c.36,1.67,.94,2.84,1.73,3.53,.79,.69,1.82,1.03,3.07,1.03Z"/><path class="cls-1" d="M247.07,120.56v-.35l1.15-.35c.42-.12,.72-.34,.91-.68,.19-.34,.28-.74,.28-1.2v-16.8c-.26-.56-.46-.98-.61-1.26-.15-.28-.32-.52-.51-.72-.19-.2-.44-.45-.77-.75l-.59-.59v-.35h6.18l11.6,15.83v-13.17c0-.46-.08-.88-.23-1.26-.15-.37-.46-.62-.93-.73l-1.15-.31v-.35h5v.35l-.94,.31c-.42,.14-.67,.38-.77,.73-.09,.35-.14,.76-.14,1.22v20.54h-1.96l-13.35-18.34v15.65c0,.47,.07,.86,.21,1.19,.14,.33,.43,.56,.87,.7l1.05,.35v.35h-5.31Z"/><path class="cls-1" d="M275.37,120.56v-.35l.73-.28c.74-.3,1.12-.9,1.12-1.78v-18.24c0-.93-.37-1.52-1.12-1.78l-.73-.28v-.35h9.22c2.47,0,4.59,.46,6.38,1.38,1.78,.92,3.16,2.24,4.12,3.95,.97,1.71,1.45,3.77,1.45,6.17s-.52,4.53-1.57,6.25c-1.05,1.72-2.51,3.04-4.38,3.95s-4.08,1.36-6.62,1.36h-8.59Zm7.09-.7h1.5c1.68,0,3.03-.33,4.05-1,1.02-.66,1.77-1.78,2.25-3.35,.48-1.57,.72-3.73,.72-6.48s-.24-4.91-.72-6.48c-.48-1.57-1.22-2.69-2.22-3.35s-2.32-1-3.95-1h-1.64v21.66Z"/><path class="cls-1" d="M303.46,120.56v-.35l.8-.31c.4-.16,.67-.38,.82-.65,.15-.27,.23-.63,.23-1.1v-18.24c0-.46-.06-.83-.19-1.1s-.41-.48-.85-.65l-.8-.31v-.35h16.73l.21,5.38h-.35l-1.5-3.28c-.21-.42-.43-.76-.66-1.01s-.58-.38-1.05-.38h-6.29v10.1h3.74c.46,0,.82-.12,1.06-.37s.46-.58,.65-1l.7-1.4h.35v6.29h-.35l-.7-1.47c-.21-.42-.43-.75-.66-1-.23-.24-.58-.37-1.05-.37h-3.74v10.86h7.06c.47,0,.83-.12,1.08-.37,.26-.24,.47-.59,.63-1.03l1.43-3.28h.35l-.21,5.38h-17.43Z"/><path class="cls-1" d="M329.14,120.56v-.35l.73-.24c.47-.16,.77-.38,.91-.65,.14-.27,.21-.65,.21-1.14v-18.27c0-.46-.07-.83-.19-1.1-.13-.27-.41-.48-.86-.65l-.8-.31v-.35h9.99c2.75,0,4.86,.52,6.32,1.55,1.47,1.04,2.2,2.47,2.2,4.31,0,1.03-.38,2.05-1.15,3.07-.77,1.03-1.98,1.82-3.63,2.38l4.86,9.64c.21,.4,.45,.72,.72,.96,.27,.24,.62,.46,1.07,.65l.45,.17v.31h-6.25l-5.17-11.01h-2.38v8.63c0,.44,.07,.8,.21,1.08,.14,.28,.43,.49,.87,.63l.84,.31v.35h-8.94Zm7.02-11.7h1.68c1.68,0,2.89-.45,3.63-1.35,.75-.9,1.12-2.23,1.12-4s-.35-3.13-1.05-4c-.7-.87-1.87-1.31-3.53-1.31h-1.85v10.66Z"/><path class="cls-1" d="M375.64,120.56v-.35l1.43-.35c.96-.21,1.43-.79,1.43-1.75v-19.91h-2.97c-.86,0-1.48,.23-1.85,.68s-.77,1.08-1.19,1.87l-1.26,2.44h-.35l.17-5.69h20.16l.14,5.69h-.35l-1.26-2.44c-.4-.79-.78-1.42-1.15-1.87s-.99-.68-1.85-.68h-2.97v19.91c0,.96,.48,1.54,1.43,1.75l1.43,.35v.35h-11.01Z"/><path class="cls-1" d="M399.15,120.56v-.35l.73-.24c.47-.16,.77-.38,.91-.65,.14-.27,.21-.65,.21-1.14v-18.27c0-.46-.07-.83-.19-1.1-.13-.27-.41-.48-.86-.65l-.8-.31v-.35h9.99c2.75,0,4.86,.52,6.32,1.55,1.47,1.04,2.2,2.47,2.2,4.31,0,1.03-.38,2.05-1.15,3.07-.77,1.03-1.98,1.82-3.63,2.38l4.86,9.64c.21,.4,.45,.72,.72,.96,.27,.24,.62,.46,1.07,.65l.45,.17v.31h-6.25l-5.17-11.01h-2.38v8.63c0,.44,.07,.8,.21,1.08,.14,.28,.43,.49,.87,.63l.84,.31v.35h-8.94Zm7.02-11.7h1.68c1.68,0,2.89-.45,3.63-1.35,.75-.9,1.12-2.23,1.12-4s-.35-3.13-1.05-4c-.7-.87-1.87-1.31-3.53-1.31h-1.85v10.66Z"/><path class="cls-1" d="M427.24,120.56v-.35l.87-.31c.47-.19,.83-.41,1.08-.68,.26-.27,.47-.65,.63-1.13l7.2-20.65h2.97l7.09,20.79c.19,.51,.4,.9,.63,1.17,.23,.27,.59,.49,1.08,.68l.42,.14v.35h-8.87v-.35l.52-.17c.49-.19,.79-.45,.89-.79,.1-.34,.09-.74-.05-1.2l-1.64-5.03h-7.76l-1.68,4.93c-.16,.51-.22,.92-.16,1.22,.06,.3,.33,.55,.82,.73l.77,.31v.35h-4.82Zm5.31-8.25h7.3l-3.53-10.86-3.77,10.86Z"/><path class="cls-1" d="M461.93,120.67l-7.48-20.82c-.16-.47-.38-.83-.65-1.1-.27-.27-.63-.47-1.1-.61l-.84-.28v-.35h10.06v.35l-1.08,.31c-.54,.14-.83,.38-.89,.73-.06,.35,0,.78,.16,1.29l5.17,15.34,5.21-15.37c.19-.53,.27-.98,.26-1.33-.01-.35-.28-.59-.82-.73l-.91-.24v-.35h4.89v.35l-.94,.28c-.44,.12-.76,.32-.94,.61s-.36,.67-.52,1.14l-6.99,20.79h-2.59Z"/><path class="cls-1" d="M481.14,120.56v-.35l.8-.31c.4-.16,.67-.38,.82-.65,.15-.27,.23-.63,.23-1.1v-18.24c0-.46-.07-.83-.19-1.1s-.41-.48-.86-.65l-.8-.31v-.35h16.73l.21,5.38h-.35l-1.5-3.28c-.21-.42-.43-.76-.66-1.01s-.58-.38-1.05-.38h-6.29v10.1h3.74c.47,0,.82-.12,1.07-.37s.46-.58,.65-1l.7-1.4h.35v6.29h-.35l-.7-1.47c-.21-.42-.43-.75-.66-1-.23-.24-.58-.37-1.05-.37h-3.74v10.86h7.06c.47,0,.83-.12,1.08-.37s.47-.59,.63-1.03l1.43-3.28h.35l-.21,5.38h-17.43Z"/><path class="cls-1" d="M506.82,120.56v-.35l.73-.28c.49-.19,.8-.41,.93-.68,.13-.27,.19-.63,.19-1.1v-18.24c0-.46-.07-.84-.21-1.12-.14-.28-.44-.5-.91-.66l-.73-.28v-.35h8.91v.35l-.63,.28c-.44,.16-.75,.39-.91,.68s-.24,.67-.24,1.13v19.91h5.38c.86,0,1.5-.21,1.9-.63,.41-.42,.8-1.03,1.17-1.82l1.36-2.93h.35l-.31,6.08h-16.98Z"/></g></g></g></svg>