<?xml version="1.0" encoding="UTF-8"?><svg id="Layer_2" xmlns="http://www.w3.org/2000/svg" viewBox="0 0 158.09 143.95"><defs><style>.cls-1{fill:#002a8a;}</style></defs><g id="Layer_1-2"><g><path class="cls-1" d="M131.53,4.47l-4.8-4.47-8.93,9.6,4.8,4.46c14.22,13.24,22.38,31.97,22.38,51.39,0,28.19-16.45,53.17-42.14,64.36-3.68-1.6-7.17-3.5-10.45-5.64-2.42,3.28-6.04,6.94-9.69,9.27,5.42,3.82,11.35,7.05,17.74,9.56l2.4,.94,2.4-.94c32.1-12.63,52.85-43.07,52.85-77.56,0-23.04-9.68-45.27-26.56-60.98Z"/><path class="cls-1" d="M110.49,65.45c0-23.04-9.68-45.27-26.56-60.98l-4.8-4.47-.09,.09-.09-.09-4.8,4.47c-16.88,15.71-26.56,37.94-26.56,60.98,0,19.67,6.76,38.01,18.51,52.5,3.22-1.8,6.94-4.91,9.85-8.7-9.69-12.14-15.25-27.42-15.25-43.8,0-17.48,6.63-34.4,18.34-47.26,11.7,12.86,18.34,29.78,18.34,47.26,0,28.19-16.45,53.17-42.14,64.36C29.56,118.62,13.11,93.64,13.11,65.45c0-19.42,8.16-38.14,22.38-51.39l4.8-4.47L31.36,0l-4.8,4.47C9.68,20.18,0,42.41,0,65.45c0,34.48,20.74,64.92,52.85,77.56l2.4,.94,2.4-.94c32.1-12.63,52.85-43.07,52.85-77.56Z"/></g></g></svg>