<?xml version="1.0" encoding="UTF-8"?><svg id="Layer_2" xmlns="http://www.w3.org/2000/svg" viewBox="0 0 524.55 143.95"><defs><style>.cls-1{fill:#002a8a;}.cls-2{fill:none;stroke:#002a8a;stroke-miterlimit:10;}</style></defs><g id="Layer_1-2"><g><g><path class="cls-1" d="M131.53,4.47l-4.8-4.47-8.93,9.6,4.8,4.46c14.22,13.24,22.38,31.97,22.38,51.39,0,28.19-16.45,53.17-42.14,64.36-3.68-1.6-7.17-3.5-10.45-5.64-2.42,3.28-6.04,6.94-9.69,9.27,5.42,3.82,11.35,7.05,17.74,9.56l2.4,.94,2.4-.94c32.1-12.63,52.85-43.07,52.85-77.56,0-23.04-9.68-45.27-26.56-60.98Z"/><path class="cls-1" d="M110.49,65.45c0-23.04-9.68-45.27-26.56-60.98l-4.8-4.47-.09,.09-.09-.09-4.8,4.47c-16.88,15.71-26.56,37.94-26.56,60.98,0,19.67,6.76,38.01,18.51,52.5,3.22-1.8,6.94-4.91,9.85-8.7-9.69-12.14-15.25-27.42-15.25-43.8,0-17.48,6.63-34.4,18.34-47.26,11.7,12.86,18.34,29.78,18.34,47.26,0,28.19-16.45,53.17-42.14,64.36C29.56,118.62,13.11,93.64,13.11,65.45c0-19.42,8.16-38.14,22.38-51.39l4.8-4.47L31.36,0l-4.8,4.47C9.68,20.18,0,42.41,0,65.45c0,34.48,20.74,64.92,52.85,77.56l2.4,.94,2.4-.94c32.1-12.63,52.85-43.07,52.85-77.56Z"/></g><g><g><path class="cls-1" d="M181.26,77.61v-.8l1.54-.64c1.03-.37,1.7-.88,2.04-1.53,.33-.64,.5-1.47,.5-2.49V30.08c0-1.07-.17-1.93-.5-2.57-.33-.64-1.01-1.15-2.04-1.53l-1.54-.64v-.8h19.51v.8l-1.31,.56c-.97,.38-1.64,.87-2,1.49-.36,.62-.54,1.46-.54,2.53v19.54h18.36V29.92c0-1.07-.17-1.92-.5-2.53-.33-.62-1.01-1.11-2.04-1.49l-1.38-.56v-.8h19.59v.8l-1.54,.64c-.97,.38-1.64,.89-2,1.53-.36,.64-.54,1.5-.54,2.57v42.06c0,1.02,.18,1.85,.54,2.49,.36,.64,1.03,1.15,2,1.53l1.54,.64v.8h-19.59v-.8l1.38-.48c1.02-.43,1.7-.95,2.04-1.57,.33-.62,.5-1.46,.5-2.53v-21.15h-18.36v21.15c0,1.99,.85,3.35,2.54,4.1l1.31,.48v.8h-19.51Z"/><path class="cls-1" d="M287.8,77.61c-3.12,0-6.13-.56-9.03-1.68-2.89-1.12-5.48-2.78-7.76-4.99-2.28-2.21-4.08-4.97-5.42-8.27-1.33-3.31-2-7.17-2-11.59s.67-8.21,2-11.52c1.33-3.3,3.15-6.06,5.45-8.27,2.31-2.21,4.9-3.89,7.8-5.03,2.89-1.14,5.88-1.72,8.95-1.72s6.13,.55,9.03,1.64c2.89,1.09,5.48,2.75,7.76,4.96,2.28,2.21,4.08,4.98,5.41,8.31s2,7.21,2,11.63-.67,8.15-2,11.48c-1.33,3.33-3.14,6.1-5.41,8.31-2.28,2.21-4.87,3.89-7.76,5.03-2.89,1.14-5.9,1.72-9.03,1.72Zm0-1.6c2.82,0,5.1-.75,6.84-2.25,1.74-1.5,3.01-4.07,3.8-7.7,.79-3.63,1.19-8.63,1.19-14.99s-.4-11.43-1.19-15.06c-.8-3.63-2.06-6.2-3.8-7.7-1.74-1.5-4.02-2.25-6.84-2.25s-5.02,.75-6.76,2.25c-1.74,1.5-3.01,4.07-3.8,7.7-.79,3.64-1.19,8.66-1.19,15.06s.4,11.35,1.19,14.99c.79,3.64,2.06,6.2,3.8,7.7,1.74,1.5,3.99,2.25,6.76,2.25Z"/><path class="cls-1" d="M344.64,77.61v-.8l1.54-.64c1.03-.37,1.7-.88,2.04-1.53,.33-.64,.5-1.5,.5-2.57V30.08c0-1.07-.15-1.93-.46-2.57-.31-.64-1-1.15-2.08-1.53l-1.54-.64v-.8h19.74v.8l-1.54,.64c-1.03,.38-1.7,.89-2.04,1.53s-.5,1.5-.5,2.57v41.98c0,1.07,.17,1.92,.5,2.53,.33,.62,1.01,1.14,2.04,1.57l1.54,.64v.8h-19.74Z"/><path class="cls-1" d="M397.42,77.61v-.8l1.92-.72c1.03-.43,1.82-.95,2.38-1.56,.56-.61,1.02-1.48,1.38-2.61l15.83-47.39h6.53l15.59,47.71c.41,1.18,.87,2.07,1.38,2.69,.51,.62,1.31,1.14,2.38,1.56l.92,.32v.8h-19.51v-.8l1.15-.4c1.08-.43,1.73-1.03,1.96-1.8,.23-.77,.19-1.7-.12-2.77l-3.61-11.55h-17.05l-3.69,11.31c-.36,1.18-.48,2.11-.35,2.81,.13,.7,.73,1.26,1.8,1.68l1.69,.72v.8h-10.6Zm11.68-18.92h16.05l-7.76-24.94-8.3,24.94Z"/><path class="cls-1" d="M479.84,77.38v-.8l2.54-.8c.92-.27,1.59-.79,2-1.56s.62-1.69,.62-2.76V32.94c-.56-1.28-1.01-2.24-1.34-2.88-.33-.64-.7-1.19-1.11-1.64-.41-.45-.97-1.03-1.69-1.72l-1.31-1.36v-.8h13.6l25.5,36.27V30.62c0-1.07-.17-2.03-.5-2.88-.33-.85-1.01-1.41-2.04-1.68l-2.53-.72v-.8h10.98v.8l-2.07,.72c-.92,.32-1.49,.88-1.69,1.68-.2,.8-.31,1.74-.31,2.8v47.08h-4.3l-29.34-42.03v35.87c0,1.07,.15,1.98,.46,2.72,.31,.75,.95,1.28,1.92,1.6l2.31,.8v.8h-11.68Z"/></g><g><path class="cls-1" d="M189.09,119.41l-5.75-20.54c-.15-.53-.31-.91-.49-1.16-.17-.24-.48-.47-.91-.67l-.39-.17v-.35h8.61v.35l-.68,.28c-.5,.21-.83,.46-1.01,.76-.17,.3-.18,.71-.03,1.24l3.54,14.36,3.83-12.04-.75-2.45c-.15-.48-.29-.85-.42-1.1-.13-.25-.35-.46-.65-.62l-.71-.41v-.35h8.16v.35l-1.01,.41c-.43,.16-.68,.4-.73,.71-.06,.31,0,.71,.15,1.19l4.13,14.67,3.9-14.39c.15-.55,.21-1.04,.16-1.45s-.31-.71-.81-.9l-.68-.24v-.35h4.52v.35l-.84,.35c-.43,.16-.74,.41-.91,.76-.17,.35-.32,.77-.46,1.28l-5.4,20.16h-2.24l-4.87-16.22-5.01,16.22h-2.24Z"/><path class="cls-1" d="M226.89,119.41c-1.32,0-2.6-.24-3.82-.72-1.22-.48-2.32-1.2-3.28-2.15-.96-.95-1.73-2.14-2.29-3.57-.56-1.42-.85-3.09-.85-5s.28-3.54,.85-4.96c.56-1.42,1.33-2.61,2.31-3.57,.97-.95,2.07-1.68,3.3-2.17,1.22-.49,2.49-.74,3.79-.74s2.59,.24,3.82,.71,2.32,1.18,3.28,2.14c.96,.95,1.73,2.15,2.29,3.58s.85,3.11,.85,5.01-.28,3.51-.85,4.95c-.56,1.44-1.33,2.63-2.29,3.58-.96,.95-2.06,1.68-3.28,2.17s-2.5,.74-3.82,.74Zm0-.69c1.19,0,2.15-.32,2.89-.97s1.27-1.75,1.61-3.32c.34-1.57,.5-3.72,.5-6.46s-.17-4.92-.5-6.49c-.34-1.57-.87-2.67-1.61-3.32-.74-.65-1.7-.97-2.89-.97s-2.12,.32-2.86,.97c-.74,.65-1.27,1.75-1.61,3.32-.34,1.57-.5,3.73-.5,6.49s.17,4.89,.5,6.46c.34,1.57,.87,2.67,1.61,3.32s1.69,.97,2.86,.97Z"/><path class="cls-1" d="M244.12,119.31v-.35l1.07-.35c.39-.12,.67-.34,.85-.67,.17-.33,.26-.73,.26-1.19v-16.6c-.24-.55-.43-.97-.57-1.24-.14-.28-.3-.51-.47-.71s-.41-.44-.71-.74l-.55-.59v-.35h5.75l10.79,15.63v-13.01c0-.46-.07-.87-.21-1.24-.14-.37-.43-.61-.86-.73l-1.07-.31v-.35h4.65v.35l-.88,.31c-.39,.14-.63,.38-.72,.73-.09,.35-.13,.75-.13,1.21v20.29h-1.82l-12.42-18.12v15.46c0,.46,.06,.85,.2,1.17,.13,.32,.4,.55,.81,.69l.97,.35v.35h-4.94Z"/><path class="cls-1" d="M270.44,119.41v-.35l.68-.28c.69-.3,1.04-.89,1.04-1.77v-18.1c0-.92-.35-1.51-1.04-1.77l-.68-.28v-.35h8.58c2.3,0,4.27,.46,5.93,1.37,1.66,.91,2.94,2.22,3.83,3.92,.9,1.7,1.35,3.74,1.35,6.12s-.49,4.5-1.46,6.21c-.97,1.71-2.33,3.02-4.08,3.92-1.74,.9-3.8,1.35-6.16,1.35h-8Zm6.6-.69h1.4c1.56,0,2.82-.33,3.77-.99,.95-.66,1.65-1.77,2.1-3.33,.44-1.56,.67-3.7,.67-6.43s-.22-4.87-.67-6.43c-.44-1.56-1.13-2.67-2.06-3.33-.93-.66-2.16-.99-3.67-.99h-1.53v21.5Z"/><path class="cls-1" d="M296.57,119.41v-.35l.75-.31c.37-.16,.62-.38,.76-.64,.14-.27,.21-.63,.21-1.09v-18.1c0-.46-.06-.83-.18-1.09-.12-.27-.38-.48-.8-.64l-.75-.31v-.35h15.57l.2,5.34h-.33l-1.4-3.26c-.19-.42-.4-.75-.62-1-.22-.25-.54-.38-.97-.38h-5.85v10.02h3.48c.43,0,.76-.12,.99-.36,.23-.24,.43-.57,.6-.99l.65-1.39h.33v6.24h-.33l-.65-1.46c-.19-.42-.4-.74-.62-.99-.22-.24-.54-.36-.97-.36h-3.48v10.78h6.57c.43,0,.77-.12,1.01-.36,.24-.24,.43-.58,.59-1.02l1.33-3.26h.32l-.2,5.34h-16.22Z"/><path class="cls-1" d="M320.46,119.41v-.35l.68-.24c.43-.16,.71-.38,.85-.64,.13-.27,.19-.64,.19-1.13v-18.13c0-.46-.06-.83-.18-1.09-.12-.27-.38-.48-.8-.64l-.75-.31v-.35h9.3c2.56,0,4.52,.51,5.88,1.54,1.36,1.03,2.05,2.46,2.05,4.28,0,1.02-.36,2.03-1.07,3.05-.72,1.02-1.84,1.8-3.38,2.36l4.52,9.57c.2,.39,.42,.71,.67,.95,.25,.24,.58,.46,.99,.64l.42,.17v.31h-5.82l-4.81-10.92h-2.21v8.56c0,.44,.06,.8,.19,1.08,.13,.28,.4,.48,.81,.62l.78,.31v.35h-8.32Zm6.53-11.61h1.56c1.56,0,2.69-.44,3.38-1.33,.69-.89,1.04-2.21,1.04-3.97s-.32-3.1-.97-3.97-1.74-1.3-3.28-1.3h-1.72v10.57Z"/><path class="cls-1" d="M353.62,119.41c-1.19,0-2.4-.15-3.64-.44-1.24-.3-2.27-.68-3.09-1.17l.16-4.47h.32l1.01,2.14c.3,.61,.63,1.16,.97,1.63,.35,.47,.82,.84,1.43,1.1,.43,.22,.85,.37,1.25,.44,.4,.08,.85,.12,1.35,.12,1.32,0,2.37-.36,3.14-1.08,.77-.72,1.15-1.65,1.15-2.8,0-1.07-.26-1.91-.78-2.51-.52-.6-1.35-1.19-2.5-1.76l-1.33-.59c-1.86-.83-3.32-1.79-4.37-2.88s-1.58-2.53-1.58-4.32c0-1.29,.33-2.41,.99-3.35s1.58-1.67,2.76-2.17c1.18-.5,2.56-.76,4.14-.76,1.15,0,2.24,.15,3.27,.46,1.03,.31,1.92,.72,2.68,1.25l-.2,3.94h-.32l-1.33-2.47c-.37-.77-.74-1.31-1.1-1.63-.37-.32-.79-.54-1.27-.67-.28-.09-.54-.15-.78-.18-.24-.03-.54-.05-.91-.05-1.11,0-2.04,.32-2.8,.97-.76,.65-1.14,1.52-1.14,2.61s.29,2.01,.88,2.68,1.44,1.27,2.57,1.79l1.5,.66c2.08,.92,3.57,1.9,4.48,2.94s1.36,2.38,1.36,4.03c0,1.93-.72,3.5-2.16,4.72-1.44,1.22-3.48,1.82-6.13,1.82Z"/><path class="cls-1" d="M386.41,119.41v-.35l1.33-.35c.89-.21,1.33-.79,1.33-1.73v-19.76h-2.76c-.8,0-1.38,.22-1.72,.68-.35,.45-.71,1.07-1.1,1.85l-1.17,2.43h-.32l.16-5.65h18.75l.13,5.65h-.32l-1.17-2.43c-.37-.79-.73-1.4-1.07-1.85-.35-.45-.92-.68-1.72-.68h-2.76v19.76c0,.95,.44,1.52,1.33,1.73l1.33,.35v.35h-10.24Z"/><path class="cls-1" d="M408.28,119.41v-.35l.68-.24c.43-.16,.71-.38,.85-.64,.13-.27,.19-.64,.19-1.13v-18.13c0-.46-.06-.83-.18-1.09-.12-.27-.38-.48-.8-.64l-.75-.31v-.35h9.3c2.56,0,4.52,.51,5.88,1.54,1.36,1.03,2.05,2.46,2.05,4.28,0,1.02-.36,2.03-1.07,3.05-.72,1.02-1.84,1.8-3.38,2.36l4.52,9.57c.2,.39,.42,.71,.67,.95,.25,.24,.58,.46,.99,.64l.42,.17v.31h-5.82l-4.81-10.92h-2.21v8.56c0,.44,.06,.8,.19,1.08,.13,.28,.4,.48,.81,.62l.78,.31v.35h-8.32Zm6.53-11.61h1.56c1.56,0,2.69-.44,3.38-1.33,.69-.89,1.04-2.21,1.04-3.97s-.32-3.1-.97-3.97-1.74-1.3-3.28-1.3h-1.72v10.57Z"/><path class="cls-1" d="M434.42,119.41v-.35l.81-.31c.43-.19,.77-.41,1.01-.67,.24-.26,.43-.64,.59-1.12l6.69-20.43h2.76l6.6,20.57c.17,.51,.37,.89,.59,1.16,.22,.27,.55,.49,1.01,.67l.39,.14v.35h-8.26v-.35l.49-.17c.45-.18,.73-.44,.83-.78,.1-.33,.08-.73-.05-1.19l-1.53-4.98h-7.22l-1.56,4.87c-.15,.51-.2,.91-.15,1.21s.31,.54,.76,.73l.71,.31v.35h-4.48Zm4.94-8.16h6.79l-3.28-10.75-3.51,10.75Z"/><path class="cls-1" d="M466.69,119.41l-6.96-20.57c-.15-.46-.35-.82-.6-1.09-.25-.26-.59-.47-1.02-.6l-.78-.28v-.35h9.36v.35l-1.01,.31c-.5,.14-.77,.38-.83,.73s0,.77,.15,1.28l4.81,15.15,4.84-15.19c.17-.53,.25-.97,.24-1.31-.01-.35-.27-.59-.76-.73l-.85-.24v-.35h4.55v.35l-.88,.28c-.41,.12-.71,.32-.88,.6s-.34,.66-.49,1.12l-6.5,20.54h-2.4Z"/><path class="cls-1" d="M484.57,119.41v-.35l.75-.31c.37-.16,.62-.38,.76-.64,.14-.27,.21-.63,.21-1.09v-18.1c0-.46-.06-.83-.18-1.09-.12-.27-.38-.48-.8-.64l-.75-.31v-.35h15.57l.2,5.34h-.33l-1.4-3.26c-.19-.42-.4-.75-.62-1-.22-.25-.54-.38-.97-.38h-5.85v10.02h3.48c.43,0,.76-.12,.99-.36,.23-.24,.43-.57,.6-.99l.65-1.39h.33v6.24h-.33l-.65-1.46c-.19-.42-.4-.74-.62-.99-.22-.24-.54-.36-.97-.36h-3.48v10.78h6.57c.43,0,.77-.12,1.01-.36,.24-.24,.43-.58,.59-1.02l1.33-3.26h.32l-.2,5.34h-16.22Z"/><path class="cls-1" d="M508.46,119.41v-.35l.68-.28c.45-.18,.74-.41,.86-.68,.12-.27,.18-.63,.18-1.09v-18.1c0-.46-.06-.83-.19-1.11-.13-.28-.41-.5-.85-.66l-.68-.28v-.35h8.29v.35l-.58,.28c-.41,.16-.69,.39-.85,.68-.15,.29-.23,.66-.23,1.13v19.76h5.01c.8,0,1.39-.21,1.77-.62s.74-1.02,1.09-1.8l1.27-2.91h.32l-.29,6.03h-15.8Z"/></g><line class="cls-2" x1="181.26" y1="87.07" x2="524.55" y2="87.07"/></g></g></g></svg>