<svg xmlns="http://www.w3.org/2000/svg" viewBox="0 0 170 50"><defs><style>.cls-1{fill:#0f295c;}.cls-2{fill:#2e3d80;}.cls-3{fill:#f0d400;}.cls-4{fill:#f0c200;}.cls-5{fill:#54ba80;}</style></defs><g id="Layer_2" data-name="Layer 2"><g id="Layer_1-2" data-name="Layer 1"><polygon class="cls-1" points="33.78 21.69 47.72 21.69 32.54 43.38 18.59 43.38 33.78 21.69"/><polygon class="cls-2" points="33.78 21.69 47.72 21.69 39.97 10.84 26.03 10.84 33.78 21.69"/><polygon class="cls-3" points="13.94 21.69 0 21.69 15.18 0 29.12 0 13.94 21.69"/><polygon class="cls-4" points="13.94 21.69 0 21.69 7.75 32.53 21.69 32.53 13.94 21.69"/><path class="cls-4" d="M58.34,34.32a4,4,0,0,1,0-7.92,3.9,3.9,0,0,1,2.75,1.13l2.72-3.89a8.67,8.67,0,1,0,0,13.44L61.09,33.2a3.94,3.94,0,0,1-2.75,1.12"/><path class="cls-1" d="M113.26,34.32A4,4,0,1,1,116,27.53l2.72-3.89a8.67,8.67,0,1,0,0,13.44L116,33.2a4,4,0,0,1-2.76,1.12"/><path class="cls-1" d="M148.06,34.32a4,4,0,0,1,0-7.92,3.9,3.9,0,0,1,2.75,1.13l2.72-3.89a8.67,8.67,0,1,0,0,13.44l-2.72-3.88a3.94,3.94,0,0,1-2.75,1.12"/><path class="cls-4" d="M73.31,26.4a4,4,0,1,0,4,4,4,4,0,0,0-4-4m0,12.64A8.68,8.68,0,1,1,82,30.36,8.69,8.69,0,0,1,73.31,39"/><polygon class="cls-1" points="125.45 34.66 125.45 21.75 120.73 21.75 120.73 34.66 120.73 38.97 130.68 38.97 130.68 34.66 125.45 34.66"/><rect class="cls-1" x="132.67" y="21.75" width="4.72" height="17.22"/><polygon class="cls-4" points="97.19 21.75 97.19 21.75 93.06 28.74 88.93 21.75 84.21 21.75 84.21 22.24 84.21 38.97 88.93 38.97 88.93 30.22 90.56 32.98 93.06 37.21 95.56 32.98 97.19 30.22 97.19 38.97 101.91 38.97 101.91 22.23 101.91 21.75 97.19 21.75"/><polygon class="cls-1" points="170 38.97 164.82 30.36 170 21.75 164.97 21.75 160.25 29.59 160.25 21.75 155.53 21.75 155.53 38.97 160.25 38.97 160.25 31.13 164.97 38.97 170 38.97"/><polygon class="cls-5" points="50.73 48.86 53.61 48.86 53.61 49.88 49.66 49.88 49.66 43.38 53.56 43.38 53.56 44.4 50.73 44.4 50.73 46.09 53.33 46.09 53.33 47.1 50.73 47.1 50.73 48.86"/><path class="cls-5" d="M56.37,47.57h2.06l-1-2.94Zm2.87,2.31-.46-1.31H56l-.45,1.31H54.4l2.36-6.5H58l2.35,6.5Z"/><path class="cls-5" d="M60.9,48.4l.92-.54A1.55,1.55,0,0,0,63.43,49c.81,0,1.21-.34,1.21-.85a.69.69,0,0,0-.32-.61A4.88,4.88,0,0,0,63.16,47a4.39,4.39,0,0,1-1.36-.6,1.47,1.47,0,0,1-.63-1.3,1.66,1.66,0,0,1,.61-1.37,2.24,2.24,0,0,1,1.48-.51,2.4,2.4,0,0,1,2.26,1.43l-.9.52a1.4,1.4,0,0,0-1.36-.91c-.63,0-1,.32-1,.81s.32.7,1.31,1l.54.18.49.19a1.78,1.78,0,0,1,.47.26,1.58,1.58,0,0,1,.67,1.34,1.74,1.74,0,0,1-.64,1.4,2.57,2.57,0,0,1-1.66.51,2.45,2.45,0,0,1-2.51-1.6"/><polygon class="cls-5" points="71.68 43.38 69.41 47.3 69.41 49.88 68.34 49.88 68.34 47.3 66.08 43.38 67.3 43.38 68.89 46.26 70.46 43.38 71.68 43.38"/><path class="cls-5" d="M76,49a3.37,3.37,0,0,1,2.43-5.77,3.18,3.18,0,0,1,2.79,1.55l-.92.54a2.09,2.09,0,0,0-1.87-1.05,2.33,2.33,0,1,0,0,4.66,2.08,2.08,0,0,0,1.87-1.05l.92.53a3,3,0,0,1-1.16,1.14,3.22,3.22,0,0,1-1.63.42A3.3,3.3,0,0,1,76,49"/><polygon class="cls-5" points="83.49 48.86 86.13 48.86 86.13 49.88 82.42 49.88 82.42 43.38 83.49 43.38 83.49 48.86"/><rect class="cls-5" x="87.25" y="43.38" width="1.07" height="6.5"/><path class="cls-5" d="M90.58,49A3.37,3.37,0,0,1,93,43.26a3.19,3.19,0,0,1,2.79,1.55l-.93.54A2.07,2.07,0,0,0,93,44.3a2.23,2.23,0,0,0-2.33,2.33,2.28,2.28,0,0,0,.64,1.67A2.25,2.25,0,0,0,93,49a2.06,2.06,0,0,0,1.86-1.05l.93.53a3.1,3.1,0,0,1-1.16,1.14A3.24,3.24,0,0,1,93,50a3.34,3.34,0,0,1-2.44-1"/><polygon class="cls-5" points="101.92 49.88 100.65 49.88 98.09 46.79 98.09 49.88 97.02 49.88 97.02 43.38 98.09 43.38 98.09 46.3 100.56 43.38 101.83 43.38 99.2 46.55 101.92 49.88"/><polygon class="cls-5" points="106.66 48.86 109.54 48.86 109.54 49.88 105.59 49.88 105.59 43.38 109.49 43.38 109.49 44.4 106.66 44.4 106.66 46.09 109.26 46.09 109.26 47.1 106.66 47.1 106.66 48.86"/><path class="cls-5" d="M112.3,47.57h2.06l-1-2.94Zm2.86,2.31-.45-1.31h-2.77l-.45,1.31h-1.16l2.35-6.5H114l2.35,6.5Z"/><path class="cls-5" d="M116.83,48.4l.92-.54a1.55,1.55,0,0,0,1.61,1.1c.81,0,1.21-.34,1.21-.85a.68.68,0,0,0-.33-.61,4.59,4.59,0,0,0-1.15-.46,4.39,4.39,0,0,1-1.36-.6,1.47,1.47,0,0,1-.63-1.3,1.66,1.66,0,0,1,.61-1.37,2.24,2.24,0,0,1,1.48-.51,2.41,2.41,0,0,1,2.26,1.43l-.9.52a1.4,1.4,0,0,0-1.36-.91c-.63,0-1,.32-1,.81s.32.7,1.31,1l.54.18.48.19a1.71,1.71,0,0,1,.48.26,1.58,1.58,0,0,1,.67,1.34,1.74,1.74,0,0,1-.64,1.4,2.58,2.58,0,0,1-1.67.51,2.45,2.45,0,0,1-2.5-1.6"/><polygon class="cls-5" points="127.61 43.38 125.34 47.3 125.34 49.88 124.28 49.88 124.28 47.3 122.01 43.38 123.22 43.38 124.81 46.26 126.39 43.38 127.61 43.38"/><path class="cls-5" d="M134.06,48.88a.91.91,0,0,0,0-1.82h-1.72v1.82Zm-1.72-4.5v1.71h1.52a.83.83,0,0,0,.83-.85.83.83,0,0,0-.83-.86ZM136,48a1.71,1.71,0,0,1-.57,1.33,2,2,0,0,1-1.38.53h-2.78v-6.5h2.58a1.89,1.89,0,0,1,1.34.52,1.64,1.64,0,0,1,.56,1.28,1.56,1.56,0,0,1-.66,1.33A1.64,1.64,0,0,1,136,48"/><rect class="cls-5" x="137.27" y="43.38" width="1.07" height="6.5"/><path class="cls-5" d="M146.28,46.52V47a3,3,0,0,1-.88,2.2,3.21,3.21,0,0,1-2.3.84,3.44,3.44,0,0,1-2.49-1A3.38,3.38,0,0,1,143,43.26a3.24,3.24,0,0,1,2.83,1.54l-.92.53a2.14,2.14,0,0,0-1.91-1,2.25,2.25,0,0,0-1.68.67,2.27,2.27,0,0,0-.66,1.67,2.25,2.25,0,0,0,.66,1.66,2.38,2.38,0,0,0,1.74.66,1.94,1.94,0,0,0,2.1-1.49H143v-.95Z"/></g></g></svg>