<svg id="bf78b93b-d257-4ba5-8fdb-4c1fac268426" height="512" viewBox="0 0 64 64" width="512" xmlns="http://www.w3.org/2000/svg" xmlns:xlink="http://www.w3.org/1999/xlink" data-name="flat gradient flaticon"><linearGradient id="fd861c07-4b1b-4b42-a00a-065706a2293a" gradientUnits="userSpaceOnUse" x1="8.183" x2="55.817" y1="32" y2="32"><stop offset="0" stop-color="#00c0ff"/><stop offset="1" stop-color="#5558ff"/></linearGradient><path d="m53.99458 27.87927c-1.81852-4.01605-6.40709-5.48759-9.57-2.25982l.13-2.99018c-.01576-4.5158-7.36232-5.906-12.65991-6.57015a7.84077 7.84077 0 0 1 -1.95008 1.83016c5.45734.22351 17.31782 3.04 10.54006 6.56-2.60006 1.32993-7.53011 2.49-14.1401 2.49-12.42559.198-25.49169-5.45306-6.82-8.71017a10.24361 10.24361 0 0 1 .11-2.02982c-4.87643.71721-12.13384 2.33411-11.4002 6.81984l1.38022 30.41013a3.92994 3.92994 0 0 0 2.35 3.43 35.12807 35.12807 0 0 0 28.99.02 3.8958 3.8958 0 0 0 2.3-3.4l.13995-3.39.42005.43c3.53718 3.15618 7.4647-1.127 8.31995-2.67012 5.91005-9.08986 3.27003-16.98989 1.86006-19.96987zm-36.18 26.51c-.45923 1.23915-1.86421.40159-2.72.11a3.388 3.388 0 0 1 -2.17-3.02l-.29-6.81a.99581.99581 0 1 1 1.99-.08l.3 6.8c-.03253 1.93315 3.35062 1.03906 2.89001 3.00001zm29.17-9.04a4.01679 4.01679 0 0 1 -3.38-.25012l.55-13.06989a6.46093 6.46093 0 0 1 2.07-1.39992 3.6839 3.6839 0 0 1 4.82993 3.41c.05005.91989.42005 9.26993-4.06994 11.30991zm-23.20013-21.39c-2.09536-3.01789-2.56671-5.19039-2.06989-7.98a7.667 7.667 0 0 1 1.35-3.07l2.09-2.32c.59-.61 1.16-1.97.69-5.19a1.12134 1.12134 0 0 1 .54-1.31 1.02758 1.02758 0 0 1 1.18015.25012c3.49823 4.06839 5.36769 8.23746 1.75989 11.51993-1.27481 1.035-1.895.85806-2.68009 1.90994-1.54 2-1.06994 5.41-1.06 5.45a1.00411 1.00411 0 0 1 -.99 1.14.99075.99075 0 0 1 -.81007-.4z" fill="url(#fd861c07-4b1b-4b42-a00a-065706a2293a)"/></svg>