<?xml version="1.0" encoding="utf-8"?>
<!-- Generator: Adobe Illustrator 26.3.1, SVG Export Plug-In . SVG Version: 6.00 Build 0)  -->
<svg version="1.1" id="Layer_1" xmlns="http://www.w3.org/2000/svg" xmlns:xlink="http://www.w3.org/1999/xlink" x="0px" y="0px"
	 viewBox="0 0 1440 1191.7" style="enable-background:new 0 0 1440 1191.7;" xml:space="preserve">
<style type="text/css">
	.st0{opacity:0.8;filter:url(#Adobe_OpacityMaskFilter);}
	.st1{opacity:0.77;fill:url(#SVGID_1_);enable-background:new    ;}
	.st2{fill:url(#SVGID_00000100382464351215331510000012111712486088520078_);}
	.st3{fill:url(#SVGID_00000166648706276372413930000011492825870841103526_);}
	.st4{fill:url(#SVGID_00000134957985464025763720000007474153467725523099_);}
	.st5{fill:url(#SVGID_00000179632231552773203410000012613501852379033734_);}
	.st6{fill:url(#SVGID_00000039829033044974887090000000311705394111157682_);}
	.st7{fill:url(#SVGID_00000168079389275434927780000017698503210912798086_);}
	.st8{fill:url(#SVGID_00000065777592706426423770000000668234752188307097_);}
	.st9{fill:url(#SVGID_00000024699240140652333240000008163310275614810288_);}
	.st10{fill:url(#SVGID_00000129893795356751470620000003334471804589643157_);}
	.st11{fill:url(#SVGID_00000015355410197341722680000007018290724583275443_);}
	.st12{fill:url(#SVGID_00000021804728949629255690000017122437589425098938_);}
	.st13{fill:url(#SVGID_00000034063686100345676390000001393369362708882330_);}
	.st14{fill:url(#SVGID_00000134970322585081518950000017933541728629031346_);}
	.st15{fill:url(#SVGID_00000047760631212451676740000005556445752238544557_);}
	.st16{fill:url(#SVGID_00000112633165942499299990000013345920021983368609_);}
	.st17{fill:url(#SVGID_00000096780050346538740950000016774823691447199923_);}
	.st18{opacity:0.64;fill:#545454;enable-background:new    ;}
	.st19{fill:url(#SVGID_00000164492333473124621730000015177431009002465943_);}
	.st20{opacity:0.52;fill:#333333;enable-background:new    ;}
	.st21{fill:url(#SVGID_00000128466829044921787190000012189167374387518907_);}
	.st22{opacity:0.52;fill:#2F2F2F;enable-background:new    ;}
	.st23{fill:url(#SVGID_00000052802378846262504950000006270702185602242479_);}
	.st24{fill:url(#SVGID_00000175302291779918241350000000930166974262026919_);}
	.st25{fill:url(#SVGID_00000029041228863552272340000010337950489584442516_);}
	.st26{fill:#4E4E4E;}
	.st27{fill:url(#SVGID_00000149357232824207130610000004854608319923769270_);}
	.st28{fill:#545454;}
	.st29{fill:url(#SVGID_00000067231059624248866270000001678090021872358797_);}
	.st30{fill:url(#SVGID_00000158711875225414436630000015449217868393624460_);}
	.st31{fill:url(#SVGID_00000070096332351072145880000011824841574171653023_);}
	.st32{fill:url(#SVGID_00000021802279452580135920000010386390120929070519_);}
	.st33{opacity:0.4;fill:#545454;enable-background:new    ;}
	.st34{fill:url(#SVGID_00000085957555123563251040000017223207483430577553_);}
	.st35{fill:#5B5B5B;}
	.st36{fill:url(#SVGID_00000170980223703728017820000009746682514906275495_);}
	.st37{fill:url(#SVGID_00000083073434407818995240000004384606105020356755_);}
	.st38{fill:url(#SVGID_00000127737065770672776290000017617324609822868640_);}
	.st39{fill:url(#SVGID_00000069371572743030756460000008186747696143049105_);}
	.st40{opacity:0.66;fill:#515151;enable-background:new    ;}
	.st41{fill:url(#SVGID_00000042711066625836473120000005802869386413301170_);}
	.st42{fill:url(#SVGID_00000105393581433165117290000010620790189190610341_);}
	.st43{fill:url(#SVGID_00000128449347469358778030000014483474604069487287_);}
	.st44{fill:url(#SVGID_00000137110687236887409560000013496779513021966755_);}
	.st45{fill:url(#SVGID_00000088132440011132590620000004330272231014436261_);}
	.st46{fill:url(#SVGID_00000168113999333888131080000004546516555658087820_);}
	.st47{opacity:0.51;fill:url(#SVGID_00000119078440617287366060000018227665287220927393_);enable-background:new    ;}
	.st48{opacity:0.44;fill:url(#SVGID_00000142862384556464310500000010575900597388741002_);enable-background:new    ;}
	.st49{mask:url(#mask0_391_5972_00000117637850608085933480000001780311351366652292_);}
	.st50{fill:#F1F1F1;}
</style>
<defs>
	<filter id="Adobe_OpacityMaskFilter" filterUnits="userSpaceOnUse" x="0" y="-16.3" width="1440" height="1208">
		<feColorMatrix  type="matrix" values="1 0 0 0 0  0 1 0 0 0  0 0 1 0 0  0 0 0 1 0"/>
	</filter>
</defs>
<mask maskUnits="userSpaceOnUse" x="0" y="-16.3" width="1440" height="1208" id="mask0_391_5972_00000117637850608085933480000001780311351366652292_">
	<g class="st0">
		
			<linearGradient id="SVGID_1_" gradientUnits="userSpaceOnUse" x1="756.1918" y1="287.6676" x2="756.1918" y2="822.7006" gradientTransform="matrix(1 0 0 -1 0 1455.4353)">
			<stop  offset="0" style="stop-color:#4D4D4D"/>
			<stop  offset="1" style="stop-color:#848484"/>
		</linearGradient>
		<path class="st1" d="M-156.7,867c10.4-7.8,22.9-12.4,35.8-13.3c13-0.9,25.9,2,37.3,8.4c11.2,6.7,20.1,16.5,25.8,28.2
			c5.7,11.7,7.9,24.8,6.3,37.7c1.2-10.4,5.5-20.3,12.3-28.2c6.9-7.9,16-13.6,26.1-16.3c10.2-2.3,20.9-1.4,30.7,2.5
			c9.7,3.9,18.1,10.7,23.9,19.4c-15.5-22-10.2-55.9,11.2-72.2c21.4-16.3,55.6-12.1,72.5,8.9c-2.2-28.2,23.7-55.3,52-54.5
			c28.3,0.8,52.5,29.3,48.8,57.3c9.6-25.7,45-37.5,68.1-22.7c23.1,14.8,27.2,51.9,7.9,71.4c28.8-11.9,61.8,28.4,44.5,54.3
			c27.2-15.9,64.8-10.8,86.8,11.7l1.5-69.9c28-6.7,59.9,8.9,71.5,35.3c-9.2-27.9,8.6-61.7,36.8-69.9c28.2-8.2,61.3,10.7,68.5,39.2
			c0.4-23.7,29.7-41.6,51-31.3c21.3,10.3,25.2,44.5,6.7,59.5c10.5-15.5,34.2-20.1,49.6-9.5c15.5,10.6,19.9,34.2,9.4,49.7
			c7.5-7.5,17.1-12.5,27.5-14.2c10.4-1.8,21.1-0.2,30.7,4.4c9.5,4.6,17.4,12.1,22.5,21.4c5.1,9.3,7.2,19.9,5.9,30.4
			c19.3-18.8,57-10.6,66.8,14.5c-16.4-11.8-19.8-37.9-7.1-53.5c12.7-15.6,39-17.5,53.8-3.9c-7.8-21.7,2.7-48.4,23.1-59
			c20.4-10.7,48.2-4,61.6,14.8c-16.2-26-8.2-64.1,17.1-81.3c25.3-17.2,63.7-10.6,81.8,14.1c25.4-31.1,85.3-17.3,94.6,21.8
			c1.3-22.7,20.8-42.9,43.4-44.9c22.6-2.1,45.4,14.3,50.8,36.3c-2.6-23.9,13.6-48.5,36.6-55.5c22.9-7,50.1,4.2,61.4,25.4
			c0.6-13.6,5.4-26.7,13.6-37.6c8.2-10.9,19.6-19,32.5-23.2c12.9-4.3,26.9-4.5,39.9-0.7c13.1,3.8,24.7,11.5,33.3,22.1
			c34.3-29.9,92.2-11.6,118.7,25.5c26.5,37.1,30,85.5,31.3,131.1c2.6,94.4-0.6,188.9-9.3,282.9H-156.7V867z"/>
		
			<linearGradient id="SVGID_00000168114707190897557600000003086036836469937819_" gradientUnits="userSpaceOnUse" x1="-0.6423" y1="357.3344" x2="1473.7533" y2="1468.2932" gradientTransform="matrix(1 0 0 -1 0 1455.4353)">
			<stop  offset="0" style="stop-color:#616161"/>
			<stop  offset="1" style="stop-color:#CACACA"/>
		</linearGradient>
		<path style="fill:url(#SVGID_00000168114707190897557600000003086036836469937819_);" d="M130.8,484.1
			c-12.5,300-25.1,600-37.7,900l-142.1-11.2l73.6-598.6C-27.7,620.6-51.9,458.8-47,296.6l12.5,2.1C-33.2,426.3-9,552.6,37.2,671.6
			c29.6-240.7,59.1-481.3,88.7-721.8l26.6,15.4c-5.8,137.6-11.5,275.3-17.3,412.9c52.9-116.1,85.9-240.3,97.7-367.4l11.6,8.4
			C234.7,179.7,196.2,337.2,130.8,484.1z M955.4,241.4c-41.2,191.6-148,338.3-175.3,376.2c1.6-116.5,3.3-232.9,4.9-349.4L846,111.2
			l-5.7-15.5l-54.4,119.1c1-71,2-142,3-213l-21.9-4.8c-10.7,63.8-20.2,127.8-28.3,192c-18.4-48.3-32.8-98-43.2-148.6l-20-15.7
			c9,73.4,28.2,145.2,57.2,213.2c-17.5,149.3-28.3,299.2-32.3,449.7c-13.3-44.6-132.7-300.6-125.7-523.7l-19.3,21
			c0,205.4,119.6,541.9,143.2,616.3c-0.5,138.4,4.8,276.7,15.9,414.8l57.4-11.2c2.3-164.1,4.6-328.2,6.9-492.3
			c49.7-72,166.6-300.3,183.3-437L955.4,241.4z M1422.8,113.1l-13.9-8.7c-26.8,127.8-62.1,253.6-105.8,376.6
			c-11.6-161.6-30.9-322.4-57.8-482.3L1184-3.2c14.3,89.5,26,179.4,34.9,269.7c-60.6-78.3-108.5-165.6-141.9-258.8l-15.3,14.6
			c30.1,112.8,85.8,217.2,162.8,304.9c13.7,158.1,19.2,316.7,16.6,475.4c-100.6-43.6-189.7-230.7-200.5-344.1l-17.3,6.2
			c13.2,136.1,90.7,333.2,216.1,410.5c-3.4,105.7-10.4,211.2-21.1,316.5l88-25.3c12.9-206,13.3-412.6,1.2-618.7
			C1356,405.7,1394.6,260.5,1422.8,113.1z M1657.7,678.4c-114.8-213.6-171.9-453.5-165.6-695.9l-34.1,21.4
			c8.6,188.9,37.4,376.3,85.8,559.1c-58.5-52.9-139.8-163-180.5-230.8l-9.9,20.8c51.4,81,133.2,213.3,207.8,273.6
			c13.6,46.5,28.4,92.6,44.5,138.4L1657.7,678.4z M-290.3,756.7C-221.8,660.1-164,556.3-118,447.2c41.7-98.9,73.6-201.6,95.1-306.8
			l-5.7-40.9C-67.9,252.8-137.4,396.8-232.9,523L-290.3,756.7z M665.6,643l-10.3-10.8C631.9,743.6,553.4,926.7,494.1,1024
			l-4.5-687.5c21.3-64.3,38.4-129.8,51.4-196.3l-7.7-23l-44.3,135.8c-0.5-79.8-1.1-159.5-1.6-239.3l-25.7-8.1
			c-15,126.8-26.1,254-33.2,381.5C382,269.3,346.9,147.2,323.9,22.5l-18.5,2C324.6,170.6,365,313,425.5,447.3
			c-4.1,87-6.3,174-6.7,261c-62.4-104.2-146.6-256.5-166.6-523.2L229.1,198c11.4,284.8,139.6,477.9,189.6,591.2
			c1.5,180.5,10.7,360.8,27.8,540.8l50.2,93.9l-2.2-326l5.6,9.5C565.2,997.9,648.4,769.3,665.6,643L665.6,643z M1120.2,138.8
			l-15.2-10.6c-29.2,135.6-69.7,268.5-121.1,397.3c1.3-165.5-4.1-330.9-16.5-496.1l-21.2-4.2c5.5,411.6-20.6,823-78.2,1230.5
			l91.5-42.8c19.3-172.8,18.7-414.8,22.9-588.6C1046.6,468.3,1092.9,305.4,1120.2,138.8z"/>
		
			<linearGradient id="SVGID_00000076605745791559942540000013768340801933347728_" gradientUnits="userSpaceOnUse" x1="1572.9998" y1="318.1367" x2="1440.2998" y2="758.2266" gradientTransform="matrix(1 0 0 -1 0 1455.4353)">
			<stop  offset="0" style="stop-color:#424242"/>
			<stop  offset="0.99" style="stop-color:#5F5F5F"/>
		</linearGradient>
		<path style="fill:url(#SVGID_00000076605745791559942540000013768340801933347728_);" d="M1593.3,1134.5
			c-20-35.4-38.5-71.6-55.6-108.5c-5.6-12.1-11-24.2-16.3-36.5c-0.1,0.3-0.3,0.5-0.5,0.7c-1.8,1.5-10,0.1-12.4,0
			c-4.1-0.2-8.3-0.4-12.4-0.9c-6.5-0.5-12.9-2-19-4.5c-6.1-2.6-11-7.3-13.9-13.2c-1.4-3-1.9-6.3-1.5-9.5c0.4-3.2,1.7-6.3,3.7-8.9
			c5.8-6.5,16.3-6.5,24-2.4c7.6,4.1,13,11.3,18.1,18.3l8.6,11.7c0.7,1,2,2.3,3.1,3.8c-7.8-18.5-15-37.1-21.7-55.9
			c-0.1,0.1-0.2,0.2-0.3,0.3c-1.8,1.2-8.9-0.8-11-1.2c-3.6-0.5-7.3-1.2-10.9-2c-5.7-1.1-11.3-3-16.4-5.9c-5.1-2.9-9.1-7.5-11-13.1
			c-0.9-2.8-1.1-5.7-0.4-8.6c0.7-2.8,2.1-5.4,4.2-7.5c5.8-5.2,15.1-4.1,21.5,0.2c6.4,4.4,10.4,11.3,14.2,18l6.5,11.2
			c0.3,0.6,0.9,1.4,1.5,2.2c-5.9-17-11.2-34.2-16.1-51.6c-2.2,0.6-8-1-9.8-1.3c-3.4-0.5-6.8-1.1-10.2-1.9c-5.4-1-10.6-2.9-15.3-5.5
			c-4.8-2.7-8.5-7-10.3-12.2c-0.9-2.6-1-5.4-0.3-8c0.6-2.7,2-5.1,3.9-7c5.4-4.9,14.2-3.9,20.1,0.2c5.9,4.1,9.8,10.6,13.4,16.9
			l6,10.5l0.6,0.9c-3-11.3-5.8-22.8-8.3-34.2c-7.1-31.9-11.8-64.3-14.1-97c-0.2-3.6-0.5-7.2-0.7-10.9c-1.8-0.7-3.6-1.5-5.3-2.5
			c-2.1-0.9-4.2-1.9-6.2-3c-3.2-1.6-6.2-3.7-8.8-6.3c-2.6-2.6-4.1-6-4.4-9.6c-0.1-1.8,0.3-3.6,1.2-5.2c0.9-1.6,2.2-2.9,3.8-3.8
			c4.3-2.1,9.7,0,12.7,3.8c2.8,3.9,4.6,8.4,5.5,13.2c0.3,1.1,0.5,2.2,0.8,3.3c-0.5-11.6-0.7-23.4-0.4-35.1c-1.4-0.5-2.8-1.2-4.1-1.9
			c-1.6-0.7-3.1-1.5-4.6-2.2c-2.5-1.2-4.7-2.8-6.7-4.7c-2-2-3.1-4.6-3.3-7.3c-0.1-1.4,0.3-2.7,1-3.9c0.7-1.2,1.7-2.2,2.8-2.8
			c1.7-0.6,3.6-0.7,5.3-0.2s3.3,1.6,4.3,3.1c2.1,3,3.5,6.4,4.1,10c0.4,1.7,0.8,3.3,1.2,5c0.3-6.6,0.8-13.1,1.6-19.7
			c-0.9-1.4-1.6-3-2-4.6c-0.6-1.6-1.2-3.2-1.8-4.9c-0.9-2.6-1.5-5.3-1.5-8c-0.1-2.8,0.9-5.4,2.7-7.6c0.9-1,2.1-1.8,3.4-2.2
			c1.3-0.4,2.7-0.4,4-0.1c1.7,0.7,3.1,2,4,3.6c0.9,1.6,1.3,3.4,1,5.2c-0.5,3.6-1.9,7-3.9,10l-3,5.3l-0.5,1.1
			c-0.2,6.8-0.3,13.6-0.4,20.4c0.9-4.3,2.6-8.4,5-12.1c1.4-2.2,3.4-3.9,5.7-5.1c1.1-0.6,2.4-0.9,3.6-0.7c1.2,0.1,2.4,0.7,3.3,1.5
			c0.9,0.9,1.6,2,1.8,3.2c0.2,1.2,0.1,2.5-0.4,3.7c-0.8,2.2-2.2,4.2-3.9,5.8c-4.2,4.6-9.4,8-15.2,10.2c-0.7,23.4,0,46.9,2,70.3
			c0.7,7.3,1.6,14.5,2.6,21.7c0.5-11.4,4.1-22.4,10.3-32c2.5-4,6.1-7.1,10.3-9.2c2.1-1,4.5-1.3,6.8-1c2.3,0.3,4.5,1.4,6.2,2.9
			c1.4,1.6,2.4,3.6,2.8,5.7c0.4,2.1,0.2,4.3-0.5,6.3c-1.6,4-4,7.6-7.2,10.6c-7.5,7.6-17.9,15.9-28.3,18.7c1.2,8.5,2.5,16.9,4,25.2
			c0.1-5.6,1.1-11.2,2.8-16.6c1.4-4.5,3.9-8.5,7.4-11.7c1.6-1.6,3.7-2.7,6-3c2.2-0.4,4.6,0,6.6,1c2,1,3.7,2.7,4.7,4.7
			c1.1,2,1.4,4.3,1.1,6.6c-0.4,4.3-1.8,8.4-4,12.1c-5,8.9-12.2,19.3-21.1,25c8.1,38.4,18.9,76.3,32.4,113.1
			c-4-12.8-2.6-31.3,0.9-40.9c1.6-5.3,4.6-10,8.7-13.7c4.3-3.4,10.6-4.7,15.3-2c2.1,1.4,3.8,3.3,4.9,5.5c1.1,2.2,1.6,4.7,1.4,7.2
			c-0.5,5-2.1,9.9-4.7,14.2c-6.1,11.1-15.1,23.8-26.2,30.3c15.3,42.4,33.5,83.8,53,124.6c-5.9-15.7-6.4-37.3-3.5-49.3
			c1.7-6.7,4.2-13.6,9.2-18.6c5-4.9,12.8-7.5,19.2-4.7c5.9,2.6,9.3,9.1,9.8,15.5c0.1,6.5-1.2,12.9-4,18.7
			c-6.1,14.9-15.8,32.2-28.8,42c12.5,26,25.5,51.8,38.6,77.4C1595.9,1134.6,1594,1135.8,1593.3,1134.5z M1521.4,941.4
			c-2.8,11.5-2,32.9,4.5,46.7c11.6-8.5,20.1-23.9,25.5-37c2.4-5.1,3.6-10.8,3.5-16.4c-0.1-2.8-0.9-5.6-2.5-8
			c-1.5-2.4-3.6-4.4-6.2-5.7c-5.6-2.5-12.5-0.2-16.8,4.1C1525.3,929.7,1522.5,935.4,1521.4,941.4z M1465.7,696.7
			c-4.8,7.4-7.4,16-7.4,24.8c7.7-2,15.2-8,20.7-13.6c2.3-2.1,4.1-4.7,5.2-7.7c0.5-1.5,0.7-3.1,0.4-4.6c-0.3-1.5-0.9-3-1.9-4.2
			c-1.3-1.1-2.8-1.9-4.5-2.1c-1.7-0.2-3.4,0-4.9,0.7C1470.2,691.5,1467.6,693.8,1465.7,696.7z M1484.7,830.3
			c-3.3,9.3-4.7,27.2-0.6,39.2c10.4-6,18.9-18,24.6-28.4c2.5-4.1,4-8.7,4.5-13.4c0.4-2.5,0-5-1.2-7.3c-1.2-2.2-3-4-5.2-5.2
			c-2.2-1.1-4.8-1.5-7.3-1.1c-2.5,0.4-4.8,1.6-6.6,3.3C1489.1,820.9,1486.2,825.3,1484.7,830.3z M1440.3,762.5
			c2.8,1.5,5.6,2.9,8.5,4.2c1.7,0.7,7,4,8.7,3.5c2.2-0.7,0-5.7-0.7-7.9l-2.7-10.7c-1.6-6.4-3.3-13-7.5-18.1
			c-4.2-5.1-11.6-8.1-17.5-5.2c-2.2,1.2-4,3-5.2,5.2c-1.2,2.2-1.8,4.6-1.7,7.1c0.3,5,2.4,9.7,6,13.3
			C1431.8,757.4,1435.8,760.3,1440.3,762.5z M1535.8,1034.4c-5.8-8-11.9-16.2-20.6-20.8c-8.7-4.7-20.7-4.7-27.3,2.7
			c-2.3,2.9-3.8,6.4-4.3,10.1c-0.5,3.7,0.1,7.5,1.7,10.8c3.3,6.8,8.9,12.1,15.8,15c6.9,2.9,14.1,4.6,21.6,5.2
			c4.7,0.5,9.4,0.8,14.1,1c2.8,0.1,12,1.7,14.1,0c2.7-2.2-3.4-7.8-5.3-10.6L1535.8,1034.4z M1454.8,814.5c1.8,0.3,7.8,2,9.4,1
			c2-1.3-1.7-5.4-2.8-7.4l-5.5-9.6c-3.3-5.7-6.7-11.6-12.1-15.3c-5.4-3.7-13.4-4.6-18.3-0.2c-1.8,1.8-3,4-3.6,6.4
			c-0.6,2.4-0.5,5,0.3,7.3c1.7,4.8,5,8.7,9.4,11.2c4.3,2.4,9,4.1,13.9,5C1448.5,813.5,1451.7,814,1454.8,814.5z"/>
		
			<linearGradient id="SVGID_00000101071572283210932150000010659352315010115992_" gradientUnits="userSpaceOnUse" x1="1279.6943" y1="203.7219" x2="1137.6443" y2="674.798" gradientTransform="matrix(1 0 0 -1 0 1455.4353)">
			<stop  offset="0" style="stop-color:#424242"/>
			<stop  offset="0.21" style="stop-color:#626262"/>
			<stop  offset="0.99" style="stop-color:#D8D8D8"/>
		</linearGradient>
		<path style="fill:url(#SVGID_00000101071572283210932150000010659352315010115992_);" d="M1301.4,1248.7
			c-21.4-37.9-41.3-76.6-59.6-116.2c-6-12.9-11.8-25.9-17.4-39.1c-0.1,0.3-0.3,0.5-0.5,0.7c-2,1.6-10.7,0.1-13.2,0
			c-4.5-0.1-8.9-0.4-13.2-0.9c-7-0.5-13.8-2.2-20.3-4.9c-6.5-2.7-11.8-7.8-14.9-14.1c-1.5-3.2-2-6.7-1.6-10.2c0.4-3.5,1.8-6.8,4-9.5
			c6.2-6.9,17.5-6.9,25.6-2.5c8.1,4.4,13.9,12.1,19.4,19.6l9.2,12.5c0.8,1,2.2,2.5,3.3,4c-8.3-19.8-16.1-39.8-23.2-60
			c-0.1,0.1-0.2,0.2-0.4,0.3c-1.9,1.2-9.5-0.9-11.8-1.2c-3.9-0.6-7.8-1.2-11.6-2.1c-6.1-1.1-12.1-3.3-17.5-6.3
			c-5.5-3.1-9.7-8-11.8-14c-1-3-1.1-6.2-0.4-9.2c0.7-3,2.3-5.8,4.5-8c6.1-5.5,16.2-4.5,23,0.3c6.8,4.7,11.2,12.1,15.3,19.3l6.9,12
			c0.4,0.7,1,1.5,1.6,2.4c-6.3-18.2-12-36.6-17.2-55.2c-2.2,0.7-8.5-1-10.5-1.3c-3.7-0.5-7.3-1.2-10.9-2c-5.7-1.1-11.3-3.1-16.4-5.9
			c-5.2-2.9-9.1-7.5-11-13.1c-0.9-2.8-1.1-5.8-0.4-8.6c0.7-2.9,2.1-5.5,4.2-7.5c5.8-5.2,15.2-4.1,21.5,0.3s10.5,11.3,14.3,18
			c2.2,3.8,4.3,7.5,6.5,11.2c0.2,0.3,0.4,0.7,0.6,1c-3.2-12.1-6.2-24.3-8.9-36.6c-7.5-34.1-12.5-68.8-15-103.6
			c-0.3-3.8-0.5-7.7-0.8-11.7c-1.9-0.7-3.8-1.6-5.7-2.6c-2.2-1-4.5-2.1-6.6-3.2c-3.5-1.7-6.6-4-9.4-6.7c-2.8-2.8-4.4-6.4-4.6-10.3
			c-0.1-1.9,0.4-3.9,1.3-5.5c0.9-1.7,2.3-3.1,4-4c4.5-2.2,10.4,0,13.6,4c3.3,4,4.5,9.1,5.8,14.1l0.9,3.6c-0.6-12.4-0.8-25-0.4-37.6
			c-1.5-0.6-2.9-1.2-4.3-2c-1.7-0.8-3.4-1.6-5-2.5c-2.6-1.3-5-3-7.1-5.1c-2.1-2.1-3.3-4.9-3.5-7.8c-0.1-1.5,0.3-2.9,1-4.2
			c0.7-1.3,1.8-2.3,3.1-3c3.5-1.7,7.9,0,10.3,3.1c2.3,3.2,3.8,6.8,4.5,10.7c0.5,1.8,0.9,3.6,1.3,5.3c0.3-7,0.9-14.1,1.7-21
			c-1-1.5-1.8-3.2-2.2-4.9c-0.7-1.7-1.3-3.5-1.9-5.2c-1-2.8-1.5-5.7-1.6-8.6c-0.1-3,1-5.8,2.9-8.1c1-1.1,2.2-1.9,3.6-2.3
			c1.4-0.4,2.9-0.5,4.3-0.1c3.7,1.2,5.6,5.5,5.3,9.4c-0.6,3.9-2,7.5-4.2,10.8c-1.1,1.9-2.2,3.8-3.2,5.6c-0.2,0.3-0.3,0.7-0.6,1.1
			l-0.5,21.8c1-4.6,2.8-9,5.3-12.9c1.5-2.3,3.6-4.2,6.1-5.4c1.2-0.6,2.6-0.8,4-0.6c1.4,0.2,2.6,0.8,3.7,1.7c0.8,1,1.4,2.1,1.6,3.4
			c0.2,1.3,0.1,2.5-0.3,3.7c-0.9,2.4-2.4,4.5-4.2,6.2c-4.3,4.5-10.2,9.1-16.2,10.9c-0.8,25.1-0.1,50.2,2.1,75.2
			c0.8,7.8,1.7,15.5,2.8,23.2c0.6-12.2,4.4-24,11-34.2c2.7-4.2,6.5-7.6,11.1-9.8c2.3-1.1,4.8-1.4,7.3-1.1c2.5,0.4,4.8,1.5,6.7,3.1
			c1.5,1.8,2.5,3.9,2.9,6.2c0.4,2.3,0.2,4.6-0.6,6.8c-1.7,4.3-4.3,8.2-7.7,11.3c-8.1,8.2-19.1,17-30.3,20c1.2,9,2.7,18.1,4.2,27
			c0.1-6.1,1.1-12.1,3-17.9c1.5-4.8,4.2-9.1,8-12.5c1.9-1.6,4.2-2.7,6.7-3c2.5-0.3,5,0.1,7.3,1.2c1.9,1.3,3.4,3.1,4.5,5.1
			c1,2.1,1.4,4.4,1.3,6.7c-0.4,4.6-1.9,9-4.3,13c-5.3,9.7-13.1,20.7-22.6,26.8c8.7,41.1,20.3,81.6,34.8,121
			c-4.3-13.7-2.8-33.4,0.9-43.8c1.7-5.6,4.9-10.7,9.3-14.6c4.5-3.7,11.3-5.1,16.4-2.2c2.2,1.5,4.1,3.6,5.2,6
			c1.2,2.4,1.7,5.2,1.5,7.8c-0.5,5.4-2.2,10.6-5,15.2c-6.5,11.9-16.2,25.5-28,32.4c16.4,45.4,35.8,89.7,56.7,133.4
			c-6.3-16.7-6.9-39.9-3.7-52.8c1.7-7.3,4.5-14.6,9.8-19.9c5.3-5.3,13.7-8,20.5-5c6.3,2.8,10,9.8,10.5,16.6c0.1,7-1.3,13.9-4.3,20.1
			c-6.6,15.9-16.9,34.5-30.9,45c13.4,27.8,27.3,55.5,41.3,82.9C1304.2,1248.8,1302.1,1250.1,1301.4,1248.7z M1224.4,1042.1
			c-3,12.3-2.2,35.3,4.8,50c12.4-9.2,21.5-25.6,27.3-39.6c2.6-5.5,3.9-11.5,3.8-17.6c-0.1-3-1-6-2.6-8.6c-1.6-2.6-3.9-4.7-6.6-6.1
			c-6-2.6-13.4-0.2-18,4.5C1228.7,1029.6,1225.7,1035.6,1224.4,1042.1z M1164.8,780c-5.1,7.9-7.9,17.1-8,26.6
			c8.2-2.1,16.3-8.6,22.2-14.6c2.5-2.3,4.4-5.1,5.6-8.2c0.6-1.6,0.7-3.3,0.4-4.9c-0.3-1.7-1-3.2-2.1-4.5c-1.4-1.2-3-2-4.8-2.3
			c-1.8-0.3-3.6,0-5.3,0.8C1169.6,774.5,1166.8,777,1164.8,780z M1185.2,923.2c-3.6,10-5,29.1-0.6,41.9
			c11.2-6.5,20.1-19.3,26.3-30.4c2.7-4.3,4.3-9.2,4.7-14.3c0.2-2.5-0.3-5.1-1.4-7.4c-1.1-2.3-2.8-4.2-4.9-5.6
			c-4.8-2.8-11.2-1.4-15.4,2C1189.9,913.1,1186.8,917.8,1185.2,923.2L1185.2,923.2z M1137.6,850.6c2.9,1.6,6,3.1,9.1,4.5
			c1.8,0.8,7.5,4.3,9.4,3.8c2.4-0.7,0-6.1-0.7-8.4c-1-3.8-1.9-7.6-2.9-11.5c-1.7-6.8-3.5-13.9-8-19.4s-12.4-8.7-18.8-5.6
			c-2.3,1.3-4.3,3.2-5.5,5.5c-1.3,2.3-1.9,5-1.8,7.6c0.3,5.4,2.6,10.4,6.4,14.2C1128.5,845.1,1132.9,848.2,1137.6,850.6
			L1137.6,850.6z M1239.9,1141.6c-6.2-8.5-12.8-17.3-22.1-22.4c-9.3-5.1-22.2-5-29.2,2.9c-2.5,3.1-4.1,6.8-4.6,10.8
			c-0.5,3.9,0.1,8,1.8,11.6c3.5,7.2,9.5,13,16.9,16.1c7.3,3.1,15.2,4.9,23.1,5.5c5,0.6,10.1,0.9,15.1,1.1c3,0,12.9,1.8,15.1,0
			c2.9-2.4-3.6-8.4-5.7-11.3L1239.9,1141.6z M1153.1,906.1c2,0.3,8.4,2.1,10,1.1c2.1-1.4-1.8-5.8-3-7.9c-2-3.4-3.9-6.8-5.9-10.2
			c-3.5-6.1-7.2-12.4-13-16.4c-5.8-4-14.3-4.9-19.6-0.2c-1.9,1.9-3.2,4.2-3.8,6.8c-0.6,2.6-0.5,5.3,0.3,7.8c1.8,5.1,5.3,9.3,10,11.9
			c4.7,2.6,9.7,4.4,14.9,5.3C1146.5,905.1,1149.8,905.7,1153.1,906.1z"/>
		
			<linearGradient id="SVGID_00000067206248009110069810000009282838229489301650_" gradientUnits="userSpaceOnUse" x1="1272.1858" y1="261.607" x2="1236.6858" y2="754.5751" gradientTransform="matrix(1 0 0 -1 0 1455.4353)">
			<stop  offset="0" style="stop-color:#424242"/>
			<stop  offset="3.000000e-02" style="stop-color:#464646"/>
			<stop  offset="0.99" style="stop-color:#BCBCBC"/>
		</linearGradient>
		<path style="fill:url(#SVGID_00000067206248009110069810000009282838229489301650_);" d="M1293.7,1189.1
			c-12.6-41.7-23.5-83.8-32.7-126.4c-3-13.9-5.8-27.9-8.5-41.9c-0.2,0.2-0.4,0.4-0.7,0.6c-2.2,1.2-10.4-2.2-13-2.8
			c-4.3-1.1-8.5-2.4-12.7-3.8c-6.7-2-13-5.1-18.8-9.2c-5.7-4.1-9.8-10.2-11.4-17c-0.7-3.4-0.5-7,0.7-10.3c1.2-3.3,3.3-6.2,6-8.4
			c7.5-5.4,18.6-2.9,25.6,3.1c7,6.1,10.9,14.9,14.6,23.4l6.2,14.2c0.5,1.2,1.5,2.9,2.4,4.7c-3.8-21.1-7-42.3-9.6-63.6
			c-0.1,0.1-0.3,0.2-0.4,0.2c-2.2,0.8-8.9-3-11.2-3.8c-3.7-1.4-7.4-2.9-10.9-4.6c-5.7-2.5-11-5.8-15.6-10c-4.7-4.2-7.7-10-8.4-16.2
			c-0.3-3.1,0.2-6.2,1.6-9.1s3.5-5.2,6.1-6.8c7.2-4.1,16.7-0.8,22.4,5.3c5.6,6.1,8.2,14.2,10.7,22.1l4.1,13.2c0.2,0.7,0.6,1.7,1,2.7
			c-2.2-19.2-3.8-38.4-4.7-57.6c-2.4,0.2-8.1-2.9-10-3.6c-3.5-1.3-6.9-2.7-10.2-4.3c-5.4-2.3-10.4-5.5-14.7-9.3
			c-4.4-3.9-7.2-9.3-7.9-15.2c-0.3-2.9,0.2-5.9,1.5-8.5c1.3-2.6,3.3-4.9,5.8-6.4c6.7-3.8,15.6-0.7,21,5c5.3,5.7,7.7,13.4,10,20.8
			c1.3,4.1,2.6,8.3,3.8,12.4c0,0.3,0.2,0.7,0.4,1.1c-0.5-12.6-0.8-25.1-0.7-37.7c0.1-35,2.7-70,7.9-104.6c0.6-3.8,1.2-7.7,1.8-11.5
			c-1.7-1.1-3.4-2.4-4.9-3.8c-1.9-1.5-3.9-3-5.7-4.6c-3-2.4-5.6-5.3-7.7-8.6c-2.1-3.3-2.9-7.3-2.2-11.2c0.3-1.9,1.2-3.7,2.5-5.1
			c1.3-1.4,3-2.5,4.8-3c5-1.2,10.1,2.4,12.4,7c2,4.7,2.8,9.9,2.6,15v3.7c2.2-12.3,4.7-24.6,7.8-36.7c-1.3-0.9-2.6-1.9-3.8-2.9
			c-1.5-1.1-2.9-2.2-4.3-3.5c-2.3-1.8-4.2-4.1-5.8-6.5c-1.6-2.5-2.2-5.5-1.7-8.4c0.2-1.5,0.9-2.8,1.9-3.9c1-1.1,2.3-1.9,3.7-2.3
			c3.8-0.9,7.6,1.8,9.4,5.3c1.5,3.6,2.2,7.5,2,11.4l0.1,5.5c1.9-6.8,3.9-13.6,6.2-20.1c-0.6-1.7-0.9-3.5-1-5.3
			c-0.3-1.8-0.5-3.7-0.7-5.5c-0.4-2.9-0.3-5.9,0.3-8.7c0.6-2.9,2.2-5.5,4.5-7.3c1.2-0.9,2.6-1.4,4.1-1.5c1.5-0.1,2.9,0.2,4.2,0.9
			c3.3,1.9,4.3,6.6,3.2,10.3c-1.4,3.6-3.6,6.9-6.4,9.6l-4.5,4.8c-0.2,0.2-0.5,0.6-0.8,1c-1.8,7.1-3.5,14.1-5.2,21.2
			c1.9-4.3,4.6-8.1,8-11.4c2-1.9,4.4-3.3,7.1-3.9c1.3-0.4,2.7-0.3,3.9,0.1c1.3,0.4,2.4,1.3,3.1,2.4c0.8,1.1,1.2,2.4,1.1,3.8
			c0,1.3-0.5,2.6-1.3,3.7c-1.4,2.1-3.3,3.9-5.5,5.1c-5.4,3.8-11.7,6.2-18.2,7c-6.2,24.3-11,48.9-14.4,73.8c-1,7.8-1.7,15.5-2.4,23.3
			c3.3-11.7,9.6-22.4,18.3-30.9c3.6-3.5,8.1-6,12.9-7.2c2.4-0.5,5-0.3,7.3,0.6c2.3,0.9,4.4,2.5,5.8,4.5c1.1,2,1.6,4.3,1.5,6.6
			c-0.1,2.3-0.8,4.5-2.1,6.5c-2.6,3.8-6,7-10,9.3c-9.6,6.2-22.3,12.4-33.9,12.9c-0.8,9.1-1.3,18.2-1.8,27.3
			c1.4-5.9,3.7-11.5,6.8-16.7c2.5-4.4,6.1-8,10.5-10.4c2.2-1.2,4.7-1.7,7.2-1.5c2.5,0.2,4.9,1.2,6.8,2.7c1.6,1.7,2.7,3.7,3.2,6
			c0.5,2.2,0.4,4.6-0.2,6.8c-1.4,4.4-3.8,8.4-7,11.7c-7.3,8.3-17.3,17.3-27.9,21.2c-0.6,42,1.9,84.1,7.4,125.8
			c-1.2-14.3,4.5-33.2,10.5-42.5c2.9-5.1,7.2-9.4,12.3-12.3c5.3-2.5,12.2-2.5,16.5,1.5c1.9,2,3.2,4.4,3.8,7c0.6,2.6,0.5,5.4-0.2,8
			c-1.7,5.2-4.5,9.9-8.3,13.8c-8.9,10.2-21.4,21.3-34.4,25.5c6.1,47.9,15.4,95.4,26.2,142.6c-2.5-17.6,2-40.4,7.9-52.3
			c3.3-6.7,7.6-13.3,13.9-17.2c6.3-4,15.1-4.9,21.1-0.4c5.6,4.1,7.6,11.7,6.7,18.5c-1.4,6.8-4.3,13.2-8.6,18.6
			c-9.8,14.1-24,30-39.9,37.1c6.9,30.1,14.5,60.1,22.2,89.9C1296.3,1189.8,1294.1,1190.6,1293.7,1189.1z M1263.7,970.6
			c-5.6,11.4-9.8,34-6.3,49.8c14.1-6.2,26.5-20.2,35.3-32.7c3.7-4.8,6.3-10.4,7.5-16.3c0.9-6-0.9-12.7-5.8-16.3
			c-5.3-3.9-13-3.1-18.5,0.4C1270.5,959.3,1266.3,964.5,1263.7,970.6z M1262.8,701.9c-6.8,6.6-11.5,15-13.6,24.2
			c8.5-0.2,17.9-4.8,24.8-9.4c2.9-1.6,5.4-3.9,7.3-6.7c0.9-1.4,1.4-3,1.5-4.7c0.1-1.7-0.3-3.3-1.1-4.8c-1.1-1.5-2.5-2.6-4.2-3.3
			c-1.7-0.7-3.6-0.8-5.3-0.4C1268.6,697.6,1265.4,699.4,1262.8,701.9z M1251.4,846c-5.7,8.9-11.2,27.3-9.8,40.8
			c12.2-3.9,23.9-14.4,32.3-23.9c3.5-3.6,6.2-8.1,7.8-12.9c0.7-2.4,0.8-5,0.2-7.5c-0.6-2.5-1.8-4.7-3.6-6.6c-2.2-1.7-4.8-2.8-7.5-3
			c-2.8-0.2-5.5,0.3-7.9,1.6C1258.1,837.2,1254.1,841.2,1251.4,846L1251.4,846z M1220.8,764.8c2.5,2.2,5.2,4.3,7.9,6.3
			c1.6,1.2,6.4,5.9,8.3,5.7c2.5-0.2,1.2-6,1.2-8.4c0-3.9-0.2-7.9-0.3-11.8c-0.2-7-0.4-14.4-3.6-20.6c-3.2-6.3-10.3-11.2-17.1-9.5
			c-2.6,0.7-4.8,2.2-6.6,4.2c-1.8,2-3,4.4-3.4,7c-0.8,5.3,0.3,10.7,3.2,15.3C1213.1,757.4,1216.7,761.4,1220.8,764.8L1220.8,764.8z
			 M1257,1071.2c-4.2-9.7-8.7-19.7-16.7-26.6c-8-6.9-20.5-9.7-29.1-3.6c-3.1,2.5-5.5,5.8-6.8,9.6c-1.3,3.8-1.6,7.8-0.8,11.7
			c1.8,7.8,6.4,14.7,13,19.4c6.5,4.6,13.7,8.1,21.3,10.4c4.8,1.7,9.6,3.1,14.5,4.3c2.9,0.7,12.1,4.5,14.7,3.2
			c3.4-1.7-1.6-8.9-3.1-12.3c-2.4-5.5-4.8-10.9-7.1-16.3V1071.2z M1223.8,822.5c1.8,0.7,7.7,3.9,9.5,3.2c2.4-0.9-0.5-6.1-1.2-8.4
			l-3.5-11.2c-2.1-6.7-4.3-13.7-9.1-18.9c-4.8-5.2-12.9-8-19-4.5c-2.3,1.4-4.1,3.4-5.3,5.8c-1.2,2.4-1.7,5.1-1.4,7.7
			c0.6,5.3,3.2,10.2,7.2,13.8c4,3.5,8.5,6.4,13.4,8.5c3.1,1.2,6.2,2.5,9.4,3.7V822.5z"/>
		
			<linearGradient id="SVGID_00000149356263951226097340000001484604345103635364_" gradientUnits="userSpaceOnUse" x1="942.5052" y1="100.6012" x2="907.0033" y2="593.5693" gradientTransform="matrix(1 0 0 -1 0 1455.4353)">
			<stop  offset="0" style="stop-color:#424242"/>
			<stop  offset="3.000000e-02" style="stop-color:#464646"/>
			<stop  offset="0.99" style="stop-color:#BCBCBC"/>
		</linearGradient>
		<path style="fill:url(#SVGID_00000149356263951226097340000001484604345103635364_);" d="M963.9,1349.7
			c-12.6-41.7-23.5-83.8-32.8-126.4c-3-13.9-5.8-27.9-8.5-41.9c-0.2,0.2-0.4,0.4-0.6,0.6c-2.2,1.2-10.4-2.2-13-2.8
			c-4.3-1.1-8.5-2.4-12.7-3.8c-6.7-2-13-5.1-18.7-9.2c-5.7-4.1-9.7-10.2-11.3-17c-0.7-3.4-0.5-7,0.7-10.3c1.2-3.3,3.3-6.2,6-8.4
			c7.5-5.4,18.6-2.9,25.6,3.2c7,6.1,10.9,14.9,14.6,23.4c2.1,4.7,4.1,9.5,6.2,14.2c0.5,1.2,1.5,2.9,2.4,4.7
			c-3.8-21.1-7-42.3-9.6-63.6c-0.1,0.1-0.3,0.2-0.4,0.2c-2.1,0.8-9.1-3-11.2-3.8c-3.7-1.4-7.4-2.9-10.9-4.6
			c-5.7-2.5-11-5.8-15.6-9.9c-4.7-4.2-7.7-10-8.4-16.2c-0.3-3.1,0.2-6.2,1.6-9.1c1.4-2.8,3.5-5.2,6.1-6.8c7.2-4.1,16.7-0.8,22.3,5.3
			c5.6,6.1,8.2,14.2,10.7,22.1l4.1,13.2c0.2,0.7,0.6,1.7,1,2.7c-2.2-19.2-3.7-38.4-4.7-57.6c-2.4,0.2-8.1-2.9-9.9-3.6
			c-3.5-1.3-6.9-2.7-10.2-4.3c-5.4-2.3-10.3-5.5-14.7-9.3c-4.4-3.9-7.2-9.3-7.9-15.2c-0.3-2.9,0.2-5.9,1.5-8.5
			c1.3-2.6,3.3-4.9,5.7-6.4c6.7-3.8,15.6-0.7,21,5c5.3,5.7,7.7,13.4,10,20.8l3.9,12.4c0,0.3,0.2,0.7,0.4,1.1
			c-0.5-12.5-0.8-25.1-0.7-37.7c0.1-35,2.7-70,8-104.6c0.6-3.8,1.2-7.7,1.8-11.5c-1.7-1.1-3.4-2.4-4.9-3.8c-2-1.5-3.9-3-5.7-4.5
			c-3-2.4-5.6-5.4-7.7-8.6c-2.1-3.3-2.9-7.3-2.2-11.2c0.3-1.9,1.2-3.7,2.5-5.1c1.3-1.4,3-2.5,4.8-3c5-1.2,10.1,2.4,12.4,7
			c2,4.7,2.9,9.9,2.6,15c0,1.2,0,2.5,0,3.7c2.2-12.3,4.7-24.6,7.8-36.7c-1.3-0.9-2.6-1.8-3.8-2.9c-1.5-1.1-3-2.2-4.3-3.5
			c-2.3-1.8-4.2-4.1-5.8-6.5c-1.6-2.5-2.2-5.5-1.7-8.4c0.3-1.4,0.9-2.8,1.9-3.9s2.2-1.9,3.6-2.3c3.8-0.9,7.7,1.8,9.4,5.3
			c1.5,3.6,2.2,7.5,2,11.4l0.1,5.5c1.9-6.8,3.9-13.6,6.2-20.1c-0.6-1.7-0.9-3.5-1-5.3c-0.3-1.8-0.6-3.7-0.7-5.5
			c-0.4-2.9-0.3-5.9,0.3-8.7c0.6-2.9,2.1-5.5,4.5-7.3c1.2-0.9,2.6-1.4,4.1-1.5c1.5-0.1,2.9,0.2,4.2,0.9c3.3,1.9,4.3,6.6,3.2,10.3
			c-1.4,3.6-3.6,6.9-6.4,9.6l-4.5,4.8c-0.2,0.2-0.5,0.6-0.8,1c-1.7,7.1-3.5,14.1-5.2,21.2c1.9-4.3,4.6-8.1,8-11.4
			c2-1.9,4.4-3.3,7.1-3.9c1.3-0.3,2.7-0.2,4,0.3c1.3,0.5,2.4,1.4,3.2,2.5c0.6,1.1,0.9,2.4,0.8,3.7c-0.1,1.3-0.5,2.5-1.1,3.6
			c-1.4,2.1-3.3,3.9-5.5,5.2c-5.4,3.8-11.7,6.2-18.2,7c-6.2,24.3-11,48.9-14.4,73.8c-0.9,7.8-1.7,15.5-2.4,23.3
			c3.2-11.8,9.5-22.5,18.2-31c3.6-3.5,8.1-6,12.9-7.2c2.3-0.7,4.9-0.6,7.2,0.2c2.3,0.8,4.3,2.3,5.7,4.4c1.4,2,2.1,4.4,2.1,6.9
			c0,2.4-0.9,4.8-2.3,6.8c-2.6,3.8-6,7-10,9.3c-9.6,6.2-22.3,12.4-33.9,12.9c-0.8,9.1-1.4,18.2-1.8,27.3c1.4-5.9,3.7-11.5,6.7-16.7
			c2.5-4.4,6.1-8,10.5-10.4c2.2-1.2,4.7-1.7,7.2-1.5c2.5,0.2,4.9,1.2,6.8,2.7c1.6,1.7,2.7,3.7,3.2,6c0.5,2.2,0.5,4.6-0.2,6.8
			c-1.4,4.4-3.8,8.4-7,11.7c-7.3,8.3-17.3,17.3-27.9,21.2c-0.5,42.1,2,84.2,7.5,125.9c-1.2-14.3,4.5-33.2,10.5-42.5
			c2.9-5.1,7.2-9.4,12.3-12.2c5.3-2.6,12.2-2.5,16.5,1.5c1.9,2,3.2,4.4,3.8,7c0.6,2.6,0.5,5.4-0.3,8c-1.7,5.1-4.5,9.8-8.2,13.7
			c-8.9,10.2-21.3,21.3-34.4,25.5c6.1,47.9,15.4,95.4,26.2,142.6c-2.5-17.6,2-40.4,7.9-52.3c3.3-6.7,7.6-13.3,13.9-17.2
			c6.3-4,15.1-4.8,21.1-0.4c5.6,4.1,7.6,11.7,6.6,18.5c-1.4,6.8-4.3,13.2-8.6,18.6c-9.9,14.1-24,30-39.9,37.1
			c7,30.1,14.5,60.1,22.2,89.9C966.6,1350.4,964.4,1351.2,963.9,1349.7z M933.9,1131.2c-5.6,11.3-9.8,33.9-6.3,49.8
			c14.1-6.2,26.6-20.2,35.3-32.7c3.7-4.8,6.3-10.4,7.5-16.4c0.9-6-0.9-12.7-5.8-16.3c-5.3-3.9-13-3.2-18.5,0.3
			C940.8,1119.8,936.5,1125.1,933.9,1131.2z M933,862.4c-6.7,6.6-11.5,15-13.6,24.2c8.5-0.2,17.9-4.8,24.9-9.4
			c2.9-1.7,5.4-3.9,7.2-6.7c0.9-1.4,1.4-3,1.5-4.7c0.1-1.7-0.3-3.3-1.1-4.8c-1.1-1.5-2.5-2.6-4.2-3.3c-1.7-0.7-3.6-0.8-5.3-0.4
			C938.9,858.1,935.6,859.9,933,862.4z M921.6,1006.5c-5.7,8.9-11.2,27.3-9.7,40.8c12.2-3.9,23.9-14.4,32.3-23.9
			c3.5-3.6,6.2-8,7.8-12.8c0.7-2.4,0.8-5,0.2-7.5c-0.6-2.5-1.8-4.7-3.6-6.6c-2.2-1.7-4.8-2.8-7.5-3c-2.7-0.2-5.5,0.3-7.9,1.6
			C928.4,997.8,924.4,1001.7,921.6,1006.5z M891.1,925.3c2.5,2.2,5.2,4.3,7.9,6.3c1.6,1.2,6.4,5.9,8.3,5.7c2.5-0.2,1.2-6,1.2-8.4
			l-0.3-11.8c-0.2-7-0.4-14.4-3.6-20.6c-3.2-6.3-10.3-11.2-17.1-9.5c-2.5,0.7-4.8,2.2-6.6,4.2c-1.8,2-3,4.4-3.5,7
			c-0.8,5.3,0.3,10.7,3.2,15.3C883.4,917.9,886.9,921.9,891.1,925.3z M927.3,1231.7c-4.2-9.7-8.7-19.7-16.7-26.6
			c-8-6.9-20.5-9.7-29.1-3.6c-3.1,2.5-5.5,5.8-6.8,9.6c-1.3,3.8-1.6,7.8-0.8,11.7c1.8,7.8,6.4,14.7,13,19.4
			c6.5,4.6,13.7,8.1,21.3,10.4c4.8,1.7,9.6,3.1,14.5,4.3c2.9,0.7,12.2,4.5,14.8,3.2c3.4-1.7-1.7-8.9-3.1-12.3
			C932,1242.4,929.6,1237,927.3,1231.7L927.3,1231.7z M894,983c1.9,0.7,7.7,3.9,9.5,3.2c2.4-0.9-0.4-6.1-1.2-8.4
			c-1.2-3.8-2.3-7.5-3.5-11.2c-2.1-6.7-4.3-13.7-9.1-18.9c-4.8-5.2-12.9-8-19.1-4.5c-2.3,1.4-4.1,3.4-5.3,5.8
			c-1.2,2.4-1.7,5.1-1.4,7.7c0.6,5.3,3.2,10.2,7.2,13.8c4,3.5,8.5,6.4,13.4,8.5C887.8,980.4,890.9,981.7,894,983L894,983z"/>
		
			<linearGradient id="SVGID_00000049183376842297464440000013060153092362084770_" gradientUnits="userSpaceOnUse" x1="-84.0877" y1="287.6753" x2="57.9656" y2="758.7803" gradientTransform="matrix(1 0 0 -1 0 1455.4353)">
			<stop  offset="0" style="stop-color:#424242"/>
			<stop  offset="0.99" style="stop-color:#5F5F5F"/>
		</linearGradient>
		<path style="fill:url(#SVGID_00000049183376842297464440000013060153092362084770_);" d="M-107.9,1163.5
			c14.1-27.5,28-55,41.3-82.9c-14-10.4-24.3-29.1-30.9-44.9c-3-6.3-4.5-13.2-4.3-20.1c0.5-6.9,4.2-13.9,10.5-16.6
			c6.9-3,15.2-0.3,20.5,5c5.3,5.3,8,12.6,9.8,19.9c3.1,12.9,2.5,36.2-3.8,52.8c20.9-43.7,40.2-88.1,56.7-133.4
			c-11.8-6.9-21.5-20.6-28-32.4c-2.8-4.6-4.6-9.8-5.1-15.1c-0.2-2.7,0.3-5.4,1.5-7.8s3-4.5,5.2-6c5.1-2.9,11.8-1.5,16.4,2.2
			c4.4,3.9,7.6,9,9.3,14.6c3.7,10.4,5.3,30.1,0.9,43.8c14.4-39.5,26-80,34.6-121.1c-9.5-6.1-17.3-17.1-22.6-26.8
			c-2.4-3.9-3.9-8.4-4.3-13c-0.2-2.3,0.3-4.6,1.3-6.7c1-2.1,2.6-3.9,4.5-5.1c2.3-1.1,4.8-1.5,7.3-1.2c2.5,0.3,4.8,1.4,6.7,3
			c3.7,3.3,6.5,7.7,8,12.5c1.9,5.8,2.9,11.8,3,17.9c1.6-8.9,3-18,4.3-27c-11.2-3-22.3-11.8-30.3-20c-3.5-3.1-6.1-7-7.8-11.4
			c-0.8-2.2-1-4.5-0.6-6.8c0.4-2.3,1.4-4.4,2.9-6.2c1.9-1.7,4.2-2.8,6.7-3.1c2.5-0.4,5,0,7.3,1c4.6,2.2,8.4,5.6,11.2,9.8
			c6.6,10.3,10.4,22.1,11,34.3c1-7.7,2-15.5,2.7-23.2c2.2-25,2.9-50.1,2.2-75.3c-6-1.7-11.9-6.5-16.2-10.8c-1.9-1.7-3.3-3.9-4.2-6.2
			c-0.5-1.2-0.7-2.6-0.4-3.9c0.3-1.3,0.9-2.5,1.9-3.4c1-0.9,2.2-1.5,3.6-1.7c1.3-0.2,2.7,0.1,3.9,0.7c2.5,1.2,4.6,3.1,6.1,5.4
			c2.6,3.9,4.3,8.3,5.3,12.9c-0.1-7.2-0.3-14.5-0.5-21.8c-0.2-0.4-0.4-0.8-0.6-1.1l-3.2-5.6c-2.2-3.2-3.6-6.9-4.2-10.8
			c-0.3-3.9,1.7-8.2,5.3-9.4c1.4-0.4,2.9-0.3,4.3,0.1c1.4,0.4,2.7,1.2,3.6,2.3c1.9,2.2,2.9,5.1,2.9,8.1c-0.1,2.9-0.6,5.8-1.6,8.6
			c-0.6,1.8-1.2,3.5-1.9,5.2c-0.5,1.8-1.2,3.4-2.2,4.9c0.8,7,1.4,14,1.7,21l1.3-5.3c0.7-3.8,2.2-7.5,4.5-10.7
			c2.5-3,6.9-4.8,10.3-3.1c1.3,0.7,2.4,1.8,3.1,3c0.7,1.3,1.1,2.7,1,4.2c-0.2,3-1.4,5.7-3.5,7.8c-2.1,2.1-4.5,3.8-7.1,5.1
			c-1.6,0.9-3.3,1.7-5,2.5c-1.4,0.8-2.8,1.5-4.3,2c0.4,12.5,0.2,25.1-0.4,37.6c0.3-1.2,0.6-2.4,0.9-3.6c1.2-5,2.6-10.1,5.8-14.1
			c3.2-3.9,9.1-6.3,13.7-4c1.7,1,3.1,2.4,4,4.1c0.9,1.7,1.4,3.6,1.2,5.6c-0.2,3.9-1.9,7.6-4.6,10.3c-2.7,2.7-5.9,5-9.4,6.7
			c-2.2,1.2-4.5,2.2-6.7,3.2c-1.8,1-3.7,1.9-5.7,2.6c-0.2,3.9-0.5,7.8-0.7,11.7c-2.5,34.9-7.6,69.6-15.1,103.8
			c-2.7,12.3-5.7,24.5-8.9,36.6l0.6-1l6.5-11.2c3.9-6.7,7.9-13.7,14.3-18.1c6.4-4.4,15.8-5.4,21.5-0.2c2.1,2.1,3.5,4.7,4.2,7.5
			c0.7,2.9,0.6,5.8-0.4,8.6c-2,5.6-5.9,10.2-11,13.1c-5.1,2.8-10.7,4.8-16.4,5.9c-3.6,0.8-7.3,1.5-10.9,2c-2,0.3-8.2,2-10.5,1.3
			c-5.1,18.6-10.9,37-17.2,55.2c0.6-0.9,1.2-1.7,1.6-2.4l7-12.2c4.1-7.2,8.4-14.6,15.2-19.3c6.8-4.7,16.9-5.8,23-0.3
			c2.2,2.2,3.8,5,4.5,8c0.7,3,0.6,6.2-0.4,9.2c-2.1,5.9-6.3,10.9-11.8,14c-5.5,3-11.4,5.1-17.5,6.2c-3.9,0.9-7.8,1.6-11.7,2.2
			c-2.2,0.3-9.9,2.5-11.8,1.3c-0.1-0.1-0.3-0.2-0.4-0.3c-7.1,20.1-14.9,40.3-23.2,59.9c1.2-1.5,2.6-3,3.3-4l9.2-12.5
			c5.5-7.5,11.2-15.2,19.4-19.6c8.2-4.4,19.5-4.5,25.7,2.5c2.2,2.7,3.6,6,4,9.5c0.4,3.5-0.1,7-1.6,10.2c-3.1,6.4-8.3,11.4-14.8,14.1
			c-6.5,2.7-13.3,4.3-20.3,4.8c-4.5,0.5-8.9,0.8-13.3,0.9c-2.6,0-11.2,1.6-13.3,0c-0.2-0.2-0.4-0.4-0.5-0.7
			c-5.6,13.1-11.4,26.2-17.4,39.1c-18.3,39.4-38.2,78.1-59.6,116.1C-106.6,1166.1-108.6,1164.9-107.9,1163.5z M-37.4,940.6
			c-4.7-4.6-12-7-18-4.5c-5.5,2.4-8.8,8.6-9.2,14.6c-0.1,6.1,1.2,12.1,3.8,17.6c5.8,14,14.9,30.5,27.3,39.6
			c6.9-14.7,7.8-37.7,4.8-50C-30,951.5-33,945.5-37.4,940.6z M22.7,688.9c-1.6-0.9-3.3-1.2-5.1-1s-3.4,1-4.7,2.2
			c-1.3,1.2-2.2,2.8-2.6,4.5c-0.4,1.7-0.1,3.6,0.6,5.2c1.2,3.1,3.1,6,5.6,8.2c5.9,6,14,12.5,22.2,14.6c0-9.4-2.8-18.7-8-26.5
			C28.8,693,26,690.5,22.7,688.9z M1.6,825.4c-4.3-3.4-10.6-4.8-15.4-2c-2.1,1.4-3.8,3.4-4.9,5.6c-1.1,2.3-1.6,4.8-1.4,7.4
			c0.5,5.1,2.1,9.9,4.8,14.3c6.1,11.2,15.2,24,26.3,30.4c4.5-12.8,3-32-0.6-41.9C8.8,833.8,5.8,829.1,1.6,825.4L1.6,825.4z
			 M70.9,757.2c3.8-3.8,6.1-8.8,6.4-14.2c0.1-2.7-0.5-5.3-1.8-7.6c-1.3-2.3-3.2-4.2-5.5-5.5c-6.3-3.1-14.3,0.2-18.8,5.6
			c-4.5,5.4-6.3,12.5-8,19.4c-0.9,3.8-1.9,7.6-2.9,11.5c-0.6,2.3-3.1,7.7-0.7,8.4c1.9,0.6,7.6-3,9.3-3.8c3.1-1.4,6.1-2.8,9.1-4.5
			C62.8,764.1,67.1,761,70.9,757.2L70.9,757.2z M-54.7,1071.9c-2.2,2.9-8.6,8.9-5.7,11.3c2.2,1.8,12.1,0.2,15.1,0
			c5-0.1,10.1-0.5,15.1-1c7.9-0.6,15.7-2.5,23.1-5.5c7.4-3.1,13.4-8.8,16.9-16.1c1.7-3.6,2.3-7.6,1.8-11.6
			c-0.5-3.9-2.1-7.7-4.6-10.8c-7-7.9-19.9-7.9-29.2-2.9c-9.3,5-15.8,13.8-22,22.4C-47.7,1062.4-51.2,1067.1-54.7,1071.9z
			 M52.4,820.5c5.2-1,10.3-2.8,14.9-5.3c4.7-2.6,8.3-6.9,10.1-11.9c0.8-2.5,1-5.2,0.3-7.8s-1.9-5-3.8-6.8
			c-5.2-4.7-13.8-3.8-19.6,0.2s-9.5,10.3-13,16.4l-5.9,10.2c-1.2,2.1-5.1,6.6-3,7.9c1.6,1.1,8.1-0.8,10-1.1
			C45.8,821.7,49.2,821.1,52.4,820.5z"/>
		
			<linearGradient id="SVGID_00000125577110060687195330000003924124159875773607_" gradientUnits="userSpaceOnUse" x1="279.3335" y1="146.7012" x2="421.3865" y2="617.8012" gradientTransform="matrix(1 0 0 -1 0 1455.4353)">
			<stop  offset="0" style="stop-color:#424242"/>
			<stop  offset="0.21" style="stop-color:#626262"/>
			<stop  offset="0.99" style="stop-color:#D8D8D8"/>
		</linearGradient>
		<path style="fill:url(#SVGID_00000125577110060687195330000003924124159875773607_);" d="M255.5,1304.5c14-27.4,28-55,41.3-82.9
			c-14-10.4-24.3-29.1-30.9-44.9c-3-6.3-4.4-13.2-4.3-20.1c0.5-6.9,4.2-13.9,10.5-16.6c6.8-3,15.2-0.3,20.5,5
			c5.3,5.3,8,12.6,9.8,19.9c3.1,12.9,2.5,36.2-3.8,52.8c20.9-43.7,40.3-88.1,56.7-133.4c-11.8-6.9-21.5-20.6-28-32.4
			c-2.8-4.6-4.6-9.8-5.1-15.2c-0.2-2.7,0.3-5.4,1.5-7.8c1.2-2.4,3-4.5,5.2-6c5.1-2.9,11.8-1.5,16.4,2.2c4.4,3.9,7.6,9,9.3,14.7
			c3.8,10.4,5.3,30.1,0.9,43.8c14.4-39.5,26-80,34.7-121.1c-9.5-6.1-17.3-17.1-22.6-26.8c-2.4-3.9-3.9-8.4-4.3-13
			c-0.2-2.3,0.3-4.6,1.3-6.7c1-2.1,2.6-3.8,4.5-5.1c2.3-1.1,4.8-1.5,7.3-1.2c2.5,0.3,4.8,1.4,6.7,3c3.8,3.3,6.5,7.7,8,12.5
			c1.9,5.8,2.9,11.8,3,17.9c1.6-8.9,3-18,4.2-27c-11.2-3-22.3-11.8-30.3-20c-3.4-3.1-6-7-7.7-11.3c-0.8-2.2-1-4.5-0.6-6.8
			c0.4-2.3,1.4-4.4,2.9-6.2c1.9-1.7,4.2-2.8,6.7-3.1c2.5-0.4,5,0,7.3,1c4.6,2.2,8.4,5.6,11.2,9.8c6.6,10.2,10.4,22.1,11,34.3
			c1-7.7,2-15.5,2.7-23.2c2.2-25,2.9-50.2,2.1-75.3c-6.2-2.3-11.8-6-16.2-10.8c-1.9-1.7-3.3-3.9-4.2-6.2c-0.6-1.2-0.7-2.6-0.4-3.9
			c0.3-1.3,0.9-2.5,1.9-3.4c1-0.9,2.2-1.5,3.6-1.7c1.3-0.2,2.7,0.1,3.9,0.7c2.5,1.2,4.6,3.1,6.1,5.4c2.5,3.9,4.3,8.3,5.3,12.9
			l-0.5-21.8c-0.2-0.4-0.4-0.8-0.6-1.1l-3.1-5.7c-2.2-3.2-3.6-6.9-4.2-10.7c-0.3-3.9,1.6-8.2,5.3-9.4c1.4-0.4,2.9-0.3,4.3,0.1
			c1.4,0.4,2.7,1.2,3.6,2.3c1.9,2.3,2.9,5.1,2.9,8.1c-0.1,2.9-0.6,5.8-1.6,8.6c-0.6,1.8-1.2,3.5-1.9,5.2c-0.4,1.7-1.2,3.4-2.1,4.9
			c0.8,7,1.3,14,1.7,21c0.4-1.8,0.9-3.6,1.3-5.3c0.7-3.8,2.2-7.5,4.5-10.7c2.5-3,6.9-4.8,10.3-3.1c1.3,0.7,2.4,1.8,3.1,3
			s1.1,2.7,1,4.2c-0.2,3-1.4,5.7-3.5,7.8c-2.1,2.1-4.5,3.8-7.1,5.1c-1.6,0.9-3.3,1.7-5,2.5c-1.4,0.8-2.8,1.5-4.3,2
			c0.4,12.5,0.2,25.1-0.4,37.6l0.9-3.6c1.3-5,2.6-10.1,5.8-14.1c3.3-3.9,9.1-6.3,13.6-4c1.7,0.9,3.1,2.3,4,4
			c0.9,1.7,1.4,3.6,1.3,5.5c-0.3,3.9-1.9,7.6-4.7,10.3c-2.7,2.7-5.9,5-9.4,6.7c-2.2,1.2-4.4,2.2-6.6,3.2c-1.8,1-3.7,1.9-5.7,2.6
			c-0.2,3.9-0.5,7.8-0.8,11.7c-2.5,34.9-7.5,69.6-15.1,103.8c-2.7,12.3-5.7,24.5-8.9,36.6c0.2-0.3,0.4-0.6,0.6-1l6.5-11.2
			c3.8-6.7,7.9-13.7,14.3-18.1c6.4-4.4,15.8-5.4,21.5-0.2c2.1,2.1,3.5,4.7,4.2,7.5c0.7,2.8,0.5,5.8-0.4,8.6c-2,5.6-5.9,10.2-11,13.1
			c-5.1,2.8-10.7,4.8-16.4,5.9c-3.6,0.8-7.3,1.5-10.9,2c-2,0.3-8.2,2-10.5,1.3c-5.2,18.6-10.9,37-17.2,55.2c0.6-0.9,1.2-1.7,1.6-2.4
			l6.9-12c4.1-7.2,8.5-14.6,15.3-19.3c6.8-4.7,16.8-5.8,23-0.3c2.2,2.2,3.8,5,4.5,8c0.7,3,0.6,6.2-0.4,9.2
			c-2.1,5.9-6.3,10.9-11.8,14c-5.5,3-11.4,5.1-17.5,6.3c-3.8,0.9-7.8,1.6-11.7,2.1c-2.2,0.3-9.9,2.5-11.8,1.2
			c-0.1-0.1-0.2-0.2-0.4-0.3c-7.2,20.2-14.9,40.2-23.2,59.9c1.2-1.5,2.6-3,3.4-4l9.2-12.5c5.5-7.5,11.2-15.2,19.4-19.6
			c8.2-4.4,19.5-4.5,25.6,2.5c2.2,2.7,3.6,6,4,9.5c0.4,3.5-0.1,7-1.6,10.2c-3.1,6.4-8.4,11.4-14.9,14.1c-6.5,2.7-13.3,4.3-20.3,4.8
			c-4.5,0.5-8.8,0.8-13.3,0.9c-2.6,0-11.2,1.6-13.3,0c-0.2-0.2-0.4-0.4-0.5-0.7c-5.6,13.1-11.4,26.2-17.4,39.1
			c-18.4,39.5-38.2,78.2-59.6,116.3C256.8,1307.1,254.8,1305.8,255.5,1304.5z M325.9,1081.6c-4.6-4.7-12-7.1-18-4.5
			c-5.5,2.4-8.8,8.6-9.2,14.6c-0.1,6.1,1.2,12.1,3.8,17.6c5.8,14.1,14.9,30.5,27.3,39.6c6.9-14.7,7.7-37.7,4.8-50
			C333.3,1092.5,330.3,1086.5,325.9,1081.6z M386.1,829.9c-1.6-0.9-3.3-1.2-5.1-1c-1.8,0.2-3.4,1-4.7,2.2c-1.3,1.2-2.2,2.8-2.6,4.5
			c-0.4,1.7-0.2,3.5,0.6,5.2c1.2,3.1,3.1,5.9,5.6,8.2c5.9,6,13.9,12.5,22.2,14.6c-0.1-9.4-2.8-18.6-8-26.5
			C392.2,834,389.4,831.5,386.1,829.9z M365,966.3c-1.9-1.9-4.4-3.1-7-3.5c-2.7-0.4-5.4,0-7.8,1.2c-2.4,1.2-4.4,3.1-5.6,5.5
			s-1.7,5.1-1.3,7.8c0.5,5.1,2.1,9.9,4.7,14.3c6.1,11.2,15.2,23.9,26.3,30.4c4.5-12.8,3-32-0.6-41.9
			C372.1,974.8,369.1,970.1,365,966.3L365,966.3z M434.3,898.2c3.8-3.8,6.1-8.8,6.4-14.2c0.1-2.7-0.5-5.3-1.8-7.6
			c-1.3-2.3-3.2-4.2-5.6-5.5c-6.3-3.1-14.3,0.2-18.8,5.6c-4.5,5.4-6.3,12.5-8,19.4c-1,3.8-1.9,7.6-2.9,11.5
			c-0.6,2.3-3.1,7.7-0.7,8.4c1.8,0.6,7.5-3,9.3-3.8c3.1-1.4,6.1-2.9,8.9-4.5C426.1,905.1,430.4,902,434.3,898.2L434.3,898.2z
			 M308.7,1212.8c-2.1,2.9-8.6,9-5.7,11.3c2.2,1.8,12.1,0.1,15.1,0c5.1-0.2,10.1-0.5,15.1-1.1c7.9-0.6,15.7-2.5,23.1-5.5
			c7.4-3.1,13.4-8.8,16.9-16.1c1.7-3.6,2.3-7.6,1.8-11.6c-0.5-3.9-2.1-7.7-4.6-10.8c-7-7.9-19.9-7.9-29.2-2.9
			c-9.3,5-15.8,13.8-22.1,22.4C315.6,1203.3,312.1,1208.1,308.7,1212.8z M415.8,961.4c5.2-1,10.3-2.8,14.9-5.3
			c4.7-2.6,8.3-6.9,10-11.9c0.8-2.5,1-5.2,0.4-7.8c-0.6-2.6-1.9-5-3.8-6.8c-5.2-4.7-13.8-3.8-19.6,0.2c-5.8,4-9.5,10.3-13,16.4
			l-5.9,10.2c-1.2,2.1-5.1,6.5-3,7.9c1.6,1,8.1-0.8,10-1.1C409.2,962.7,412.5,962.1,415.8,961.4z"/>
		
			<linearGradient id="SVGID_00000116928155968299752820000009432419504328746898_" gradientUnits="userSpaceOnUse" x1="695.977" y1="110.1993" x2="740.912" y2="600.2993" gradientTransform="matrix(1 0 0 -1 0 1455.4353)">
			<stop  offset="0" style="stop-color:#424242"/>
			<stop  offset="3.000000e-02" style="stop-color:#464646"/>
			<stop  offset="0.99" style="stop-color:#BCBCBC"/>
		</linearGradient>
		<path style="fill:url(#SVGID_00000116928155968299752820000009432419504328746898_);" d="M672.2,1344.4
			c8.2-29.7,16.3-59.6,23.7-89.5c-15.8-7.4-29.7-23.5-39.3-37.8c-4.2-5.5-7-12-8.3-18.8c-0.9-6.8,1.3-14.4,6.9-18.4
			c6.1-4.3,14.8-3.3,21.1,0.8c6.3,4.1,10.4,10.7,13.6,17.5c5.7,12,9.8,34.9,7,52.5c11.6-47,21.7-94.4,28.6-142.2
			c-13-4.4-25.2-15.7-34-26.1c-3.7-3.9-6.5-8.7-8-13.9c-0.8-2.6-0.8-5.4-0.1-8c0.7-2.6,2-5,3.9-6.9c4.5-3.9,11.2-3.9,16.5-1.2
			c5.1,3,9.3,7.3,12.1,12.4c5.8,9.4,11.2,28.4,9.8,42.7c6.2-41.6,9.3-83.6,9.5-125.6c-10.5-4-20.4-13.3-27.5-21.7
			c-3.2-3.4-5.5-7.4-6.9-11.9c-0.6-2.2-0.7-4.6-0.1-6.8c0.6-2.2,1.7-4.3,3.3-5.9c2-1.5,4.4-2.4,6.9-2.6c2.5-0.2,5,0.4,7.2,1.6
			c4.3,2.5,7.9,6.2,10.3,10.6c3,5.3,5.2,10.9,6.5,16.8c-0.3-9.1-0.7-18.2-1.3-27.3c-11.6-0.6-24.2-7.1-33.7-13.4
			c-4-2.4-7.3-5.6-9.8-9.5c-1.4-2-2.2-4.4-2.1-6.8c0-2.4,0.8-4.8,2.2-6.8c1.4-2,3.4-3.5,5.7-4.2c2.3-0.8,4.8-0.8,7.1-0.1
			c4.9,1.2,9.3,3.8,12.8,7.4c8.6,8.7,14.7,19.5,17.7,31.3c-0.6-7.8-1.2-15.5-2-23.3c-2.9-24.9-7.3-49.7-13.1-74.1
			c-6.3-0.5-13-3.9-18.1-7.3c-2.2-1.3-4-3.1-5.4-5.3c-0.7-1.1-1-2.3-1.1-3.6c0-1.3,0.3-2.5,0.9-3.6c0.8-1.1,1.9-2,3.2-2.4
			c1.3-0.5,2.7-0.6,4-0.2c2.7,0.7,5.1,2.1,7.1,4.1c3.3,3.3,5.9,7.2,7.8,11.5c-1.6-7.1-3.2-14.1-4.9-21.2c-0.3-0.4-0.6-0.8-0.8-1
			l-4.3-4.9c-2.8-2.7-4.9-6-6.3-9.7c-0.6-1.8-0.7-3.8-0.1-5.7c0.6-1.9,1.8-3.5,3.4-4.6c1.3-0.7,2.8-0.9,4.2-0.8
			c1.5,0.1,2.9,0.7,4,1.6c2.3,1.8,3.9,4.4,4.5,7.3c0.5,2.9,0.6,5.8,0.2,8.7c-0.2,1.8-0.5,3.7-0.8,5.5c-0.1,1.8-0.5,3.6-1.1,5.3
			c2.2,6.7,4.1,13.4,5.9,20.3l0.2-5.5c-0.1-3.9,0.7-7.8,2.2-11.3c1.8-3.4,5.7-6.1,9.5-5.1c1.4,0.4,2.6,1.3,3.6,2.4
			c1,1.1,1.6,2.5,1.8,3.9c0.4,2.9-0.3,5.9-1.9,8.4c-1.6,2.4-3.6,4.6-5.9,6.4c-1.4,1.2-2.9,2.2-4.5,3.4c-1.2,1-2.5,2-3.8,2.8
			c2.9,12.2,5.2,24.6,7.2,36.9c0-1.2,0.1-2.4,0.2-3.6c0.2-5.1,0.5-10.4,2.9-15c2.4-4.5,7.6-8,12.5-6.7c1.8,0.6,3.5,1.7,4.8,3.1
			c1.3,1.5,2.1,3.3,2.4,5.2c0.5,3.9-0.3,7.8-2.5,11c-2.1,3.2-4.8,6.1-7.8,8.5c-1.9,1.6-3.8,3.1-5.8,4.5c-1.6,1.4-3.2,2.6-5,3.7
			c0.6,3.9,1.1,7.7,1.6,11.6c4.6,34.7,6.7,69.7,6.2,104.7c-0.1,12.6-0.6,25.1-1.3,37.7c0.1-0.3,0.3-0.7,0.4-1
			c1.4-4.1,2.7-8.2,4.1-12.3c2.4-7.4,5-15,10.3-20.6c5.3-5.6,14.3-8.5,21-4.6c2.5,1.6,4.4,3.8,5.7,6.5c1.2,2.7,1.7,5.6,1.4,8.5
			c-0.8,5.8-3.7,11.2-8.2,15.1c-4.4,3.8-9.5,6.9-14.9,9.1c-3.4,1.5-6.8,2.9-10.3,4.2c-1.9,0.7-7.6,3.6-10,3.4
			c-1.3,19.2-3.2,38.4-5.7,57.6c0.4-1,0.8-1.9,1.1-2.7c1.5-4.5,2.9-8.8,4.3-13.1c2.6-7.9,5.3-16,11-22c5.7-6,15.3-9.1,22.5-4.9
			c2.6,1.7,4.7,4.1,6,7c1.3,2.8,1.8,6,1.5,9.1c-0.9,6.2-4,12-8.7,16.1c-4.8,4-10.1,7.3-15.9,9.7c-3.6,1.6-7.3,3.1-11,4.5
			c-2.2,0.8-9.1,4.5-11.2,3.6c-0.1-0.1-0.3-0.2-0.4-0.2c-2.9,21.2-6.5,42.4-10.6,63.4c0.9-1.7,1.9-3.5,2.5-4.6l6.4-14.1
			c3.8-8.4,7.9-17.2,15-23.1c7.1-5.9,18.2-8.2,25.6-2.7c2.7,2.2,4.7,5.2,5.9,8.5c1.1,3.3,1.3,6.9,0.5,10.3
			c-1.7,6.8-5.9,12.8-11.7,16.8c-5.8,4-12.2,7-18.9,9c-4.2,1.4-8.5,2.6-12.8,3.6c-2.5,0.6-10.8,3.8-13,2.6c-0.3-0.1-0.5-0.3-0.6-0.6
			c-2.8,14-5.9,27.9-9.2,41.8c-10,42.4-21.6,84.3-34.9,125.8C674.1,1346.7,671.9,1345.9,672.2,1344.4z M696.2,1111.8
			c-5.5-3.6-13.2-4.5-18.5-0.7c-4.9,3.5-6.9,10.2-6.1,16.2c1.1,6,3.6,11.6,7.3,16.5c8.5,12.6,20.8,26.8,34.7,33.3
			c3.8-15.8,0-38.5-5.4-49.9C705.7,1121,701.5,1115.8,696.2,1111.8L696.2,1111.8z M704.3,853.1c-1.8-0.4-3.6-0.3-5.3,0.3
			c-1.7,0.6-3.2,1.7-4.3,3.2c-0.8,1.5-1.2,3.1-1.2,4.8c0,1.7,0.5,3.3,1.4,4.7c1.8,2.8,4.3,5.2,7.1,6.9c7,4.7,16.2,9.4,24.6,9.8
			c-1.9-9.2-6.5-17.7-13.1-24.4C711,855.9,707.8,854.1,704.3,853.1L704.3,853.1z M711.3,991c-4.9-2.5-11.4-2.5-15.5,1.1
			c-1.8,1.8-3,4.1-3.7,6.5s-0.6,5,0.1,7.5c1.5,4.9,4.1,9.3,7.5,13c8.2,9.7,19.7,20.4,31.9,24.5c1.7-13.4-3.6-31.9-9.1-40.9
			C719.9,997.9,716,993.9,711.3,991L711.3,991z M765.3,910.3c2.9-4.5,4.2-9.9,3.4-15.2c-0.4-2.6-1.6-5.1-3.3-7.1s-4-3.5-6.6-4.3
			c-6.8-1.8-14,3-17.3,9.3c-3.3,6.2-3.7,13.4-4,20.6c-0.2,3.9-0.3,7.9-0.5,11.8c0,2.4-1.5,8.1,1,8.4c1.9,0.2,6.7-4.5,8.4-5.6
			c2.7-2,5.4-4,8-6.2C758.7,918.7,762.3,914.8,765.3,910.3L765.3,910.3z M705.8,1243.8c-1.5,3.3-6.7,10.5-3.3,12.2
			c2.6,1.3,11.9-2.2,14.8-3c4.9-1.2,9.8-2.5,14.5-4.1c7.7-2.2,14.9-5.6,21.5-10.1c6.6-4.6,11.3-11.4,13.3-19.2
			c0.9-3.9,0.7-8-0.6-11.7c-1.3-3.8-3.6-7.1-6.7-9.7c-8.5-6.3-21.1-3.7-29.2,3.1c-8.1,6.8-12.7,16.7-17.1,26.3L705.8,1243.8z
			 M760,975.9c4.9-2,9.4-4.8,13.4-8.3c4.1-3.5,6.7-8.4,7.4-13.7c0.3-2.6-0.1-5.3-1.3-7.7c-1.1-2.4-2.9-4.5-5.1-5.9
			c-6.1-3.6-14.3-0.9-19.1,4.2c-4.9,5.1-7.2,12-9.4,18.7l-3.7,11.2c-0.8,2.2-3.7,7.4-1.3,8.4c1.8,0.7,7.8-2.4,9.6-3.1
			C753.8,978.5,756.8,977.3,760,975.9z"/>
		
			<linearGradient id="SVGID_00000053504147476233753340000003231441407867028401_" gradientUnits="userSpaceOnUse" x1="694.756" y1="64.2421" x2="836.809" y2="535.3191" gradientTransform="matrix(1 0 0 -1 0 1455.4353)">
			<stop  offset="0" style="stop-color:#424242"/>
			<stop  offset="0.21" style="stop-color:#626262"/>
			<stop  offset="0.99" style="stop-color:#D8D8D8"/>
		</linearGradient>
		<path style="fill:url(#SVGID_00000053504147476233753340000003231441407867028401_);" d="M671,1386.9c14-27.4,28-55,41.3-82.9
			c-14-10.4-24.3-29.1-30.9-44.9c-3-6.3-4.4-13.2-4.3-20.1c0.5-6.9,4.2-13.9,10.5-16.6c6.8-3,15.2-0.3,20.5,5
			c5.3,5.3,8,12.6,9.8,19.9c3.1,12.9,2.5,36.1-3.8,52.8c20.9-43.7,40.2-88.1,56.7-133.4c-11.8-6.9-21.5-20.5-28-32.4
			c-2.8-4.6-4.6-9.8-5.1-15.2c-0.2-2.7,0.3-5.4,1.5-7.8c1.2-2.4,3-4.5,5.2-6c5.1-2.9,11.8-1.5,16.4,2.2c4.4,3.9,7.6,9,9.3,14.7
			c3.8,10.4,5.3,30.1,0.9,43.8c14.5-39.5,26.1-80,34.8-121.1c-9.5-6.1-17.3-17.1-22.6-26.8c-2.4-3.9-3.9-8.4-4.3-13
			c-0.2-2.3,0.3-4.6,1.3-6.7c1-2.1,2.6-3.8,4.5-5.1c2.3-1.1,4.8-1.5,7.3-1.2c2.5,0.3,4.8,1.4,6.7,3c3.8,3.3,6.5,7.6,8,12.5
			c1.9,5.8,2.9,11.8,3,17.9c1.6-9,3-18,4.2-27c-11.2-2.9-22.3-11.8-30.3-20c-3.4-3.1-6-6.9-7.7-11.2c-0.8-2.2-1-4.5-0.6-6.8
			c0.4-2.3,1.4-4.4,2.9-6.2c1.9-1.7,4.2-2.8,6.7-3.1c2.5-0.4,5,0,7.3,1.1c4.5,2.2,8.3,5.6,11.1,9.8c6.6,10.2,10.4,22,11,34.2
			c1-7.7,2-15.4,2.7-23.2c2.2-25,2.9-50.1,2.1-75.3c-6.2-2.3-11.8-6-16.2-10.9c-1.9-1.7-3.3-3.8-4.2-6.2c-0.4-1.2-0.6-2.5-0.3-3.7
			c0.2-1.2,0.8-2.4,1.6-3.4c1-0.9,2.3-1.5,3.7-1.7c1.4-0.2,2.8,0,4,0.6c2.5,1.2,4.6,3.1,6.1,5.4c2.5,3.9,4.3,8.3,5.3,12.9
			c-0.2-7.2-0.3-14.5-0.5-21.8c-0.2-0.4-0.4-0.8-0.6-1.1l-3.2-5.7c-2.2-3.2-3.6-6.9-4.2-10.8c-0.3-1.9,0.1-3.9,1.1-5.6
			c1-1.7,2.4-3,4.2-3.8c1.4-0.4,2.9-0.3,4.3,0.1c1.4,0.4,2.7,1.2,3.6,2.3c1.9,2.3,2.9,5.1,2.9,8.1c-0.1,2.9-0.6,5.8-1.6,8.6
			c-0.6,1.8-1.2,3.5-1.9,5.2c-0.5,1.7-1.2,3.4-2.1,4.9c0.8,6.9,1.3,14,1.7,21c0.4-1.8,0.9-3.6,1.3-5.3c0.7-3.8,2.2-7.5,4.5-10.7
			c1.2-1.6,2.8-2.7,4.6-3.3c1.9-0.6,3.9-0.5,5.7,0.2c1.3,0.7,2.3,1.8,3.1,3.1c0.7,1.3,1.1,2.7,1,4.2c-0.2,2.9-1.4,5.7-3.5,7.8
			c-2.1,2.1-4.5,3.8-7.1,5.1c-1.6,0.9-3.3,1.7-5,2.5c-1.4,0.8-2.8,1.4-4.3,2c0.4,12.5,0.2,25.1-0.4,37.6l0.9-3.6
			c1.3-5,2.6-10.1,5.8-14.1c3.3-3.9,8.9-6.3,13.6-4.1c1.7,0.9,3.1,2.3,4,4c0.9,1.7,1.4,3.6,1.3,5.5c-0.3,3.9-1.9,7.6-4.7,10.3
			c-2.7,2.7-5.9,5-9.4,6.7c-2.2,1.2-4.4,2.2-6.6,3.2c-1.8,1-3.7,1.9-5.7,2.7c-0.2,3.9-0.5,7.8-0.8,11.7
			c-2.5,34.9-7.6,69.5-15.2,103.7c-2.7,12.3-5.7,24.5-8.9,36.6c0.2-0.3,0.4-0.6,0.6-0.9c2.2-3.8,4.3-7.5,6.5-11.2
			c3.8-6.7,7.9-13.7,14.3-18.1c6.4-4.4,15.8-5.4,21.5-0.2c2.1,2.1,3.5,4.7,4.2,7.5c0.7,2.9,0.5,5.8-0.4,8.6c-2,5.6-5.9,10.2-11,13.1
			c-5.1,2.8-10.7,4.8-16.4,5.9c-3.6,0.8-7.3,1.5-10.9,2c-2,0.3-8.2,2-10.5,1.3c-5.2,18.6-10.9,37-17.2,55.2c0.6-0.9,1.2-1.8,1.6-2.4
			l6.9-12c4.1-7.2,8.5-14.6,15.3-19.3c6.8-4.7,16.8-5.8,23-0.3c2.2,2.2,3.8,5,4.5,8c0.7,3,0.6,6.2-0.4,9.2
			c-2.1,5.9-6.3,10.9-11.8,14c-5.5,3-11.4,5.1-17.5,6.3c-3.8,0.9-7.8,1.6-11.7,2.1c-2.2,0.3-9.9,2.5-11.8,1.2
			c-0.1-0.1-0.3-0.2-0.4-0.3c-7.2,20.2-14.9,40.2-23.2,60c1.2-1.5,2.6-3,3.4-4l9.2-12.5c5.5-7.5,11.2-15.2,19.4-19.6
			c8.2-4.4,19.5-4.5,25.6,2.5c2.2,2.7,3.6,6,4,9.5c0.4,3.5-0.1,7-1.6,10.2c-3.1,6.4-8.4,11.4-14.9,14.1c-6.5,2.7-13.3,4.3-20.3,4.8
			c-4.5,0.5-8.9,0.8-13.3,0.9c-2.6,0-11.3,1.6-13.3,0c-0.2-0.2-0.4-0.4-0.5-0.7c-5.6,13.1-11.4,26.2-17.4,39.1
			c-18.4,39.5-38.2,78.2-59.6,116.2C672.3,1389.6,670.2,1388.3,671,1386.9z M741.4,1164.1c-4.6-4.7-12-7.1-18-4.5
			c-2.7,1.4-5,3.5-6.6,6.1c-1.6,2.6-2.5,5.5-2.6,8.6c-0.1,6.1,1.2,12.1,3.8,17.6c5.8,14.1,14.9,30.5,27.3,39.6
			c6.9-14.7,7.7-37.7,4.8-50C748.8,1175,745.8,1169,741.4,1164.1z M801.5,912.4c-1.6-0.8-3.5-1-5.3-0.8c-1.8,0.3-3.5,1.1-4.8,2.3
			c-1.1,1.3-1.8,2.8-2.1,4.5c-0.3,1.7-0.1,3.4,0.4,4.9c1.2,3.1,3.1,5.9,5.6,8.2c5.9,6,13.9,12.5,22.2,14.6c-0.1-9.4-2.8-18.6-8-26.5
			C807.6,916.5,804.8,914,801.5,912.4z M780.4,1048.8c-1.9-1.9-4.4-3.1-7-3.5c-2.7-0.4-5.4,0-7.8,1.2c-2.4,1.2-4.4,3.2-5.6,5.5
			c-1.2,2.4-1.7,5.1-1.3,7.8c0.5,5.1,2.1,9.9,4.7,14.3c6.1,11.2,15.2,23.9,26.3,30.4c4.5-12.9,3-32-0.6-41.9
			C787.6,1057.3,784.6,1052.6,780.4,1048.8L780.4,1048.8z M849.7,980.7c3.8-3.8,6.1-8.8,6.4-14.2c0.1-2.7-0.5-5.3-1.8-7.6
			c-1.3-2.3-3.2-4.2-5.6-5.5c-6.3-3.1-14.3,0.1-18.8,5.6c-4.5,5.4-6.3,12.5-8,19.3c-1,3.8-1.9,7.7-2.9,11.5
			c-0.6,2.2-3.1,7.7-0.7,8.4c1.8,0.6,7.5-3,9.3-3.8c3.1-1.4,6.1-2.8,9.1-4.5C841.6,987.6,846,984.5,849.7,980.7L849.7,980.7z
			 M724.2,1295.3c-2.1,2.9-8.6,8.9-5.7,11.3c2.2,1.8,12.1,0.2,15.1,0c5.1-0.2,10.1-0.5,15.1-1.1c7.9-0.6,15.7-2.4,23.1-5.5
			c7.4-3.1,13.4-8.9,16.9-16.1c1.7-3.6,2.3-7.6,1.8-11.6c-0.5-4-2.1-7.7-4.6-10.8c-7-7.9-19.9-7.9-29.2-2.9
			c-9.3,5-15.8,13.8-22.1,22.4L724.2,1295.3z M831.3,1043.8c5.2-1,10.3-2.8,14.9-5.4c4.7-2.6,8.3-6.8,10-11.9c0.8-2.5,1-5.2,0.4-7.8
			c-0.6-2.6-1.9-5-3.8-6.8c-5.2-4.7-13.8-3.8-19.6,0.2s-9.5,10.3-13,16.4c-2,3.4-3.9,6.8-5.9,10.2c-1.2,2.1-5.1,6.5-3,7.9
			c1.6,1.1,8.1-0.8,10-1.1C824.7,1045.2,828,1044.6,831.3,1043.8z"/>
		
			<linearGradient id="SVGID_00000170981098410819579160000016159239330707526299_" gradientUnits="userSpaceOnUse" x1="389.5005" y1="218.7588" x2="531.5535" y2="689.8358" gradientTransform="matrix(1 0 0 -1 0 1455.4353)">
			<stop  offset="0" style="stop-color:#424242"/>
			<stop  offset="3.000000e-02" style="stop-color:#464646"/>
			<stop  offset="0.99" style="stop-color:#BCBCBC"/>
		</linearGradient>
		<path style="fill:url(#SVGID_00000170981098410819579160000016159239330707526299_);" d="M365.7,1232.4c14.1-27.4,28-55,41.3-82.9
			c-14-10.5-24.3-29.1-30.9-45c-3-6.2-4.4-13.1-4.3-20c0.5-6.9,4.2-13.9,10.5-16.7c6.9-3,15.2-0.2,20.5,5c5.3,5.3,8,12.6,9.8,19.9
			c3.1,12.9,2.5,36.1-3.8,52.8c20.9-43.7,40.2-88.1,56.7-133.4c-11.8-6.9-21.5-20.6-28-32.4c-2.8-4.6-4.6-9.8-5.1-15.2
			c-0.2-2.7,0.3-5.4,1.5-7.8c1.2-2.4,3-4.5,5.2-6c5.1-2.9,11.8-1.5,16.4,2.2c4.4,3.9,7.6,9,9.3,14.6c3.7,10.4,5.3,30.1,0.9,43.8
			c14.4-39.5,26-80,34.6-121.1c-9.5-6.1-17.3-17.1-22.6-26.8c-2.4-3.9-3.9-8.4-4.3-13c-0.4-2.4,0-4.9,1.2-7.1c1.1-2.2,2.9-3.9,5.1-5
			c2.2-1.1,4.7-1.5,7.1-1.1c2.4,0.4,4.6,1.5,6.4,3.2c3.7,3.4,6.5,7.7,8,12.5c1.9,5.8,2.9,11.8,3,17.9c1.6-8.9,3-18,4.3-27
			c-11.2-3-22.3-11.8-30.3-20c-3.4-3.1-6-7-7.7-11.3c-1-2.2-1.3-4.7-0.8-7.1c0.5-2.4,1.7-4.6,3.5-6.2c1.8-1.7,4.1-2.7,6.5-3
			c2.4-0.3,4.9,0.2,7,1.4c4.5,2.2,8.3,5.6,11.1,9.8c6.6,10.2,10.4,22.1,11,34.2c1-7.7,2-15.5,2.7-23.2c2.2-25,2.9-50.1,2.2-75.2
			c-6-1.7-11.9-6.5-16.2-10.9c-1.9-1.7-3.3-3.8-4.2-6.2c-0.4-1.2-0.6-2.5-0.3-3.7s0.8-2.4,1.6-3.4c1-0.9,2.3-1.5,3.7-1.7
			s2.8,0,4,0.6c2.5,1.2,4.6,3.1,6.1,5.4c2.6,3.9,4.4,8.3,5.3,12.9c-0.1-7.2-0.3-14.5-0.5-21.8c-0.2-0.4-0.4-0.8-0.6-1.1l-3.2-5.6
			c-2.2-3.2-3.6-6.9-4.2-10.8c-0.2-1.9,0.1-3.9,1.1-5.6c1-1.7,2.5-3,4.2-3.8c1.4-0.4,2.9-0.4,4.3,0.1c1.4,0.4,2.7,1.2,3.6,2.3
			c1.9,2.3,2.9,5.1,2.9,8.1c-0.1,2.9-0.6,5.8-1.6,8.6c-0.6,1.8-1.2,3.5-1.9,5.2c-0.5,1.7-1.2,3.4-2.1,4.9c0.8,7,1.4,14,1.7,21
			l1.3-5.3c0.7-3.8,2.2-7.5,4.5-10.6c2.5-3,6.9-4.8,10.3-3.1c1.3,0.7,2.3,1.8,3,3c0.7,1.3,1.1,2.7,1,4.2c-0.2,3-1.4,5.7-3.5,7.8
			c-2.1,2.1-4.5,3.8-7.1,5.1c-1.6,0.9-3.3,1.7-5,2.4c-1.4,0.8-2.8,1.5-4.3,2c0.4,12.5,0.2,25.1-0.4,37.6c0.3-1.2,0.6-2.4,0.9-3.6
			c0.9-5.1,2.9-9.9,5.8-14.1c3.2-3.9,8.9-6.3,13.6-4c1.7,0.9,3.1,2.3,4,4c0.9,1.7,1.4,3.6,1.3,5.5c-0.2,3.9-1.9,7.6-4.6,10.3
			c-2.7,2.7-5.9,5-9.4,6.7c-2.2,1.2-4.4,2.2-6.6,3.2c-1.8,1-3.7,1.9-5.7,2.6c-0.2,3.9-0.5,7.8-0.7,11.7
			c-2.5,34.9-7.6,69.6-15.1,103.8c-2.7,12.3-5.7,24.5-8.9,36.6l0.6-0.9l6.5-11.2c3.9-6.7,7.9-13.7,14.3-18
			c6.4-4.4,15.8-5.4,21.5-0.3c2.1,2.1,3.5,4.7,4.2,7.5c0.7,2.9,0.6,5.8-0.4,8.6c-2,5.6-5.9,10.2-11,13.1c-5.1,2.8-10.7,4.8-16.4,5.9
			c-3.6,0.8-7.3,1.4-10.9,2c-2,0.3-8.2,2-10.5,1.3c-5.3,18.4-11.1,36.7-17.4,55c0.6-0.9,1.2-1.7,1.6-2.4l6.9-12
			c4.1-7.2,8.4-14.6,15.3-19.3c6.8-4.7,16.8-5.8,23-0.3c2.2,2.2,3.8,5,4.5,8c0.7,3,0.6,6.2-0.4,9.2c-2.1,5.9-6.3,10.9-11.8,14
			c-5.5,3-11.4,5.2-17.5,6.3c-3.9,0.9-7.8,1.6-11.7,2.2c-2.2,0.3-9.9,2.5-11.8,1.3c-0.1-0.1-0.3-0.2-0.4-0.3
			c-7.1,20.1-14.9,40.3-23.2,60c1.2-1.5,2.6-3,3.3-4l9.2-12.5c5.5-7.5,11.2-15.2,19.4-19.6c8.2-4.4,19.5-4.5,25.7,2.5
			c2.2,2.7,3.6,6,4,9.5c0.4,3.5-0.1,7-1.6,10.2c-3.1,6.3-8.3,11.4-14.8,14.1c-6.5,2.7-13.3,4.3-20.3,4.8c-4.5,0.5-8.9,0.8-13.3,0.9
			c-2.6,0-11.3,1.6-13.3,0c-0.2-0.2-0.4-0.4-0.5-0.7c-5.6,13.1-11.4,26.2-17.4,39.1c-18.3,39.5-38.2,78.2-59.6,116.2
			C366.9,1235.1,364.9,1233.8,365.7,1232.4z M436.2,1009.5c-4.7-4.6-12-7-18-4.5c-5.5,2.4-8.8,8.6-9.2,14.6
			c-0.2,6.1,1.1,12.2,3.7,17.7c5.8,14,14.9,30.5,27.3,39.6c6.9-14.7,7.8-37.7,4.8-50C443.5,1020.5,440.5,1014.5,436.2,1009.5
			L436.2,1009.5z M496.3,757.8c-1.7-0.8-3.5-1-5.3-0.8c-1.8,0.3-3.5,1.1-4.8,2.3c-1.1,1.3-1.8,2.8-2.1,4.5c-0.3,1.7-0.1,3.3,0.4,4.9
			c1.2,3.1,3.1,5.9,5.6,8.2c5.9,6,14,12.5,22.2,14.6c0-9.4-2.8-18.6-8-26.5C502.3,761.9,499.6,759.4,496.3,757.8z M475.2,894.3
			c-4.3-3.4-10.6-4.8-15.4-2c-2.1,1.4-3.8,3.4-4.9,5.6c-1.1,2.3-1.6,4.8-1.4,7.4c0.5,5.1,2.1,9.9,4.8,14.3
			c6.1,11.2,15.2,23.9,26.3,30.4c4.5-12.8,3-32-0.6-41.9C482.4,902.7,479.3,897.9,475.2,894.3z M544.5,826.2
			c3.8-3.8,6.1-8.8,6.4-14.2c0.1-2.7-0.5-5.3-1.8-7.6c-1.3-2.3-3.2-4.2-5.6-5.5c-6.3-3.1-14.3,0.1-18.8,5.6
			c-4.5,5.4-6.3,12.5-8,19.4c-0.9,3.8-1.9,7.6-2.9,11.5c-0.6,2.3-3.1,7.7-0.7,8.5c1.9,0.6,7.6-3,9.4-3.8c3.1-1.4,6.1-2.8,9.1-4.5
			C536.4,833,540.7,830,544.5,826.2L544.5,826.2z M418.9,1140.8c-2.2,2.9-8.6,8.9-5.7,11.2c2.2,1.8,12.1,0.2,15.1,0
			c5-0.2,10.1-0.5,15.1-1.1c7.9-0.6,15.8-2.5,23.1-5.5c7.4-3.1,13.4-8.8,16.9-16.1c1.7-3.6,2.3-7.6,1.8-11.6s-2.1-7.7-4.6-10.8
			c-7-7.9-19.9-7.9-29.2-2.9s-15.8,13.8-22,22.4L418.9,1140.8z M526,889.3c5.2-1,10.3-2.8,14.9-5.4c4.7-2.6,8.3-6.8,10.1-11.9
			c0.8-2.5,1-5.2,0.3-7.8c-0.6-2.6-1.9-5-3.8-6.9c-5.2-4.7-13.8-3.8-19.6,0.2c-5.8,4-9.5,10.3-13,16.4c-2,3.4-3.9,6.8-5.9,10.2
			c-1.2,2.1-5.1,6.5-3,7.9c1.6,1.1,8.1-0.8,10-1.1C519.4,890.6,522.7,890,526,889.3z"/>
		
			<linearGradient id="SVGID_00000089569487238852813090000004620502313040101537_" gradientUnits="userSpaceOnUse" x1="699.2216" y1="113.7677" x2="699.2216" y2="464.8677" gradientTransform="matrix(1 0 0 -1 0 1455.4353)">
			<stop  offset="0" style="stop-color:#080808"/>
			<stop  offset="1" style="stop-color:#5F5F5F"/>
		</linearGradient>
		<path style="fill:url(#SVGID_00000089569487238852813090000004620502313040101537_);" d="M497.4,1099.3c-1.9-13-2.5-26.6,1.6-39.2
			c4.1-12.5,13.6-23.9,26.4-27.2c15.5-4.1,32.1,4.5,42.2,17c10.1,12.6,14.9,28.3,19.4,43.7c-5.7-21.2-11.4-42.9-9.6-64.8
			c1.8-22,12.6-44.3,32.3-54c19.7-9.7,47.9-1.4,54.6,19.5c1.4,5,2.1,10.2,2.2,15.4l3.2,48.2c2.1-16.6,8.2-32.4,17.9-46
			c9.7-13.6,22.6-24.6,37.5-32c15.5-7.4,36.7-9.6,47.6,3.7c8.9,10.9,6.8,27.2,2.4,40.7c-4.4,13.5-10.7,27.3-8.1,41.2
			c1.5-17.8,20.1-32.1,37.7-28.9c1.1,15.2,2.2,30.4,3.2,45.6c1.9-23,22.7-42.8,45.7-43.6c23-0.8,45.1,17.7,48.5,40.5
			c2.7,18.5-5.6,36.8-14.2,53.5c-19.3,37.6-42.6,75.5-79.2,96.8c-38,22.1-84.1,22.8-128,22.9c-43,0-90-1.2-122.9-29
			c-16.6-14-24.2-32.9-34.3-51.4C510.8,1148.9,501.3,1125.4,497.4,1099.3z"/>
		
			<linearGradient id="SVGID_00000044878078925378224770000012931165740469354664_" gradientUnits="userSpaceOnUse" x1="1064.3495" y1="143.3777" x2="1064.3495" y2="504.0977" gradientTransform="matrix(1 0 0 -1 0 1455.4353)">
			<stop  offset="0" style="stop-color:#080808"/>
			<stop  offset="1" style="stop-color:#5F5F5F"/>
		</linearGradient>
		<path style="fill:url(#SVGID_00000044878078925378224770000012931165740469354664_);" d="M862.6,1074.4c-1.9-13-2.5-26.6,1.6-39.2
			c4.1-12.5,13.6-23.9,26.4-27.3c15.5-4.1,32.1,4.5,42.2,17.1c10.1,12.6,14.9,28.3,19.5,43.7c-5.7-21.2-11.4-42.9-9.6-64.7
			c1.8-21.8,12.6-44.3,32.3-54c19.7-9.7,47.9-1.4,54.6,19.5c1.4,5,2.1,10.2,2.2,15.4l3,48.1c2.1-16.6,8.2-32.4,17.9-46
			c9.7-13.6,22.6-24.6,37.5-32c15.5-7.4,36.7-9.5,47.6,3.7c8.9,10.9,6.7,27.2,2.4,40.6s-10.7,27.3-8.1,41.3
			c1.5-17.9,20.1-32.1,37.7-28.9c1.1,15.2,2.1,30.4,3.2,45.6c1.8-23,22.7-42.9,45.7-43.6s45.1,17.7,48.5,40.5
			c2.7,18.6-5.6,36.8-14.2,53.5c-19.3,37.6-42.6,75.5-79.2,96.8c-38,22.1-84.1,22.8-128,22.9c-43,0.1-90-1.2-122.9-28.9
			c-16.6-14-24.2-32.9-34.3-51.4C876,1124,866.5,1100.5,862.6,1074.4z"/>
		
			<linearGradient id="SVGID_00000000944712537112231520000004582694061678365314_" gradientUnits="userSpaceOnUse" x1="1465.0625" y1="274.737" x2="1313.4725" y2="607" gradientTransform="matrix(1 0 0 -1 0 1455.4353)">
			<stop  offset="0" style="stop-color:#080808"/>
			<stop  offset="1" style="stop-color:#5F5F5F"/>
		</linearGradient>
		<path style="fill:url(#SVGID_00000000944712537112231520000004582694061678365314_);" d="M1195,1035.2
			c-1.9-13.1-2.6-26.6,1.6-39.2c4.1-12.5,13.6-23.9,26.4-27.2c15.5-4.1,32.2,4.5,42.2,17.1c10,12.6,14.9,28.3,19.5,43.7
			c-5.7-21.2-11.4-42.9-9.6-64.8c1.8-21.9,12.6-44.3,32.3-53.9c19.7-9.7,47.9-1.4,54.6,19.5c1.4,5,2.1,10.2,2.2,15.5l3,48.1
			c2.1-16.6,8.2-32.4,17.9-46c9.7-13.6,22.6-24.6,37.5-32c15.5-7.4,36.7-9.6,47.6,3.7c8.9,10.9,6.8,27.2,2.4,40.7
			c-4.4,13.5-10.7,27.3-8.1,41.3c1.5-17.8,20.1-32.1,37.7-28.9c1.1,15.2,2.2,30.4,3.2,45.6c1.9-23,22.7-42.8,45.7-43.6
			c23-0.8,45.1,17.7,48.4,40.5c2.7,18.5-5.6,36.8-14.2,53.5c-19.3,37.6-42.6,75.5-79.2,96.8c-38,22.1-84.1,22.8-128,22.9
			c-43,0.1-90-1.2-122.9-28.9c-16.6-14-24.2-32.9-34.3-51.4C1208.4,1084.8,1198.9,1061.3,1195,1035.2z"/>
		
			<linearGradient id="SVGID_00000174598981615815186730000013013525432082861748_" gradientUnits="userSpaceOnUse" x1="303.3728" y1="281.9877" x2="303.3728" y2="547.3477" gradientTransform="matrix(1 0 0 -1 0 1455.4353)">
			<stop  offset="0" style="stop-color:#080808"/>
			<stop  offset="1" style="stop-color:#5F5F5F"/>
		</linearGradient>
		<path style="fill:url(#SVGID_00000174598981615815186730000013013525432082861748_);" d="M101.6,988.2c-1.9-13-2.5-26.6,1.5-39.2
			c4.1-12.5,13.6-23.9,26.4-27.2c15.5-4.1,32.2,4.5,42.2,17c10,12.6,14.9,28.3,19.5,43.7c-5.7-21.2-11.4-42.9-9.6-64.7
			c1.8-21.8,12.6-44.3,32.3-54c19.7-9.7,47.9-1.4,54.6,19.5c1.4,5,2.1,10.2,2.2,15.4l3,48.1c2.1-16.6,8.2-32.4,17.9-46
			c9.7-13.6,22.6-24.6,37.5-32c15.5-7.4,36.7-9.5,47.6,3.7c8.9,10.9,6.7,27.2,2.3,40.6c-4.4,13.5-10.7,27.3-8.1,41.3
			c1.5-17.8,20.1-32.1,37.7-28.9c1.1,15.2,2.2,30.4,3.2,45.6c1.9-23,22.7-42.8,45.7-43.6c23-0.8,45.1,17.7,48.5,40.5
			c2.7,18.6-5.6,36.8-14.2,53.5c-19.3,37.6-42.6,75.5-79.2,96.8c-38,22.1-84.1,22.8-128,22.9c-43,0-90-1.2-122.9-29
			c-16.6-14-24.3-32.9-34.4-51.4C115,1037.7,105.5,1014.2,101.6,988.2z"/>
		
			<linearGradient id="SVGID_00000121972418631092683640000012630883074966974132_" gradientUnits="userSpaceOnUse" x1="13.9454" y1="208.2777" x2="13.9454" y2="473.6077" gradientTransform="matrix(1 0 0 -1 0 1455.4353)">
			<stop  offset="0" style="stop-color:#080808"/>
			<stop  offset="1" style="stop-color:#5F5F5F"/>
		</linearGradient>
		<path style="fill:url(#SVGID_00000121972418631092683640000012630883074966974132_);" d="M-187.7,1121.6
			c-1.9-13-2.5-26.6,1.6-39.2c4.1-12.5,13.6-23.9,26.4-27.2c15.5-4.1,32.2,4.5,42.2,17.1c10,12.6,14.9,28.3,19.5,43.7
			c-5.7-21.2-11.4-42.8-9.6-64.8c1.8-22,12.6-44.3,32.3-53.9c19.7-9.7,47.9-1.4,54.6,19.5c1.4,5,2.1,10.2,2.2,15.4l3,48.1
			c2.1-16.6,8.2-32.4,17.9-46c9.7-13.6,22.6-24.6,37.5-32c15.5-7.4,36.7-9.6,47.6,3.8c8.9,10.9,6.7,27.2,2.2,40.7
			c-4.5,13.5-10.7,27.3-8.1,41.3c1.5-17.8,20.1-32.1,37.7-28.9c1.1,15.2,2.2,30.4,3.2,45.6c1.9-23,22.7-42.8,45.7-43.6
			c23-0.8,45.1,17.7,48.5,40.5c2.7,18.6-5.6,36.8-14.2,53.5c-19.3,37.6-42.6,75.5-79.2,96.8c-37.8,22-84,22.7-127.9,22.8
			c-43,0.1-90-1.2-122.9-28.9c-16.6-14-24.2-32.9-34.3-51.4C-174.3,1171.2-183.8,1147.7-187.7,1121.6z"/>
		
			<linearGradient id="SVGID_00000050645084876099323400000014303111823345271183_" gradientUnits="userSpaceOnUse" x1="1177.0487" y1="170.6248" x2="1094.3588" y2="498.4647" gradientTransform="matrix(1 0 0 -1 0 1455.4353)">
			<stop  offset="0" style="stop-color:#2E2E2E"/>
			<stop  offset="1" style="stop-color:#999999"/>
		</linearGradient>
		<path style="fill:url(#SVGID_00000050645084876099323400000014303111823345271183_);" d="M1218.1,1223.2
			c29.9-32.4,46.8-74.6,47.5-118.7c0.1-9-0.6-18.4-4.7-26.4c-4.1-8-12.4-14.6-21.4-14.2c-7.7,0.3-14.4,5.4-18.7,11.8
			c-4.3,6.3-6.5,13.8-8.6,21.1c5.3-23.3,6.6-47.3,3.9-71c-1.2-10.9-5.2-23.9-15.8-26.6c-7.5-1.9-15.5,2.5-20.1,8.8s-6.5,14-8.3,21.5
			c34.7-110.5-28.4-144.2-42.5-71.3c-12.6-30.4-24-133.9-78.2-109c-54.2,24.9,10.4,112,25.4,135.7c-12.6-10.5-53.4-41.9-67.3-21.3
			c-20.1,29.9,28.7,72.3,67.5,104c-15.5-6.9-31.7-13.9-48.7-13c-16.9,0.8-34.6,12.2-36.7,29.1c-1.8,14.5,8,27.7,18.3,38
			c23.9,23.8,53.3,41.3,85.6,50.8c-11-0.4-22.3-0.8-32.5,3.4c-10.1,4.2-19.6,14.4-17.5,25.2
			C1058.2,1267.8,1215,1232.6,1218.1,1223.2z"/>
		<path class="st18" d="M1197.1,1039.9c-6.4,32-15.5,63.5-21.9,95.5c-9.9-22.6-19.8-45.2-29.8-67.7c3.9-32.2,3.3-65.3,3.2-97.7
			c0-1.4-2.1-1.5-2.1-0.2c-0.7,30.3-3.4,60.5-4.2,90.8c-28.5-64-57.4-127.8-85.1-192.1c-0.3-0.6-1.2-0.2-1,0.5
			c25.5,62.6,50.9,125.4,77.3,187.9c-25.6-19.4-54-35.6-79.8-54.9c-0.4-0.3-0.8,0.3-0.4,0.7c25.6,21.2,52.5,44.3,82.4,59.3
			c11.2,26.4,22.7,52.6,34.4,78.8c-34.6-9.4-68.5-12.9-100.2-31.7c-0.7-0.4-1.4,0.6-0.7,1.1c30.9,19.4,66.1,31,102.5,33.9
			c11.6,25.7,23.5,51.3,35.8,76.7c0.2,0.4,0.6,0.8,1.1,0.9c0.5,0.1,1,0.1,1.4-0.1c0.4-0.2,0.8-0.6,0.9-1c0.2-0.5,0.2-1,0-1.4
			c-10.9-26.3-22.1-52.6-33.5-78.7c11.5-31.6,16.7-67.1,20.4-100.2C1197.8,1039.6,1197.3,1039.6,1197.1,1039.9z"/>
		
			<linearGradient id="SVGID_00000163758904672137241750000007218956525868390278_" gradientUnits="userSpaceOnUse" x1="-106.5193" y1="226.6121" x2="-52.5274" y2="697.0991" gradientTransform="matrix(1 0 0 -1 0 1455.4353)">
			<stop  offset="0" style="stop-color:#232323"/>
			<stop  offset="1" style="stop-color:#818181"/>
		</linearGradient>
		<path style="fill:url(#SVGID_00000163758904672137241750000007218956525868390278_);" d="M-98.2,1300.6l-0.9-1.1
			c-1.4-1.7-2.7-3.5-4.1-5.2c-27.2-35.9-52.3-82.6-70.1-151.8l32.5-15.7l-41.7-22.8c0,0,1.4-23.1,4.5-55.6c0.1-1,0.2-2.1,0.3-3.1
			c0.6-6.7,1.4-14,2.2-21.4c0.4-3.8,0.8-7.7,1.3-11.7c4.3-38.1,10.5-81.1,18.8-114.5c0.1-0.6,0.3-1.2,0.4-1.8
			c0.3-1.1,0.5-2.1,0.8-3.1c1.8-7.4,3.4-14,4.8-19.8c0.3-1.2,0.6-2.2,0.8-3.4c7.3-30.8,8.2-38.2,8-39.7l46.4-4.7l-34.7-18.3
			c20.9-36.3,43.8-71.3,68.7-104.9c12.6,12,79.2,79.6,84.1,187L-8,903.2l29.1,6c0,0-0.5,12.3-2.2,31.5c-0.3,3.9-0.7,8.2-1.2,12.6
			c-3.6,35.9-10.8,87.5-24.4,130.8c-0.8,2.7-1.7,5.4-2.7,8.3l-3.1,8.9C-39.6,1178.7-98.2,1300.6-98.2,1300.6z"/>
		<path class="st20" d="M-118.3,1383c5.2-29.6,10.2-59.1,15.2-88.7c14-83.7,27.1-167.5,39.3-251.5c1.1-7.7,2.2-15.4,3.3-23.1
			c-20.6,4.5-41.8,6.3-62.4,11.5c-18.7,4.7-37.2,10.5-55.3,17.2c0.1-1,0.2-2.1,0.3-3.1c17.1-8.3,34.8-15.1,53-20.4
			c20.7-5.9,43.4-12.1,65.3-12.1l0.5-3.3c-20.6-2.3-41.4-2.1-62,0.8c-12.7,1.9-25.2,4.6-37.5,8.2c-5.6,1.6-11.4,4.8-17.2,5.4
			c0.4-3.8,0.8-7.7,1.3-11.7c4.9-2.4,10.6-3.8,14.9-5.5c13.3-5.1,26.9-9.2,40.8-12.1c21.1-4.2,41.9-5.2,61.5,1.3
			c3.2-24,6.1-47.9,8.3-71.8c-17.9-5.8-35.2-13.2-53.3-18.2c-17.3-5-35.1-8.3-53-10c0.3-1.1,0.5-2.1,0.8-3.1
			c35.9,1,73.4,10.8,106,25.6c0-0.3,0-0.5,0-0.8c-32.7-17.5-65.2-36.1-101.3-44.7c0.3-1.2,0.6-2.2,0.8-3.4
			c35.8,5.9,71.4,22.6,100.9,42.5c5.4-65.5,5.3-130.9-8.1-196.8c0-0.1,0-0.1,0-0.2c0-0.1,0.1-0.1,0.1-0.1s0.1,0,0.2,0
			c0.1,0,0.1,0.1,0.1,0.1c25.3,84,7.3,246.3,4.8,263.9c22.1-14.7,45.4-27.6,69.6-38.7c-0.3,3.9-0.7,8.2-1.2,12.6
			c-22.5,9.5-44.7,19.6-66.8,31.2c-0.3,0.2-0.7,0.3-1.1,0.3c-0.4,0-0.8-0.1-1.1-0.2c-0.6,4.3-6.3,43.2-7,47.6
			c-4,27.7-8,55.5-11.9,83.2c15-11,35.5-17,53.1-21.3c2.6-0.6,5.3-1.2,7.9-1.8l-3.1,9l-4.8,1c-18.8,4.4-35.6,13.2-53.9,18.5
			c-8.6,60-17.5,119.7-28.1,179c-4.9,28.1-10.3,56.2-16.2,84.1c-0.1,0.4-0.3,0.7-0.7,1c-0.3,0.2-0.8,0.3-1.1,0.2
			c-0.4-0.1-0.7-0.3-1-0.7C-118.3,1383.8-118.4,1383.4-118.3,1383z"/>
		
			<linearGradient id="SVGID_00000168802402455191989940000004731796558608834711_" gradientUnits="userSpaceOnUse" x1="364.7347" y1="177.1569" x2="565.3807" y2="560.1489" gradientTransform="matrix(1 0 0 -1 0 1455.4353)">
			<stop  offset="0" style="stop-color:#232323"/>
			<stop  offset="1" style="stop-color:#818181"/>
		</linearGradient>
		<path style="fill:url(#SVGID_00000168802402455191989940000004731796558608834711_);" d="M527,1153.2c7.8-6.1,14.8-14.4,15.8-24.2
			c0.9-9.9-6.7-20.8-16.5-20.3c9.7-0.8,19.6-1.7,28.2-6.1c8.6-4.4,15.6-13.4,15-23c-0.7-9.6-11.9-17.9-20.6-13.6
			c9.3-2.7,18.9-5.5,26.8-11.2c8-5.7,14-14.8,13.4-24.6c-0.6-9.8-7.8-17.7-16.7-21c-9.1-3-19-2.3-27.6,1.9
			c13.7-10.6,26.8-22.4,35.9-37.1c9.1-14.8,13.8-32.9,9.5-49.7c-4.3-16.8-18.8-31.3-36.1-32.6c-19.9-1.4-37.7,14.6-44.9,33.2
			c-7.2,18.6-6.3,39.2-5.3,59.2c0.2-15.9-18.9-27.3-34.1-22.7c-15.2,4.6-24.9,20.7-25.9,36.6c-1.1,15.9,4.7,31.4,12,45.6
			c-5.4-16-23.4-26.3-40.2-24c-16.8,2.3-30.9,16.3-34.8,32.8c-3.8,16.5,37.5,112.8,37.5,112.8S505,1170.4,527,1153.2z"/>
		<path class="st22" d="M498.3,1066c27.7-47.2,51.6-100.8,62.6-154.7c0,0,0-0.1-0.1-0.1c0,0-0.1-0.1-0.1-0.1c0,0-0.1,0-0.1,0.1
			c0,0-0.1,0.1-0.1,0.1c-10.5,25.2-17.3,52-27.7,77.3c-10.7,26.1-23.3,51.3-37.7,75.5c-28.4,47.7-64.1,89.1-102.9,128.4
			c-0.1,0.1-0.2,0.3-0.3,0.4c-0.1,0.2-0.1,0.3-0.1,0.5c0,0.2,0,0.3,0.1,0.5c0.1,0.2,0.1,0.3,0.3,0.4c0.1,0.1,0.3,0.2,0.4,0.3
			c0.2,0.1,0.3,0.1,0.5,0.1c0.2,0,0.3,0,0.5-0.1c0.2-0.1,0.3-0.1,0.4-0.3C435.8,1158.5,470.5,1113.4,498.3,1066z"/>
		
			<linearGradient id="SVGID_00000117676511628729297570000003669689208821920172_" gradientUnits="userSpaceOnUse" x1="591.1117" y1="200.9086" x2="655.4777" y2="475.4986" gradientTransform="matrix(1 0 0 -1 0 1455.4353)">
			<stop  offset="0" style="stop-color:#2E2E2E"/>
			<stop  offset="1" style="stop-color:#999999"/>
		</linearGradient>
		<path style="fill:url(#SVGID_00000117676511628729297570000003669689208821920172_);" d="M629.4,1271.1
			c31-11.2,56.8-33.5,72.4-62.6c3.2-6,5.9-12.4,6-19.2c0-6.8-3.2-13.9-9.3-16.8c-2.7-1.1-5.6-1.5-8.4-1.2c-2.9,0.2-5.6,1.1-8.1,2.6
			c-4.9,3-9.3,6.8-13,11.2c11.5-13.7,20.6-29.2,27-45.9c2.9-7.7,4.7-17.7-1.4-23.1c-4.3-3.9-11.2-3.7-16.3-1
			c-5.2,2.6-9.1,7.1-12.9,11.5c61-61.6,30.6-105.7-3.7-62c2.1-24.6,30-97.3-14.6-99.4c-44.6-2.1-31.5,78.1-29.7,99.1
			c-4.8-11.3-21.2-46.2-37.5-37.3c-23.7,13-5.7,58,9.2,92.4c-8-9.9-16.3-20.1-27.9-25.4c-11.6-5.3-27.2-3.8-34.4,6.7
			c-6.2,8.9-4.2,21.2-0.9,31.6c7.7,24,21.3,45.8,39.5,63.2c-7.2-4-14.6-8.2-22.8-8.9c-8.2-0.7-17.9,2.9-20.3,10.8
			C507.8,1245.8,624.2,1276.3,629.4,1271.1z"/>
		<path class="st18" d="M678.6,1142c-15.2,19.1-32.2,36.9-47.4,55.9c1.2-18.4,2.3-36.9,3.4-55.3c13.7-20.1,24.6-42.3,35.8-63.9
			c0.4-0.9-0.9-1.7-1.4-0.9c-10.8,19.9-23,39.1-34,58.9c3-52.4,5.7-104.8,9.3-157.1c0-0.5-0.7-0.5-0.8,0c-4.5,50.4-9.2,101-13,151.5
			c-10.4-21.7-23.7-42.2-34.3-63.9c-0.2-0.4-0.7,0-0.5,0.3c9.8,22.9,19.7,47.6,34.5,67.8c-1.6,21.4-3,42.8-4.1,64.2
			c-19.8-18.1-41.2-32.1-55.9-55.6c-0.3-0.5-1.2,0-0.9,0.5c13.9,23.5,33.3,43.4,56.5,57.8c-1.1,21.1-2,42.2-2.5,63.3
			c0,0.4,0.1,0.7,0.4,1s0.6,0.4,1,0.4c0.4,0,0.7-0.2,1-0.4s0.4-0.6,0.4-1c1.8-21.3,3.4-42.6,4.7-63.9c18.5-17.1,34.1-38.9,48-59.7
			C679,1141.9,678.7,1141.8,678.6,1142z"/>
		
			<linearGradient id="SVGID_00000020382091816767916490000016345006472234447283_" gradientUnits="userSpaceOnUse" x1="1565.4244" y1="405.9347" x2="1394.8644" y2="748.8198" gradientTransform="matrix(1 0 0 -1 0 1455.4353)">
			<stop  offset="0" style="stop-color:#232323"/>
			<stop  offset="1" style="stop-color:#818181"/>
		</linearGradient>
		<path style="fill:url(#SVGID_00000020382091816767916490000016345006472234447283_);" d="M1491.6,1128.1
			c-35.3-21.7-64.7-51.9-85.5-87.8c-6.7-11.6-12.5-23.9-14.6-37.1c-2.1-13.2,0-27.5,7.9-38.2c7.9-10.8,22.3-17.1,35.1-13.5
			c-10.1-16.5-20.4-33.4-24.3-52.4c-3.9-19-0.2-40.7,14.1-53.7c14.3-13,40.4-12.7,50.9,3.6c-7.6-13-8.1-30.6,1-42.5
			c10.6-13.9,31.8-16.8,47.7-9.5c15.9,7.4,26.8,23.1,32.2,39.7c5.4,16.6,6.5,34.4,7.4,51.9c0.3-15.9,15.4-29.2,31.3-30.3
			c15.9-1.1,31.3,8.3,40.5,21.3c9.2,13,12.9,29.2,13.8,45.2c1.9,38-11,75.2-35.9,104C1613.2,1028.8,1493.2,1126.3,1491.6,1128.1z"/>
		<path class="st22" d="M1492.6,1151.9c12.1-56,19.2-113.1,21.2-170.4c-33.3-20.5-57.2-51-80.8-81.7c-0.4-0.5,0.3-1.1,0.7-0.6
			c24,29,48.7,57.1,80.2,77.9c1.5-54.2-2.9-108.4-13.2-161.7c0-0.2,0-0.5,0.2-0.7c0.1-0.2,0.3-0.3,0.6-0.4c0.2,0,0.5,0,0.7,0.1
			c0.2,0.1,0.3,0.4,0.4,0.6c4.5,20.8,7.9,42,10.7,63.4c3.5-5.5,7.8-10.4,11.2-16.1c4.1-7.1,7.6-14.5,10.5-22.2
			c0.1-0.2,0.2-0.3,0.4-0.4c0.2-0.1,0.4-0.1,0.5,0c0.2,0.1,0.3,0.2,0.4,0.3c0.1,0.2,0.1,0.3,0.1,0.5c-1.5,7.4-4,14.5-7.4,21.2
			c-1.8,3.5-3.8,6.9-5.9,10.2c-2.1,3.1-6.4,7-7.1,10.8c0,0.2-0.1,0.4-0.2,0.6c-0.1,0.2-0.3,0.3-0.4,0.5c-0.2,0.1-0.4,0.2-0.6,0.2
			c-0.2,0-0.4,0-0.7,0c5.3,42.6,7,85.7,4.9,128.6c35.8-27.6,69.1-62,82.7-105.6c0-0.2,0.1-0.3,0.3-0.4c0.1-0.1,0.3-0.1,0.4-0.1
			c0.2,0,0.3,0.1,0.4,0.2c0.1,0.1,0.1,0.3,0.1,0.4c-0.5,23.1-15.2,43.2-29.3,60.4c-15.6,19.1-33.7,37.2-54.9,50.1
			c-2.4,45.7-9.9,91.1-22.3,135.2C1495.6,1155.7,1492.1,1154.3,1492.6,1151.9z"/>
		
			<linearGradient id="SVGID_00000027578404707642083410000003588855494961312175_" gradientUnits="userSpaceOnUse" x1="1430.9266" y1="307.1681" x2="1393.5266" y2="612.9061" gradientTransform="matrix(1 0 0 -1 0 1455.4353)">
			<stop  offset="0" style="stop-color:#232323"/>
			<stop  offset="1" style="stop-color:#818181"/>
		</linearGradient>
		<path style="fill:url(#SVGID_00000027578404707642083410000003588855494961312175_);" d="M1458.8,1090.9
			c29.3-20.9,49.9-51.9,57.9-87c1.6-7.2,2.6-14.8,0.7-21.9c-1.9-7.1-7.5-13.7-14.8-14.9c-6.1-1-12.4,2-16.9,6.3
			c-4.3,4.6-7.8,9.8-10.4,15.5c8.1-17.7,13.2-36.7,14.9-56.2c0.8-8.9-0.2-20-8.3-23.9c-5.7-2.8-12.8-0.6-17.5,3.7
			c-4.7,4.2-7.5,10.1-10.2,15.9c5-20.4,7.4-41.3,7.2-62.2c0-7.4-0.8-15.7-6-20.8c-5.3-5.1-18.5-8.9-23.2,18.9
			c-5-26.5-12.2-52.5-21.4-77.7c-4-10.9-11.5-23.7-23-22.5c-11.5,1.2-16.3,15.4-17.2,27c-1.6,22.9,6.9,64.3,14.9,85.8
			c-8.3-10.5-35.8-42.5-50.3-28.3c-21.1,20.6,10.9,62.6,36.7,94.5c-11.2-8.1-23.1-16.4-36.7-18.6c-13.7-2.1-29.7,3.9-34.2,17.1
			c-3.8,11.2,1.8,23.5,8.3,33.5c15.1,23,35.7,41.8,60,54.8c-8.7-2.2-17.8-4.3-26.6-2.7c-8.8,1.6-18.1,8.3-18.2,17.3
			C1323.4,1100,1454.7,1097.8,1458.8,1090.9z"/>
		<path class="st26" d="M1472.6,940.7c-10.5,24.6-23,48.2-33.5,72.7c-4.1-19.7-8.3-39.4-12.6-59.1c8.5-25.2,13.6-51.7,18.8-77.7
			c0.2-1.1-1.4-1.6-1.7-0.5c-5.6,24.1-12.8,47.8-18.5,71.9c-12.2-55.9-24.6-111.8-36.1-167.9c-0.1-0.6-0.9-0.3-0.8,0.2
			c10,54.3,19.8,108.9,30.6,163.3c-17.3-19.8-37.3-37.5-54.7-57.2c-0.3-0.3-0.7,0.1-0.5,0.5c17,21.2,34.6,44.2,56.1,61.2
			c4.6,22.9,9.4,45.9,14.4,68.7c-26.1-13.3-52.7-21.7-74.9-42.1c-0.5-0.5-1.3,0.3-0.8,0.8c21.5,20.6,47.8,35.8,76.4,44.1
			c5,22.5,10.3,45,15.9,67.3c0.1,0.4,0.4,0.7,0.7,0.8c0.3,0.2,0.7,0.2,1.1,0.1c0.4-0.1,0.7-0.3,0.9-0.6c0.2-0.3,0.3-0.7,0.2-1.1
			c-4.3-22.9-8.9-45.7-13.7-68.6c14.5-23.4,24.6-50.9,33-76.8C1473.1,940.6,1472.8,940.5,1472.6,940.7z"/>
		
			<linearGradient id="SVGID_00000016757730630966411580000015116019643590888081_" gradientUnits="userSpaceOnUse" x1="1241.1532" y1="160.1339" x2="1289.8033" y2="679.1189" gradientTransform="matrix(1 0 0 -1 0 1455.4353)">
			<stop  offset="0" style="stop-color:#666666"/>
			<stop  offset="1" style="stop-color:#BCBCBC"/>
		</linearGradient>
		<path style="fill:url(#SVGID_00000016757730630966411580000015116019643590888081_);" d="M1239.2,1316.1c0,0-41.2-157.5-41.1-271
			c0-69.6,3.2-151.3,45.2-206.8c32.8-43.5,79.6-18.9,92.6,25c17.9,60.9,3.1,151.3-9.6,212.5
			C1301.4,1195.9,1239.2,1316.1,1239.2,1316.1z"/>
		<path class="st28" d="M1332.7,920.8c-28,31.8-53.6,65.5-76.8,101c0.6-5.7,1.1-11.4,1.7-17.1c24.2-37,50-73,77.1-107.9
			c0-0.1,0-0.3-0.1-0.2c-27.2,32.4-52.7,66.2-76.2,101.3c5.7-52.1,13.4-103.9,21.5-155.8c0-0.4-0.5-0.6-0.6-0.2
			c-2.7,15-5.3,30-7.8,45c-1.4-14.4-3.3-28.7-5.8-42.9c0-0.1-0.2,0-0.2,0c2.4,15.3,4.3,30.6,5.5,45.9c-9.7,58.1-17.9,116.3-22.3,175
			c-8.2-49.2-19.1-97.9-32.5-145.9c0-0.1-0.2,0-0.2,0c13.1,50.2,23.5,101,32.2,152.1c-0.4,6.4-0.9,12.8-1.2,19.1l-0.9,16
			c-8.9-53.7-24.4-106.6-35.1-160.1c0-0.2-0.3-0.1-0.3,0c12.5,55.9,19.8,113.5,34.8,168.9c-4.7,78.8-9.8,158.2-9.4,237.1
			c0,0.3,0.1,0.7,0.4,0.9c0.2,0.2,0.6,0.4,0.9,0.4c0.3,0,0.7-0.1,0.9-0.4c0.2-0.2,0.4-0.6,0.4-0.9c5.6-61.3,7.1-123,8.9-184.8
			c30.7-21.6,50.3-57.5,68.8-89.2c0.1-0.1,0.1-0.2,0-0.3c0-0.1-0.1-0.2-0.2-0.3c-0.1-0.1-0.2-0.1-0.3,0s-0.2,0.1-0.3,0.2
			c-19.6,32-40.2,60.9-67.9,86.1c0.2-6.5,0.4-12.9,0.7-19.4c28.5-30.2,51-64.9,70.6-101.3c0-0.2-0.2-0.3-0.2-0.1
			c-19.4,35-43.9,66.6-70.2,96.6c0.5-14.7,1.1-29.4,1.8-44.1c1.1-22.9,2.8-45.7,5-68.5c23.7-36.9,49.7-72.3,77.7-106
			C1333.1,920.9,1332.8,920.6,1332.7,920.8z"/>
		
			<linearGradient id="SVGID_00000057835056712151865100000003913628608939637169_" gradientUnits="userSpaceOnUse" x1="310.7732" y1="197.2468" x2="576.9471" y2="393.0968" gradientTransform="matrix(1 0 0 -1 0 1455.4353)">
			<stop  offset="0" style="stop-color:#6D6D6D"/>
			<stop  offset="1" style="stop-color:#B6B6B6"/>
		</linearGradient>
		<path style="fill:url(#SVGID_00000057835056712151865100000003913628608939637169_);" d="M318,1160.6c8.5-31,24.1-61,49-81.3
			c42.6-34.7,103.1-35.1,157.6-28.4c15.2,1.9,31.5,4.8,41.9,16c10.8,11.7,12,29.3,10.8,45.1c-3.4,44.3-21.1,86.2-50.6,119.4
			c-29.5,33.2-69,55.8-112.5,64.4c-19.7,3.9-40.5,4.8-59.7-1.2c-19.2-5.9-43.4-23.1-47.8-44.1C300.9,1224.8,311.1,1185.6,318,1160.6
			z"/>
		<path class="st22" d="M564.9,1086.1c-12.5,6-25.1,12.1-37.6,18.3c6.2-9.9,11.2-20.5,15.2-31.5c0.2-0.4-0.6-0.8-0.8-0.3
			c-5.4,12-12.5,22.7-19,34.1l-4,1.9c8.2-12.3,12.6-26.6,16.9-40.9c0-0.3-0.3-0.4-0.4,0c-5.5,15.4-11.5,30.5-21.5,43.5
			c-29.6,14.9-58.8,30.7-86.8,48.3c5.3-29.6,8.9-58.4,18.4-87.2c0.2-0.5-0.6-0.7-0.8-0.2c-10.6,28-20.4,59.1-20.7,89.5
			c-6.7,4.3-13.5,8.7-20.1,13.2c4.1-32.7,7.8-64.4,16.7-96.5c0.2-0.7-0.8-0.9-1-0.3c-11.2,30.9-19.8,66.1-19.4,99.3
			c-5.5,3.8-10.9,7.7-16.3,11.7c-17.8,13.2-34.4,27.9-49.7,43.9c2.2-14.4,3.2-29.1,6.2-43.5c3.6-17.3,8.7-34.2,15.3-50.6
			c0.1-0.3-0.4-0.6-0.6-0.2c-13.8,29.2-27.9,66.1-25.5,99.3c-23.2,25.9-41.8,55.8-49.5,89.6c-0.1,0.3-0.1,0.7-0.1,1
			c0,0.3,0.1,0.7,0.3,1c0.2,0.3,0.4,0.5,0.6,0.8c0.3,0.2,0.6,0.4,0.9,0.4s0.7,0.1,1,0.1c0.3,0,0.7-0.1,0.9-0.3
			c0.3-0.2,0.5-0.4,0.8-0.7c0.2-0.3,0.4-0.6,0.4-0.9c15.5-39.6,39.2-75.4,69.6-105.1c29.5-1.8,61.8,11.4,88.7,20.2
			c0.3,0.1,0.7,0,0.9-0.1s0.5-0.4,0.6-0.7c0.1-0.3,0.1-0.7,0-1c-0.1-0.3-0.3-0.6-0.6-0.8c-16-7.6-33-13.2-50.4-16.5
			c-11.9-2.5-24.2-4.9-36.3-4.2c2.4-2.2,4.8-4.6,7.3-6.9c36.7-1.9,70.8,9.8,106.2,18.8c0.3,0.1,0.7,0,1-0.1c0.3-0.2,0.5-0.4,0.6-0.8
			c0.1-0.3,0-0.7-0.1-1c-0.2-0.3-0.4-0.5-0.8-0.6c-33-12.7-69.3-22.1-104.8-18.2c10.2-9.2,20.9-17.8,32-25.8
			c16.8-12.1,34.2-23.5,51.9-34.5c20.9,5.5,40.9,14,59.3,25.2c0.1,0,0.1,0.1,0.2,0c0.1,0,0.1-0.1,0.2-0.1c0-0.1,0.1-0.1,0.1-0.2
			c0-0.1,0-0.2-0.1-0.2c-14-13.4-36.7-23.5-56.3-26.8c5.3-3.2,10.5-6.4,15.9-9.6c10.5,1.7,20.2,2.7,30.1,7
			c9.5,4.4,18.7,9.3,27.6,14.8c1.2,0.7,2.2-1,1.1-1.8c-14.6-10.7-34-24.8-53.4-23.1c12.3-7.2,24.7-14.1,37.1-21
			c0.2,0,0.4-0.1,0.6-0.3c17.5-9.6,35-19,52.5-28.2C566.9,1087,565.9,1085.6,564.9,1086.1z"/>
		
			<linearGradient id="SVGID_00000061454959274558396520000014591036387214357408_" gradientUnits="userSpaceOnUse" x1="1465.7085" y1="210.7532" x2="1545.5074" y2="467.0894" gradientTransform="matrix(1 0 0 -1 0 1455.4353)">
			<stop  offset="0" style="stop-color:#232323"/>
			<stop  offset="1" style="stop-color:#818181"/>
		</linearGradient>
		<path style="fill:url(#SVGID_00000061454959274558396520000014591036387214357408_);" d="M1457.7,1228.7
			c-26.6-17-50.2-40.5-62-69.8c-20.1-50.1-2.8-107.2,19.4-156.4c6.2-13.7,13.7-28.2,27.3-34.7c14.1-6.7,31-2.8,45.5,3
			c40.6,16.1,74.8,45.1,97.3,82.5c22.6,37.4,32.2,81.2,27.5,124.7c-2.2,19.7-7.4,39.5-18.6,55.8c-11.2,16.3-34.4,34-55.4,32.1
			C1513,1263.4,1479.2,1242.4,1457.7,1228.7z"/>
		<path class="st22" d="M1459.9,974.8c2,13.4,4,27.1,6.2,40.7c-7.5-8.7-15.9-16.5-25.1-23.4c-0.4-0.3-0.9,0.3-0.5,0.6
			c9.7,8.6,17.6,18.4,26.4,27.8c0.2,1.4,0.4,2.9,0.7,4.3c-9.2-11.4-21.2-19.7-33.5-27.8c-0.2-0.2-0.5,0.2-0.2,0.4
			c12.9,9.6,25.3,19.7,34.6,32.9c5.3,32.1,11.6,64.3,19.9,95.7c-26.2-13.6-52.2-25.4-76.4-42.8c-0.5-0.3-0.9,0.4-0.5,0.7
			c23.2,18.2,49.5,36.5,77.8,45.5c2.1,7.6,4.2,15.2,6.5,22.7c-29.5-13.4-58.1-26.2-85.7-43.9c-0.1-0.1-0.3-0.1-0.4-0.1
			c-0.1,0-0.2,0.1-0.3,0.2c-0.1,0.1-0.1,0.3-0.1,0.4s0.1,0.2,0.2,0.3c25.8,19.5,56.2,38,87.6,47.2c2,6.3,4,12.5,6.3,18.7
			c7.2,20.6,16.1,40.5,26.7,59.6c-12.8-6.4-26.4-11.5-39-18.5c-15.2-8.4-29.5-18.1-43-29.1c-0.3-0.2-0.6,0.2-0.4,0.5
			c23.3,21.5,53.9,45.6,85.8,53c17.5,29.4,40.2,55.6,69.6,72.7c0.6,0.4,1.2,0.5,1.9,0.3c0.7-0.1,1.2-0.5,1.6-1.1
			c0.3-0.6,0.5-1.2,0.3-1.9c-0.1-0.6-0.5-1.2-1.1-1.6c-32.6-26.1-59.3-58.9-78.2-96.2c6.9-28.2,28.8-54.8,44.9-77.4
			c0.9-1.2-1-2.9-2.1-1.8c-11.8,12.8-21.9,27.2-30.1,42.6c-5.8,10.4-11.7,21.3-14.5,32.9c-1.5-2.9-2.9-5.9-4.3-8.9
			c8.9-35.1,29.8-63.7,48.6-94.3c0.9-1.4-1.1-2.6-2.1-1.3c-21.6,27.3-41,58.6-47.6,93.1c-5.6-12.2-10.5-24.8-14.8-37.6
			c-6.5-19.3-12.1-39-17.2-58.9c11.3-18,25.1-34.3,41-48.4c0,0,0.1-0.1,0.1-0.1c0,0,0-0.1,0-0.1c0,0,0-0.1,0-0.1c0,0,0-0.1,0-0.1
			c0,0-0.1-0.1-0.1-0.1c0,0-0.1,0-0.1,0c0,0-0.1,0-0.1,0c0,0-0.1,0-0.1,0.1c-16.7,9.3-32.7,27.6-41.6,45.1
			c-1.5-5.9-2.9-11.8-4.3-17.7c4.6-9.3,8.4-18.2,15.4-26.2c6.9-7.6,14.2-14.8,22-21.6c1-0.9-0.4-2.2-1.4-1.6
			c-14.3,10.6-33.2,24.8-37.3,43.5c-3.1-13.6-6-27.3-8.8-41c0-0.2,0-0.4-0.1-0.6c-3.9-19.2-7.6-38.4-11.2-57.6
			C1461.4,973.3,1459.8,973.7,1459.9,974.8z"/>
		
			<linearGradient id="SVGID_00000111893902883876248710000002037431824263241403_" gradientUnits="userSpaceOnUse" x1="62.8723" y1="213.326" x2="5.8269" y2="582.602" gradientTransform="matrix(1 0 0 -1 0 1455.4353)">
			<stop  offset="0" style="stop-color:#2E2E2E"/>
			<stop  offset="1" style="stop-color:#999999"/>
		</linearGradient>
		<path style="fill:url(#SVGID_00000111893902883876248710000002037431824263241403_);" d="M135.1,1182
			c44.8-82.8,21.8-159.3-6.3-229.8c-7.2-18-16-35.8-30-49.2c-13.9-13.4-33.9-21.9-52.9-17.9c-21.5,4.5-37.7,24.2-42.2,45.7
			c-4.4,21.5,1.4,44.1,11.6,63.5c-7-7.7-14.1-15.7-23.4-20.3c-9.3-4.7-21.3-5.5-29.6,0.8c-10.7,8.1-11.2,23.9-9.4,37.2
			c3.6,27.2,12.4,53.3,26,77.1c-5.2-8.3-10.5-16.8-18.1-23c-7.6-6.1-18.1-9.6-27.4-6.4c-9.3,3.2-15.3,12.5-17.1,22.1
			c-1.4,9.7-0.6,19.6,2.6,28.9c35.5,117.6,155.3,131.5,155.3,131.5S108,1232,135.1,1182z"/>
		<path class="st18" d="M36.4,940.2c-0.4-0.9-1.7-0.5-1.5,0.4c16.3,57.5,33.7,113.7,43.4,173c9.9,60.2,11.2,120.6,16.4,181.3
			c0,0.6,0.3,1.2,0.7,1.6c0.4,0.4,1,0.6,1.6,0.6c0.6,0,1.2-0.3,1.6-0.7c0.4-0.4,0.6-1,0.6-1.6c5.5-59-2.9-120.5-13.4-178.6
			C75,1057,60.8,995.4,36.4,940.2z"/>
		
			<linearGradient id="SVGID_00000009549664476277768830000003392730229898144186_" gradientUnits="userSpaceOnUse" x1="855.6408" y1="101.1918" x2="879.8558" y2="430.6418" gradientTransform="matrix(1 0 0 -1 0 1455.4353)">
			<stop  offset="0" style="stop-color:#878787"/>
			<stop  offset="1" style="stop-color:#B8B8B8"/>
		</linearGradient>
		<path style="fill:url(#SVGID_00000009549664476277768830000003392730229898144186_);" d="M875.3,1267.2
			c85.6-38.8,113.5-113.7,133.7-186.9c5.1-18.7,8.9-38.2,5.8-57.4c-3.1-19.2-13.8-38-31.3-46.3c-19.8-9.5-44.7-3.5-61.2,10.9
			c-16.5,14.5-25.5,35.9-29.1,57.6c-0.9-10.4-1.8-21-6.4-30.4c-4.6-9.3-13.7-17.2-24.1-17.2c-13.4,0-23.3,12.3-29.9,23.9
			c-13.5,23.8-22.3,50-25.8,77.2c0.9-9.8,1.8-19.7-0.6-29.2c-2.4-9.5-8.6-18.6-17.9-21.6s-19.7,0.7-27,7.2
			c-7,6.9-12.3,15.3-15.3,24.6c-43.1,115.2,44.1,198.8,44.1,198.8S823.4,1290.7,875.3,1267.2z"/>
		<path class="st33" d="M895.4,1144.3c37.3-11.2,69.4-40,90.1-72.2c0.4-0.6-0.5-1.1-0.9-0.5c-22.2,32.2-51.8,52.4-86.8,67.4
			c18.4-40.1,34.6-81.8,44.7-124.1c0.2-0.9-1.1-1.5-1.4-0.5c-21.3,54.7-41.1,109-68.3,161.2c-8.5-33.5-12.2-68.1-11-102.6
			c0-0.3-0.4-0.3-0.4,0c-2.1,35.2,1.4,70.5,10.4,104.6l-0.4,0.9c-14.5,27.4-30.8,53.5-47.5,79.3c-22.8-41.8-34.8-90.7-30.3-138.5
			c0-0.2-0.2-0.2-0.3,0c-4.5,49.7,3.4,97.6,27.6,141.6c0.1,0.2,0.3,0.4,0.5,0.6c-15.5,23.8-31.3,47.3-46.5,71.4
			c-0.2,0.5-0.2,1-0.1,1.5c0.1,0.5,0.4,0.9,0.9,1.2c0.4,0.3,0.9,0.4,1.4,0.4c0.5,0,1-0.2,1.4-0.6c29.1-31.8,53.1-69.1,74.4-107.3
			c41.4-16.9,83.4-37.4,111.4-73.3c0.4-0.5-0.3-1.3-0.8-0.7c-28.1,35.1-68.4,53-108.5,70.2c7.2-13.1,14-26.2,20.7-39.3
			C882.3,1171.9,889,1158,895.4,1144.3z"/>
		
			<linearGradient id="SVGID_00000022551654931954723350000005701188653968185493_" gradientUnits="userSpaceOnUse" x1="696.1933" y1="210.3423" x2="578.4223" y2="331.5624" gradientTransform="matrix(1 0 0 -1 0 1455.4353)">
			<stop  offset="0" style="stop-color:#6D6D6D"/>
			<stop  offset="1" style="stop-color:#B6B6B6"/>
		</linearGradient>
		<path style="fill:url(#SVGID_00000022551654931954723350000005701188653968185493_);" d="M726.6,1261.7
			c-27.7-16.7-69.2-29.9-102.8-44.9c-43.7-19.5-60.6-59.4-43.5-79c17.1-19.7,58.6-13.3,85.4,19.2
			C700,1198.6,726.6,1261.7,726.6,1261.7z"/>
		<path class="st35" d="M732.4,1268.6c-40.2-41.7-83.5-80.5-126.8-118.8c-0.4-0.3-0.8,0.3-0.4,0.6c42.5,39.6,84.9,79,125.2,120.8
			C731,1270.3,731.7,1269.5,732.4,1268.6z"/>
		
			<linearGradient id="SVGID_00000095306258374981006250000008417863766390355620_" gradientUnits="userSpaceOnUse" x1="715.7973" y1="203.1707" x2="713.5413" y2="414.6707" gradientTransform="matrix(1 0 0 -1 0 1455.4353)">
			<stop  offset="0" style="stop-color:#6D6D6D"/>
			<stop  offset="1" style="stop-color:#B6B6B6"/>
		</linearGradient>
		<path style="fill:url(#SVGID_00000095306258374981006250000008417863766390355620_);" d="M729.1,1280
			c-10.7-38.7-36.8-86.1-54.3-128.3c-22.8-54.9-4-105.2,28.2-108.4c32.2-3.2,64.2,38,60.5,90.2C758.9,1200.5,729.1,1280,729.1,1280z
			"/>
		<path class="st35" d="M728.4,1291.3c-0.6-72-6.5-144-12.9-215.4c0-0.6-0.9-0.4-0.9,0.2c4.5,71.9,9.1,143.8,9.7,215.7
			C725.7,1291.6,727.1,1291.4,728.4,1291.3z"/>
		
			<linearGradient id="SVGID_00000149359561170320223110000014012238707405648531_" gradientUnits="userSpaceOnUse" x1="18.6808" y1="195.4714" x2="-124.108" y2="402.3015" gradientTransform="matrix(1 0 0 -1 0 1455.4353)">
			<stop  offset="0" style="stop-color:#6D6D6D"/>
			<stop  offset="1" style="stop-color:#B6B6B6"/>
		</linearGradient>
		<path style="fill:url(#SVGID_00000149359561170320223110000014012238707405648531_);" d="M58.5,1261.7
			c-27.7-16.7-69.1-29.9-102.8-44.9c-43.7-19.5-60.6-59.4-43.5-79c17.1-19.7,58.6-13.3,85.3,19.2
			C31.9,1198.6,58.5,1261.7,58.5,1261.7z"/>
		<path class="st35" d="M64.4,1268.6c-40.2-41.7-83.5-80.5-126.9-118.8c-0.3-0.3-0.7,0.3-0.4,0.6c42.5,39.6,84.9,79,125.2,120.8
			C62.9,1270.3,63.7,1269.5,64.4,1268.6z"/>
		
			<linearGradient id="SVGID_00000076596020350443816000000003097430072473281424_" gradientUnits="userSpaceOnUse" x1="65.4858" y1="221.5062" x2="63.2134" y2="433.0162" gradientTransform="matrix(1 0 0 -1 0 1455.4353)">
			<stop  offset="0" style="stop-color:#6D6D6D"/>
			<stop  offset="1" style="stop-color:#ADADAD"/>
		</linearGradient>
		<path style="fill:url(#SVGID_00000076596020350443816000000003097430072473281424_);" d="M78.8,1262.3
			c-10.7-38.7-36.8-86.1-54.3-128.3c-22.8-54.9-4-105.2,28.2-108.4c32.2-3.1,64.2,38,60.5,90.2
			C108.7,1182.8,78.8,1262.3,78.8,1262.3z"/>
		<path class="st35" d="M78.1,1273.6c-0.6-72-6.5-144-12.9-215.4c0-0.6-0.9-0.4-0.9,0.2c4.5,71.9,9.1,143.8,9.7,215.7L78.1,1273.6z"
			/>
		
			<linearGradient id="SVGID_00000002361829960122036840000012127088693607521418_" gradientUnits="userSpaceOnUse" x1="172.3484" y1="319.0583" x2="414.2798" y2="355.6919" gradientTransform="matrix(1 0 0 -1 0 1455.4353)">
			<stop  offset="0" style="stop-color:#666666"/>
			<stop  offset="1" style="stop-color:#BCBCBC"/>
		</linearGradient>
		<path style="fill:url(#SVGID_00000002361829960122036840000012127088693607521418_);" d="M389.9,943.3
			c-75.6,30.4-251.1,155.4-191.4,349.3c0,0,108.4-27.7,148.6-144.5C373.9,1069.9,390.3,981.6,389.9,943.3z"/>
		<path class="st40" d="M198.1,1354.2c1.4-45.1,10.9-87.1,25.8-127.7h0.3c31.8-10.3,64-16.1,96.6-22.4c0.1,0,0.1,0,0.2-0.1
			c0,0,0.1-0.1,0.1-0.2c0-0.1,0-0.1-0.1-0.2c0,0-0.1-0.1-0.2-0.1c-32.2,0-63.9,7-94.5,16.5c0.2-0.6,0.5-1.3,0.7-1.9
			c16.9-4.9,33.5-10.8,50.7-14.9c16.3-3.8,33-5.3,49.2-8.9c0.7-0.2,0.8-1.3,0-1.4c-31.3-1.1-68.1,6.7-97.6,19.4
			c7.3-18.2,15.6-36.2,24.8-54.2c1.1-2.1,2.2-4.2,3.3-6.3c33.1-12.5,66.8-21.8,100.4-32.6c0.8-0.2,0.4-1.4-0.3-1.3
			c-33,4.3-65.7,14.8-96.6,27.2c2.1-4,4.1-7.9,6.2-11.9c32.1-11.3,63.6-24.1,96.1-34.1c0.2,0,0.1-0.4,0-0.3
			c-31.7,7.8-64,16.9-93.9,30.3c4.1-7.6,8.2-15.1,12.4-22.6c0.3-0.2,0.6-0.4,0.7-0.7c0.2-0.3,0.2-0.7,0.2-1
			c24.8-44.9,53.1-87.8,84.5-128.3c0.4-0.6-0.4-1.2-0.9-0.7c-27.1,32.7-51.8,67.4-73.9,103.6c0.4-18.8-7-40.3-16.3-55.4
			c-0.3-0.4-0.8,0-0.7,0.4c3.2,10.7,6.9,21.3,9.2,32.2c2,9.6,2.1,19.3,4.2,28.8c-2.5,4-4.8,8.1-7.2,12.1
			c-3.9-23.2-6.1-46.2-16.6-67.8c0-0.2-0.3,0-0.2,0c8.6,23.5,9.8,48.6,13.6,73.1c-10.7,18.3-21,37-30.8,55.9
			c-6.3,12.2-12.3,24.4-17.9,36.7c-3.3-9.3-9.7-17.3-14.2-26.1c-5-10.2-9.5-20.6-13.4-31.2c-0.2-0.5-0.6-0.9-1.1-1.2s-1-0.4-1.6-0.3
			c-0.5,0.1-1,0.3-1.4,0.7c-0.4,0.4-0.6,0.9-0.7,1.4c-1.1,10.1,4.6,22.9,8.9,31.7c5.2,10.6,11.4,23.2,20.5,30.6l0.3,0.2
			c-21.2,48.4-35.1,98.4-34,152.8C193.2,1357,198.1,1357,198.1,1354.2z"/>
		
			<linearGradient id="SVGID_00000134234923119949472710000007633451180640200340_" gradientUnits="userSpaceOnUse" x1="131.8905" y1="180.8367" x2="246.5565" y2="689.3117" gradientTransform="matrix(1 0 0 -1 0 1455.4353)">
			<stop  offset="0" style="stop-color:#6D6D6D"/>
			<stop  offset="1" style="stop-color:#B6B6B6"/>
		</linearGradient>
		<path style="fill:url(#SVGID_00000134234923119949472710000007633451180640200340_);" d="M127.4,1295c0,0-20.8-161.5-6.2-274
			c8.9-69,22.6-149.7,71.3-199.4c38.1-38.9,81.4-8.5,88.6,36.7c10,62.6-16.2,150.4-36.7,209.6C204.4,1183.7,127.4,1295,127.4,1295z"
			/>
		<path class="st40" d="M270.6,914.9c-31.8,27.9-61.6,58-89,90.2c1.3-5.6,2.5-11.2,3.9-16.8c28.7-33.5,58.9-66,90.2-97.2
			c0-0.1,0-0.3-0.1-0.2c-31.2,28.6-60.8,58.9-88.6,90.7c12.4-50.9,26.7-101.3,41.3-151.8c0-0.4-0.5-0.6-0.6-0.2
			c-4.6,14.5-9,29.1-13.4,43.6c0.4-14.4,0.3-28.9-0.3-43.3c0,0,0-0.1,0-0.1s-0.1,0-0.1,0c0,0-0.1,0-0.1,0s0,0,0,0.1
			c0.5,15.4,0.4,30.9-0.4,46.3c-17,56.4-32.6,113-44.7,170.7c-1.9-49.8-6.4-99.5-13.6-148.8c0,0,0-0.1,0-0.1c0,0,0,0-0.1,0
			c0,0-0.1,0-0.1,0s0,0,0,0.1c6.7,51.4,10.4,103.1,12.6,155c-1.3,6.2-2.5,12.5-3.7,18.8l-2.9,15.7c-2.1-54.5-10.6-108.9-14.3-163.3
			c0,0,0-0.1,0-0.1c0,0-0.1,0-0.1,0c0,0-0.1,0-0.1,0c0,0,0,0.1,0,0.1c5.3,57.1,5.2,115.1,12.9,172c-14.6,77.7-29.8,155.8-39.5,234.1
			c0,0.3,0.1,0.7,0.3,0.9c0.2,0.3,0.5,0.4,0.8,0.5c0.3,0,0.7,0,0.9-0.2c0.3-0.2,0.4-0.5,0.5-0.8c13.4-60.1,22.8-121.2,32.6-182.1
			c33.2-17.5,57.3-50.5,79.6-79.6c0.1-0.1,0.1-0.2,0.1-0.3c0-0.1-0.1-0.2-0.2-0.3c-0.1-0.1-0.2-0.1-0.3-0.1s-0.2,0.1-0.3,0.1
			c-23.6,29.2-47.6,55.2-78.4,76.7l3.1-19.1c32.1-26.3,58.9-57.8,83-91.4c0-0.2-0.1-0.3-0.2-0.2c-23.7,32.2-52.1,60.4-82,86.9
			c2.4-14.5,4.9-29.1,7.4-43.5c4-22.6,8.6-45,13.7-67.3c28.2-33.5,58.5-65.3,90.5-95.2C271,915.1,270.8,914.7,270.6,914.9z"/>
		
			<linearGradient id="SVGID_00000039118786100966597090000014794892931594564743_" gradientUnits="userSpaceOnUse" x1="1231.5602" y1="78.681" x2="1411.1902" y2="448.921" gradientTransform="matrix(1 0 0 -1 0 1455.4353)">
			<stop  offset="0" style="stop-color:#6D6D6D"/>
			<stop  offset="1" style="stop-color:#B6B6B6"/>
		</linearGradient>
		<path style="fill:url(#SVGID_00000039118786100966597090000014794892931594564743_);" d="M1441.4,985.7
			c-75.7,30.4-251.1,155.4-191.4,349.3c0,0,108.4-27.7,148.5-144.5C1425.4,1112.4,1441.7,1024.1,1441.4,985.7z"/>
		<path class="st40" d="M1249.6,1396.7c1.4-45.1,10.9-87,25.8-127.7c0.1,0,0.2,0,0.3,0c31.8-10.3,64-16,96.6-22.4
			c0.1,0,0.1-0.1,0.1-0.1c0-0.1,0.1-0.1,0.1-0.2c0-0.1,0-0.1-0.1-0.2c0,0-0.1-0.1-0.1-0.1c-32.2,0-63.9,7-94.5,16.5
			c0.2-0.7,0.4-1.3,0.7-1.9c16.9-4.9,33.5-10.8,50.6-14.9c16.3-3.8,33-5.4,49.2-8.9c0.7-0.2,0.8-1.3,0-1.4
			c-31.3-1.1-68.1,6.7-97.6,19.4c7.3-18.2,15.6-36.2,24.9-54.2c1.1-2.1,2.2-4.2,3.3-6.3c33.1-12.6,66.8-21.8,100.4-32.6
			c0.7-0.2,0.4-1.4-0.3-1.3c-33,4.3-65.6,14.8-96.6,27.2c2.1-3.9,4.1-7.9,6.2-11.9c32.1-11.3,63.6-24.1,96.1-34.2
			c0.2,0,0.1-0.4,0-0.3c-31.7,7.8-64,16.9-93.9,30.3c4.1-7.6,8.2-15.1,12.4-22.6c0.3-0.2,0.6-0.4,0.7-0.7c0.2-0.3,0.2-0.7,0.2-1
			c24.8-44.9,53.1-87.8,84.5-128.3c0.5-0.6-0.4-1.2-0.9-0.7c-27.1,32.7-51.8,67.3-73.9,103.6c0.4-18.7-7-40.2-16.3-55.4
			c-0.3-0.4-0.8,0-0.7,0.4c3.2,10.7,6.9,21.3,9.2,32.2c2,9.5,2.1,19.3,4.1,28.8c-2.4,4-4.8,8.1-7.2,12.2
			c-3.9-23.2-6.1-46.2-16.5-67.8c0-0.2-0.3,0-0.2,0.1c8.6,23.4,9.8,48.6,13.6,73.1c-10.7,18.3-20.9,37-30.7,55.9
			c-6.4,12.2-12.3,24.4-17.9,36.7c-3.3-9.3-9.6-17.3-14.2-26.1c-5-10.1-9.5-20.5-13.4-31.2c-0.2-0.5-0.6-0.9-1.1-1.2
			c-0.5-0.3-1-0.4-1.6-0.3c-0.5,0.1-1,0.3-1.4,0.7s-0.7,0.9-0.7,1.4c-1.1,10.1,4.6,22.9,8.9,31.7c5.2,10.6,11.4,23.2,20.5,30.6
			c0.1,0.1,0.2,0.1,0.3,0.2c-21.2,48.4-35.1,98.4-34,152.8C1244.7,1399.5,1249.5,1399.5,1249.6,1396.7z"/>
		
			<linearGradient id="SVGID_00000169532742275604049910000017063094727241005707_" gradientUnits="userSpaceOnUse" x1="1247.504" y1="267.1619" x2="1002.914" y2="274.5019" gradientTransform="matrix(1 0 0 -1 0 1455.4353)">
			<stop  offset="0" style="stop-color:#6D6D6D"/>
			<stop  offset="1" style="stop-color:#B6B6B6"/>
		</linearGradient>
		<path style="fill:url(#SVGID_00000169532742275604049910000017063094727241005707_);" d="M1006.5,1022.4
			c78.7,21.2,267.7,124.7,231.3,324.3c0,0-110.9-14.7-164.5-126C1037.4,1146.2,1010.8,1060.5,1006.5,1022.4z"/>
		<path class="st40" d="M1245.5,1407.8c-6.7-44.7-21.1-85.2-40.7-123.8h-0.3c-32.7-6.5-65.4-8.4-98.6-10.8c-0.1,0-0.1,0-0.2-0.1
			c-0.1,0-0.1-0.1-0.1-0.2c0-0.1,0-0.1,0.1-0.2c0.1,0,0.1-0.1,0.2-0.1c31.9-3.8,64.3-0.6,95.8,5.2c-0.3-0.6-0.6-1.2-0.9-1.8
			c-17.4-2.8-34.5-6.7-52.1-8.8c-16.7-1.9-33.4-1.4-50-3.1c-0.7,0-1-1.2-0.2-1.3c30.9-4.8,68.5-1.3,99.2,7.8
			c-9.4-17.2-19.8-34.2-31.1-50.9l-4-5.9c-34.3-8.6-68.9-13.8-103.6-20.5c-0.8-0.2-0.6-1.4,0.2-1.4c33.3,0.3,67.1,7,99.1,15.7
			c-2.5-3.7-5-7.4-7.6-11.2c-33.2-7.4-66-16.4-99.6-22.5c-0.2,0-0.2-0.4,0-0.3c32.4,4,65.5,9.2,96.8,19c-4.9-7.1-9.9-14-15-21
			c-0.3-0.1-0.6-0.3-0.8-0.6c-0.2-0.3-0.3-0.6-0.3-1c-29.9-41.7-63-80.9-99.1-117.4c-0.5-0.5,0.3-1.2,0.8-0.8
			c30.8,29.3,59.4,60.8,85.6,94.2c-2.6-18.6,2.2-40.7,9.7-56.9c0.2-0.4,0.8,0,0.7,0.3c-1.9,11-4.3,22-5.3,33.1
			c-0.9,9.7,0.2,19.5-0.7,29.1c2.9,3.7,5.7,7.5,8.6,11.2c1.1-23.5,0.6-46.6,8.4-69.3c0,0,0-0.1,0-0.1c0,0,0,0,0.1,0s0.1,0,0.1,0
			c0,0,0,0.1,0,0.1c-5.7,24.3-4,49.4-4.9,74.2c12.8,17,25.2,34.2,37.1,51.8c7.7,11.3,15.1,22.8,22.1,34.3c2.2-9.6,7.5-18.3,11-27.6
			c3.8-10.6,7-21.4,9.6-32.3c0.2-0.5,0.5-1,0.9-1.3c0.4-0.3,1-0.5,1.5-0.5c0.5,0,1.1,0.2,1.5,0.5c0.4,0.3,0.8,0.8,0.9,1.3
			c2.2,9.9-1.9,23.2-5.1,32.5c-3.9,11.2-8.5,24.4-16.8,32.8c-0.1,0.1-0.2,0.1-0.3,0.2c26.8,45.5,46.5,93.5,51.8,147.6
			C1250.7,1410,1246,1410.6,1245.5,1407.8z"/>
		
			<linearGradient id="SVGID_00000066498710517427638590000018441224608497621683_" gradientUnits="userSpaceOnUse" x1="1365.25" y1="224.5871" x2="1492.4299" y2="337.5672" gradientTransform="matrix(1 0 0 -1 0 1455.4353)">
			<stop  offset="0" style="stop-color:#6D6D6D"/>
			<stop  offset="1" style="stop-color:#B6B6B6"/>
		</linearGradient>
		<path style="fill:url(#SVGID_00000066498710517427638590000018441224608497621683_);" d="M1353.5,1254.9
			c17.9-26.8,33-67.8,49.4-100.6c21.4-42.9,62-57.9,80.8-40c18.9,18,10.7,59.2-22.9,84.4C1417.7,1231.1,1353.5,1254.9,1353.5,1254.9
			z"/>
		<path class="st35" d="M1346.4,1260.4c43.4-38.3,84.2-79.9,124.2-121.5c0.3-0.3-0.2-0.8-0.6-0.4c-41.5,40.6-82.7,81.4-126.1,119.7
			L1346.4,1260.4z"/>
		
			<linearGradient id="SVGID_00000119103787133195524640000009370056573899168147_" gradientUnits="userSpaceOnUse" x1="1228.947" y1="192.189" x2="1183.4071" y2="398.5989" gradientTransform="matrix(1 0 0 -1 0 1455.4353)">
			<stop  offset="0" style="stop-color:#6D6D6D"/>
			<stop  offset="1" style="stop-color:#ADADAD"/>
		</linearGradient>
		<path style="fill:url(#SVGID_00000119103787133195524640000009370056573899168147_);" d="M1247.7,1290.9
			c-18.3-35.8-53.3-76.9-79-114.7c-33.4-49.2-25.1-102.3,5.8-111.8c30.9-9.5,70.5,24.4,77.5,76.2
			C1260.9,1207,1247.7,1290.9,1247.7,1290.9z"/>
		<path class="st35" d="M1249.3,1302.1c-15.1-70.4-35.3-139.8-56-208.4c-0.2-0.5-1-0.2-0.8,0.4c18.8,69.6,38,139,53,209.3
			C1246.7,1302.9,1248,1302.5,1249.3,1302.1z"/>
		
			<linearGradient id="SVGID_00000112619459774856252150000017140748631396370320_" gradientUnits="userSpaceOnUse" x1="940.5023" y1="206.7074" x2="1086.7963" y2="359.4874" gradientTransform="matrix(1 0 0 -1 0 1455.4353)">
			<stop  offset="0" style="stop-color:#6D6D6D"/>
			<stop  offset="1" style="stop-color:#B6B6B6"/>
		</linearGradient>
		<path style="fill:url(#SVGID_00000112619459774856252150000017140748631396370320_);" d="M931.5,1277.2
			c19.4-35.2,33.8-87.2,50.7-129.7c22.1-55.2,70.7-78.1,95.9-57.8c25.2,20.3,19.3,72.2-19.7,106.9
			C1008.3,1241.2,931.5,1277.2,931.5,1277.2z"/>
		<path class="st35" d="M923.1,1284.8c49.8-51.9,96-107.5,141.2-163.1c0.4-0.4-0.4-0.9-0.7-0.5c-47.1,54.5-93.9,109.3-143.7,161
			C920.9,1283.1,922,1284,923.1,1284.8z"/>
		
			<radialGradient id="SVGID_00000027565124247120045310000012697364242960342925_" cx="219.8838" cy="1227.8644" r="1" gradientTransform="matrix(1892.77 0 0 -1894.09 -414546.5625 2325790)" gradientUnits="userSpaceOnUse">
			<stop  offset="0" style="stop-color:#E5E5E5"/>
			<stop  offset="0.52" style="stop-color:#E3E3E3;stop-opacity:0.49"/>
			<stop  offset="1" style="stop-color:#E1E1E1;stop-opacity:0"/>
		</radialGradient>
		<path style="opacity:0.51;fill:url(#SVGID_00000027565124247120045310000012697364242960342925_);enable-background:new    ;" d="
			M1565.9,202.3H-110.3v1017.3h1676.2V202.3z"/>
		
			<linearGradient id="SVGID_00000018943029847816537540000008418093233627720074_" gradientUnits="userSpaceOnUse" x1="1219.2693" y1="1488.0116" x2="524.8793" y2="544.7513" gradientTransform="matrix(1 0 0 -1 0 1455.4353)">
			<stop  offset="0" style="stop-color:#EFEFEF"/>
			<stop  offset="0.5" style="stop-color:#EEEEEE;stop-opacity:0.49"/>
			<stop  offset="1" style="stop-color:#EDEDED;stop-opacity:0"/>
		</linearGradient>
		<path style="opacity:0.44;fill:url(#SVGID_00000018943029847816537540000008418093233627720074_);enable-background:new    ;" d="
			M1569.5,39.2L775.3,1404.3H283L1454.7,39.2H1569.5z M1651.8,82.6L881.5,1495.2l133.2,10.5l669.7-1410L1651.8,82.6z M382.8,20.9
			l-503.3,506l-9.4,194.9c0,0,582.2-659.5,585.9-668.1L382.8,20.9z M556.3,56.7l-747.6,918.5l89.4,78.3L634.5,56.6L556.3,56.7z
			 M926.1,56.7C914.2,65.3-145.2,1250.9-145.2,1250.9l220.5,141.8l911-1353.5L926.1,56.7z"/>
	</g>
</mask>
<g class="st49">
	<rect y="-16.3" class="st50" width="1440" height="1208"/>
</g>
</svg>
